<svg xmlns="http://www.w3.org/2000/svg" width="74" height="49" viewBox="0 0 74 49" fill="none"><path d="M2.76364 10.4424V20.2139C2.76364 21.6078 2.99742 22.6254 3.45936 23.2696C4.15507 24.2046 5.12119 24.6663 6.37461 24.6663C7.62802 24.6663 8.60541 24.2017 9.29831 23.2696C9.76024 22.651 9.99121 21.6306 9.99121 20.2139V10.4424H12.4755V20.8923C12.4755 22.6054 11.9375 24.0136 10.8559 25.1224C9.63912 26.3538 8.14347 26.9695 6.37742 26.9695C4.61137 26.9695 3.11572 26.3538 1.90737 25.1224C0.825773 24.0136 0.284973 22.6054 0.284973 20.8923V10.4424H2.76364Z" fill="black"></path><path d="M14.2783 26.6787V9.3335L26.2942 21.7217V10.4423H28.7813V27.665L16.7654 15.3081V26.6787H14.2783Z" fill="black"></path><path d="M33.0738 10.4424V26.6788H30.5839V10.4424H33.0738Z" fill="black"></path><path d="M45.07 22.7308H38.0171L36.1806 26.6787H33.5048L41.6534 9.41614L49.5175 26.6787H46.7966L45.07 22.7308ZM44.056 20.4276L41.6139 14.9062L39.0564 20.4276H44.0588H44.056Z" fill="black"></path><path d="M61.094 11.3032V14.1993C59.6603 13.0135 58.1759 12.4234 56.6352 12.4234C54.9424 12.4234 53.5143 13.022 52.3539 14.2221C51.1906 15.4165 50.6076 16.8702 50.6076 18.5948C50.6076 20.3193 51.1906 21.7389 52.3539 22.9076C53.5228 24.0791 54.9565 24.6606 56.6437 24.6606C57.5168 24.6606 58.2604 24.5238 58.8773 24.2444C59.2209 24.1019 59.5702 23.9109 59.9335 23.6715C60.2997 23.432 60.6912 23.147 61.094 22.8135V25.7752C59.6716 26.5676 58.1788 26.9638 56.6127 26.9638C54.258 26.9638 52.2497 26.1571 50.585 24.5323C48.926 22.9019 48.0979 20.9322 48.0979 18.6233C48.0979 16.5567 48.7964 14.7067 50.1851 13.0876C51.8891 11.1037 54.0974 10.1117 56.8099 10.1117C58.2858 10.1117 59.7195 10.5022 61.0968 11.2946L61.094 11.3032Z" fill="black"></path><path d="M73.9972 11.3032V14.1993C72.5607 13.0135 71.0707 12.4234 69.5356 12.4234C67.84 12.4234 66.4148 13.022 65.2543 14.2221C64.0882 15.4165 63.5052 16.8702 63.5052 18.5948C63.5052 20.3193 64.0882 21.7389 65.2543 22.9076C66.4176 24.0791 67.8513 24.6606 69.5441 24.6606C70.4201 24.6606 71.1637 24.5238 71.7749 24.2444C72.1157 24.1019 72.4678 23.9109 72.8368 23.6715C73.2086 23.432 73.5888 23.147 73.9972 22.8135V25.7752C72.5748 26.5676 71.0792 26.9638 69.5131 26.9638C67.1612 26.9638 65.1501 26.1571 63.4826 24.5323C61.8236 22.9019 61.004 20.9322 61.004 18.6233C61.004 16.5567 61.694 14.7067 63.0798 13.0876C64.7896 11.1037 66.995 10.1117 69.7075 10.1117C71.1834 10.1117 72.6143 10.5022 73.9972 11.2946V11.3032Z" fill="black"></path><path d="M16.7795 29.0046H0.273804V31.3392H16.7795V29.0046Z" fill="#FF5B00"></path><path d="M28.7812 29.0046H16.7794V31.3392H28.7812V29.0046Z" fill="#4D98C5"></path><path d="M34.0343 31.3392H28.7812V29.0046H35.1441L34.0343 31.3392Z" fill="#EE2183"></path><path d="M35.1272 29.0046H50.6245V34.6971L57.4662 29.0046H73.9972V31.3392H58.2267L48.2388 39.7025V31.3335L34.0231 31.342L35.1272 29.0046Z" fill="black"></path><path d="M19.3116 1.0925C19.3116 0.94713 19.3905 0.858765 19.506 0.858765C19.6215 0.858765 19.6975 0.94713 19.6975 1.0925V3.04224C19.6975 3.85178 19.2863 4.25655 18.6525 4.25655C18.0188 4.25655 17.6104 3.85178 17.6104 3.04224V1.0925C17.6104 0.94713 17.6892 0.858765 17.8047 0.858765C17.9202 0.858765 17.9962 0.94713 17.9962 1.0925V3.04224C17.9962 3.57813 18.261 3.85178 18.6553 3.85178C19.0497 3.85178 19.3116 3.57813 19.3116 3.04224V1.0925Z" fill="black"></path><path d="M21.5481 1.12386C21.5481 0.964233 21.627 0.861615 21.7622 0.861615C21.8748 0.861615 21.9481 0.944279 22.0213 1.0868L23.2803 3.42421H23.2972V1.07825C23.2972 0.941429 23.3705 0.858765 23.4747 0.858765C23.5789 0.858765 23.6578 0.941429 23.6578 1.07825V3.96295C23.6578 4.12543 23.5789 4.2252 23.4465 4.2252C23.3339 4.2252 23.255 4.14253 23.1818 4.00001L21.9227 1.67115H21.9086V4.00856C21.9086 4.14538 21.8354 4.22805 21.7312 4.22805C21.627 4.22805 21.5481 4.14538 21.5481 4.00856V1.12386Z" fill="black"></path><path d="M25.5309 1.0925C25.5309 0.94713 25.6098 0.858765 25.7252 0.858765C25.8407 0.858765 25.9168 0.94713 25.9168 1.0925V3.99431C25.9168 4.13968 25.8379 4.22805 25.7252 4.22805C25.6126 4.22805 25.5309 4.13968 25.5309 3.99431V1.0925Z" fill="black"></path><path d="M28.646 3.50117H28.6601L29.3839 1.02979C29.4149 0.918625 29.4797 0.858765 29.567 0.858765C29.6769 0.858765 29.7529 0.94713 29.7529 1.064C29.7529 1.0925 29.7473 1.12671 29.736 1.17232L28.8798 3.98005C28.8234 4.15678 28.7615 4.22805 28.6403 4.22805C28.5192 4.22805 28.4573 4.15393 28.4066 3.98005L27.5503 1.17232C27.5362 1.12956 27.5334 1.09536 27.5334 1.064C27.5334 0.94713 27.6123 0.858765 27.7193 0.858765C27.8094 0.858765 27.8714 0.918625 27.9052 1.02979L28.6432 3.50117H28.646Z" fill="black"></path><path d="M31.3754 1.07864C31.3754 0.961772 31.4402 0.881958 31.55 0.881958H33.0682C33.1865 0.881958 33.2597 0.970323 33.2597 1.08149C33.2597 1.19266 33.1865 1.28673 33.0682 1.28673H31.7866C31.7697 1.28673 31.7613 1.29528 31.7613 1.31523V2.2901C31.7613 2.31005 31.7697 2.31861 31.7866 2.31861H32.8541C32.9724 2.31861 33.0456 2.40697 33.0456 2.51814C33.0456 2.62931 32.9724 2.72338 32.8541 2.72338H31.7866C31.7697 2.72338 31.7613 2.73193 31.7613 2.75188V3.7638C31.7613 3.78376 31.7697 3.79231 31.7866 3.79231H33.0682C33.1865 3.79231 33.2597 3.88068 33.2597 3.99184C33.2597 4.10301 33.1865 4.19708 33.0682 4.19708H31.55C31.4402 4.19708 31.3754 4.12012 31.3754 4.0004V1.07864Z" fill="black"></path><path d="M34.9611 3.9947V1.07864C34.9611 0.961772 35.0258 0.881958 35.1357 0.881958H36.0596C36.6313 0.881958 36.9919 1.25822 36.9919 1.83972C36.9919 2.2844 36.7834 2.60651 36.4314 2.73193L36.9609 3.90348C36.9778 3.94339 36.9862 3.97759 36.9862 4.02035C36.9862 4.12867 36.9158 4.22558 36.8003 4.22558C36.7215 4.22558 36.6623 4.18283 36.6144 4.08876L36.0342 2.79464H35.3751C35.3582 2.79464 35.3498 2.80319 35.3498 2.82314V3.98899C35.3498 4.13437 35.2709 4.22273 35.1582 4.22273C35.0456 4.22273 34.9639 4.13437 34.9639 3.98899L34.9611 3.9947ZM36.6116 1.84257C36.6116 1.49481 36.4088 1.28958 36.0652 1.28958H35.3751C35.3582 1.28958 35.3498 1.29813 35.3498 1.31808V2.36136C35.3498 2.38132 35.3582 2.38987 35.3751 2.38987H36.0652C36.4088 2.38987 36.6116 2.18463 36.6116 1.83687V1.84257Z" fill="black"></path><path d="M38.7579 3.94607C38.696 3.89762 38.6622 3.83491 38.6622 3.75509C38.6622 3.64677 38.7354 3.54986 38.8481 3.54986C38.8903 3.54986 38.9354 3.56981 38.9692 3.59261C39.1804 3.74369 39.4199 3.85201 39.7015 3.85201C40.1184 3.85201 40.3606 3.62682 40.3606 3.28476C40.3606 3.00256 40.2226 2.82583 39.7438 2.74317L39.6001 2.71751C39.0058 2.61489 38.727 2.31844 38.727 1.79395C38.727 1.2039 39.1016 0.827637 39.6903 0.827637C40.0085 0.827637 40.293 0.930254 40.4705 1.05283C40.5437 1.10698 40.5747 1.1697 40.5747 1.24381C40.5747 1.35213 40.5015 1.43764 40.4001 1.43764C40.3606 1.43764 40.3127 1.41769 40.2733 1.39774C40.0874 1.30367 39.8902 1.23241 39.6734 1.23241C39.3016 1.23241 39.1128 1.46045 39.1128 1.7683C39.1128 2.04765 39.2649 2.22153 39.7241 2.30134L39.8677 2.327C40.462 2.42961 40.7437 2.72606 40.7437 3.25911C40.7437 3.83491 40.3775 4.25393 39.6621 4.25393C39.279 4.25393 38.9551 4.10285 38.7467 3.94037L38.7579 3.94607Z" fill="black"></path><path d="M42.4927 1.0925C42.4927 0.94713 42.5716 0.858765 42.6871 0.858765C42.8026 0.858765 42.8786 0.94713 42.8786 1.0925V3.99431C42.8786 4.13968 42.7998 4.22805 42.6871 4.22805C42.5744 4.22805 42.4927 4.13968 42.4927 3.99431V1.0925Z" fill="black"></path><path d="M44.7489 1.07864C44.7489 0.961772 44.8137 0.881958 44.9235 0.881958H45.6756C46.2474 0.881958 46.5995 1.13565 46.7431 1.63734C46.8079 1.85113 46.8304 2.06206 46.8304 2.54094C46.8304 3.01983 46.8079 3.22791 46.7431 3.44455C46.5995 3.94624 46.2474 4.19993 45.6756 4.19993H44.9235C44.8137 4.19993 44.7489 4.12297 44.7489 4.00325V1.07864ZM45.1601 3.79801H45.6474C46.0389 3.79801 46.2643 3.66119 46.3685 3.29918C46.4164 3.12815 46.4389 2.93716 46.4389 2.54379C46.4389 2.15043 46.4164 1.95659 46.3685 1.78841C46.2643 1.4264 46.0389 1.28958 45.6474 1.28958H45.1601C45.1432 1.28958 45.1348 1.29813 45.1348 1.31808V3.76951C45.1348 3.78946 45.1432 3.79801 45.1601 3.79801Z" fill="black"></path><path d="M48.3458 3.92903L49.2527 1.10134C49.3006 0.944566 49.3739 0.856201 49.5034 0.856201C49.633 0.856201 49.7147 0.944566 49.7626 1.10134L50.6554 3.92903C50.6639 3.95754 50.6723 3.99174 50.6723 4.02595C50.6723 4.14852 50.5907 4.22548 50.4893 4.22548C50.4019 4.22548 50.3343 4.17132 50.3034 4.06871L50.1034 3.4302H48.8922L48.6922 4.06871C48.6612 4.17132 48.5936 4.22548 48.5063 4.22548C48.4049 4.22548 48.3232 4.14852 48.3232 4.02595C48.3232 3.99174 48.3317 3.95754 48.3401 3.92903H48.3458ZM49.9823 3.03113L49.5147 1.52322H49.5006L49.0218 3.03113H49.9823Z" fill="black"></path><path d="M52.3286 1.07864C52.3286 0.961772 52.3934 0.881958 52.5032 0.881958H53.2553C53.8271 0.881958 54.1792 1.13565 54.3228 1.63734C54.3876 1.85113 54.4101 2.06206 54.4101 2.54094C54.4101 3.01983 54.3876 3.22791 54.3228 3.44455C54.1792 3.94624 53.8271 4.19993 53.2553 4.19993H52.5032C52.3934 4.19993 52.3286 4.12297 52.3286 4.00325V1.07864ZM52.7398 3.79801H53.2271C53.6186 3.79801 53.844 3.66119 53.9482 3.29918C53.9961 3.12815 54.0186 2.93716 54.0186 2.54379C54.0186 2.15043 53.9961 1.95659 53.9482 1.78841C53.844 1.4264 53.6186 1.28958 53.2271 1.28958H52.7398C52.7229 1.28958 52.7145 1.29813 52.7145 1.31808V3.76951C52.7145 3.78946 52.7229 3.79801 52.7398 3.79801Z" fill="black"></path><path d="M1.92432 46.7317C2.27077 46.8714 2.48766 47.222 2.46512 47.6011C2.48202 47.8833 2.36372 48.157 2.14966 48.3423C1.91587 48.5218 1.62576 48.6159 1.33282 48.6017H0.0794063C0.056873 48.6017 0.0371563 48.596 0.0202563 48.5817C0.00617301 48.5646 -0.00227699 48.5447 0.000539678 48.5219V45.0471C0.000539678 45.0328 0.00898968 45.0157 0.0202563 45.0043C0.0371563 44.9901 0.056873 44.9815 0.0794063 44.9844H1.29339C1.58914 44.9673 1.88489 45.0557 2.12431 45.2324C2.32992 45.412 2.43977 45.6799 2.42287 45.9564C2.44259 46.2956 2.24542 46.6063 1.93277 46.7317C1.91306 46.7346 1.91024 46.7346 1.92714 46.7346L1.92432 46.7317ZM0.493456 45.4148V46.5037C0.493456 46.5037 0.504723 46.5294 0.51599 46.5294C0.51599 46.5294 0.51599 46.5294 0.518806 46.5294H1.29057C1.45957 46.5436 1.62857 46.4923 1.76096 46.3868C1.87644 46.2842 1.93841 46.1303 1.93277 45.9764C1.94122 45.8167 1.87644 45.6628 1.76096 45.5545C1.62857 45.4433 1.45957 45.3892 1.29057 45.3977H0.521623C0.521623 45.3977 0.49909 45.4091 0.49909 45.4205V45.4148H0.493456ZM1.79476 48.0031C2.02572 47.7522 2.02572 47.3617 1.79476 47.1109C1.66237 46.9968 1.49056 46.9398 1.31592 46.9484H0.521623C0.521623 46.9484 0.496273 46.9541 0.493456 46.9683C0.493456 46.9683 0.493456 46.974 0.493456 46.9769V48.1427C0.493456 48.1427 0.49909 48.1684 0.513173 48.1712C0.513173 48.1712 0.518806 48.1712 0.521623 48.1712H1.33564C1.50464 48.1826 1.67082 48.1256 1.80039 48.0116V48.0059L1.79476 48.0031Z" fill="black"></path><path d="M4.46777 48.5903C4.45368 48.5732 4.44523 48.5532 4.44805 48.5304V45.0442C4.44523 45.0043 4.4734 44.9701 4.51283 44.9644C4.51847 44.9644 4.52128 44.9644 4.52692 44.9644H4.86773C4.90717 44.9616 4.94097 44.9901 4.9466 45.03C4.9466 45.0357 4.9466 45.0385 4.9466 45.0442V48.5332C4.94942 48.5732 4.92125 48.6074 4.88182 48.6131C4.87618 48.6131 4.87337 48.6131 4.86773 48.6131H4.52692C4.50438 48.6131 4.48467 48.6045 4.46777 48.5903Z" fill="black"></path><path d="M9.39694 45.3778C9.38004 45.392 9.36032 45.4006 9.33779 45.3977H7.54076C7.54076 45.3977 7.51541 45.4063 7.51259 45.4177C7.51259 45.4177 7.51259 45.4177 7.51259 45.4205V46.5294C7.51259 46.5294 7.52386 46.555 7.53512 46.555C7.53512 46.555 7.53512 46.555 7.53794 46.555H8.76037C8.79981 46.5522 8.83361 46.5807 8.83924 46.6206C8.83924 46.6263 8.83924 46.6291 8.83924 46.6348V46.9113C8.84206 46.9512 8.81389 46.9854 8.77446 46.9911C8.76882 46.9911 8.76601 46.9911 8.76037 46.9911H7.53794C7.53794 46.9911 7.51259 46.9968 7.50977 47.0111C7.50977 47.0111 7.50977 47.0168 7.50977 47.0196V48.1541C7.50977 48.1541 7.51541 48.1798 7.52949 48.1826C7.52949 48.1826 7.53512 48.1826 7.53794 48.1826H9.33497C9.37441 48.1798 9.40821 48.2083 9.41384 48.2482C9.41384 48.2539 9.41384 48.2567 9.41384 48.2624V48.5389C9.41666 48.5789 9.38849 48.6131 9.34906 48.6188C9.34342 48.6188 9.34061 48.6188 9.33497 48.6188H7.09572C7.05629 48.6216 7.02249 48.5931 7.01686 48.5532C7.01686 48.5475 7.01686 48.5446 7.01686 48.5389V45.0442C7.01404 45.0043 7.04221 44.9701 7.08164 44.9644C7.08727 44.9644 7.09009 44.9644 7.09572 44.9644H9.33497C9.37441 44.9616 9.40821 44.9901 9.41384 45.03C9.41384 45.0357 9.41384 45.0385 9.41384 45.0442V45.3207C9.41384 45.3407 9.40821 45.3606 9.39412 45.3749L9.39694 45.3778Z" fill="black"></path><path d="M11.3574 48.59C11.3433 48.5729 11.3349 48.5529 11.3377 48.5301V45.044C11.3349 45.0041 11.363 44.9699 11.4025 44.9642C11.4081 44.9642 11.4109 44.9642 11.4166 44.9642H11.7574C11.794 44.9642 11.8306 44.9841 11.8503 45.0155L13.4248 47.5952H13.4446C13.4643 47.5952 13.4446 47.5952 13.4446 47.5724V45.0297C13.4417 44.9898 13.4699 44.9556 13.5093 44.9499C13.515 44.9499 13.5178 44.9499 13.5234 44.9499H13.8642C13.9037 44.9471 13.9375 44.9756 13.9431 45.0155C13.9431 45.0212 13.9431 45.024 13.9431 45.0297V48.5187C13.9459 48.5586 13.9178 48.5928 13.8783 48.5985C13.8727 48.5985 13.8699 48.5985 13.8642 48.5985H13.5234C13.4868 48.5985 13.4502 48.5786 13.4305 48.5472L11.856 45.9533H11.8362C11.8165 45.9533 11.8362 45.9533 11.8362 45.9761V48.5358C11.8391 48.5757 11.8109 48.6099 11.7715 48.6156C11.7658 48.6156 11.763 48.6156 11.7574 48.6156H11.4166C11.394 48.6156 11.3715 48.6042 11.3574 48.5871V48.59Z" fill="black"></path><path d="M16.8526 48.5474L15.7626 45.0498C15.7626 45.0498 15.7626 45.0299 15.7626 45.0185C15.7626 44.9814 15.7851 44.9586 15.833 44.9586H16.1992C16.2189 44.9586 16.2414 44.9643 16.2583 44.9757C16.2752 44.9871 16.2865 45.0042 16.2893 45.0242L17.1343 47.8633L17.9737 45.0242C17.9765 45.0042 17.9877 44.9871 18.0046 44.9757C18.0215 44.9643 18.0413 44.9586 18.0638 44.9586H18.4046C18.4666 44.9586 18.4891 44.99 18.4722 45.0498L17.3709 48.5474C17.3596 48.5873 17.323 48.6129 17.2808 48.6101H16.9061C16.878 48.6015 16.8583 48.5759 16.8526 48.5474Z" fill="black"></path><path d="M22.6579 45.3778C22.641 45.392 22.6213 45.4006 22.5987 45.3977H20.8017C20.8017 45.3977 20.7763 45.4063 20.7735 45.4177C20.7735 45.4177 20.7735 45.4177 20.7735 45.4205V46.5294C20.7735 46.5294 20.7848 46.555 20.796 46.555C20.796 46.555 20.796 46.555 20.7989 46.555H22.0213C22.0607 46.5522 22.0945 46.5807 22.1002 46.6206C22.1002 46.6263 22.1002 46.6291 22.1002 46.6348V46.9113C22.103 46.9512 22.0748 46.9854 22.0354 46.9911C22.0297 46.9911 22.0269 46.9911 22.0213 46.9911H20.7989C20.7989 46.9911 20.7735 46.9968 20.7707 47.0111C20.7707 47.0111 20.7707 47.0168 20.7707 47.0196V48.1541C20.7707 48.1541 20.7763 48.1798 20.7904 48.1826C20.7904 48.1826 20.796 48.1826 20.7989 48.1826H22.5959C22.6353 48.1798 22.6691 48.2083 22.6748 48.2482C22.6748 48.2539 22.6748 48.2567 22.6748 48.2624V48.5389C22.6776 48.5789 22.6494 48.6131 22.61 48.6188C22.6043 48.6188 22.6015 48.6188 22.5959 48.6188H20.3566C20.3172 48.6216 20.2834 48.5931 20.2778 48.5532C20.2778 48.5475 20.2778 48.5446 20.2778 48.5389V45.0442C20.275 45.0043 20.3031 44.9701 20.3426 44.9644C20.3482 44.9644 20.351 44.9644 20.3566 44.9644H22.5959C22.6353 44.9616 22.6691 44.9901 22.6748 45.03C22.6748 45.0357 22.6748 45.0385 22.6748 45.0442V45.3207C22.6748 45.3407 22.6691 45.3606 22.655 45.3749L22.6579 45.3778Z" fill="black"></path><path d="M24.607 48.59C24.593 48.5729 24.5845 48.5529 24.5873 48.5301V45.044C24.5845 45.0041 24.6127 44.9699 24.6521 44.9642C24.6577 44.9642 24.6606 44.9642 24.6662 44.9642H25.007C25.0436 44.9642 25.0802 44.9841 25.1 45.0155L26.6576 47.5952H26.6773C26.697 47.5952 26.6773 47.5952 26.6773 47.5724V45.0297C26.6745 44.9898 26.7026 44.9556 26.7421 44.9499C26.7477 44.9499 26.7505 44.9499 26.7562 44.9499H27.097C27.1364 44.9471 27.1702 44.9756 27.1758 45.0155C27.1758 45.0212 27.1758 45.024 27.1758 45.0297V48.5187C27.1787 48.5586 27.1505 48.5928 27.1111 48.5985C27.1054 48.5985 27.1026 48.5985 27.097 48.5985H26.7562C26.7195 48.5985 26.6829 48.5786 26.6632 48.5472L25.0887 45.9533H25.069C25.0493 45.9533 25.069 45.9533 25.069 45.9761V48.5358C25.0718 48.5757 25.0436 48.6099 25.0042 48.6156C24.9986 48.6156 24.9957 48.6156 24.9901 48.6156H24.6493C24.6324 48.6099 24.6183 48.6014 24.607 48.5871V48.59Z" fill="black"></path><path d="M29.2911 48.5903C29.277 48.5732 29.2685 48.5532 29.2714 48.5304V45.0442C29.2685 45.0043 29.2967 44.9701 29.3361 44.9644C29.3418 44.9644 29.3446 44.9644 29.3502 44.9644H29.691C29.7305 44.9616 29.7643 44.9901 29.7699 45.03C29.7699 45.0357 29.7699 45.0385 29.7699 45.0442V48.5332C29.7727 48.5732 29.7446 48.6074 29.7051 48.6131C29.6995 48.6131 29.6967 48.6131 29.691 48.6131H29.3502C29.3277 48.6131 29.308 48.6045 29.2911 48.5903Z" fill="black"></path><path d="M31.8627 48.5903C31.8486 48.5732 31.8402 48.5533 31.843 48.5305V45.0443C31.8402 45.0044 31.8684 44.9702 31.9078 44.9645C31.9134 44.9645 31.9162 44.9645 31.9219 44.9645H33.1528C33.4626 44.9474 33.7668 45.05 34.0062 45.2467C34.2203 45.4377 34.3358 45.717 34.3245 46.0049V47.567C34.3358 47.8549 34.2203 48.1342 34.0062 48.3252C33.7668 48.5248 33.4626 48.6245 33.1528 48.6074H31.9219C31.8993 48.6074 31.8796 48.6017 31.8627 48.5875V48.5903ZM32.3613 48.1798H33.1499C33.3274 48.1884 33.4992 48.1228 33.626 47.9974C33.7499 47.8634 33.8147 47.6839 33.8062 47.4986V46.0819C33.8147 45.8994 33.7499 45.7199 33.6288 45.583C33.502 45.4576 33.3246 45.3892 33.1471 45.4006H32.3613C32.3613 45.4006 32.3359 45.4092 32.3331 45.4206C32.3331 45.4206 32.3331 45.4206 32.3331 45.4234V48.1513C32.3331 48.1513 32.3387 48.177 32.3528 48.1798C32.3528 48.1798 32.3585 48.1798 32.3613 48.1798Z" fill="black"></path><path d="M36.7581 48.5018C36.5694 48.4021 36.4145 48.251 36.3103 48.0628C36.2004 47.8633 36.1469 47.6381 36.1497 47.4101V46.1673C36.1469 45.9392 36.2004 45.7169 36.3103 45.5174C36.4145 45.3321 36.5694 45.181 36.7581 45.0812C37.1778 44.8731 37.6707 44.8731 38.0904 45.0812C38.2763 45.181 38.434 45.3321 38.5382 45.5174C38.6481 45.7169 38.7044 45.9392 38.6988 46.1673V47.4215C38.7016 47.6495 38.6481 47.8747 38.5382 48.0743C38.434 48.2624 38.2791 48.4135 38.0904 48.5132C37.6707 48.7213 37.1778 48.7213 36.7581 48.5132V48.499V48.5018ZM37.989 48.0058C38.1355 47.8519 38.2143 47.6438 38.2031 47.4272V46.1616C38.2143 45.9449 38.1355 45.734 37.989 45.5772C37.8397 45.4261 37.6341 45.3463 37.4228 45.3549C37.2116 45.3463 37.0088 45.4261 36.8595 45.5772C36.713 45.734 36.637 45.9449 36.6483 46.1616V47.4215C36.6398 47.6353 36.7159 47.8434 36.8595 48.0001C37.0088 48.1484 37.2144 48.2282 37.4228 48.2168C37.6313 48.2282 37.8369 48.1512 37.989 48.0058Z" fill="black"></path><path d="M41.1266 48.5275C40.9492 48.4562 40.7971 48.3365 40.6816 48.1826C40.5746 48.0258 40.5211 47.8377 40.5239 47.6467V47.5213C40.5211 47.4814 40.5492 47.4471 40.5887 47.4414C40.5943 47.4414 40.5971 47.4414 40.6027 47.4414H40.9436C40.983 47.4386 41.0168 47.4671 41.0224 47.507C41.0224 47.5127 41.0224 47.5156 41.0224 47.5213V47.621C41.0224 47.7978 41.1041 47.9602 41.2478 48.06C41.4252 48.1826 41.6365 48.2424 41.8505 48.2339C42.0421 48.2481 42.2308 48.194 42.3857 48.0828C42.504 47.9859 42.5716 47.8405 42.566 47.6894C42.566 47.5897 42.535 47.4899 42.473 47.4129C42.397 47.3246 42.3068 47.2533 42.2026 47.202C42.0336 47.1165 41.8618 47.0367 41.6872 46.9711C41.4844 46.8941 41.2844 46.8058 41.0928 46.706C40.952 46.6291 40.8281 46.5207 40.7295 46.3925C40.6309 46.2499 40.5802 46.0761 40.5858 45.9022C40.5774 45.6342 40.6957 45.3777 40.9041 45.2095C41.152 45.0271 41.4562 44.9359 41.7632 44.953C41.997 44.9473 42.2308 44.99 42.4477 45.0841C42.6279 45.161 42.78 45.2865 42.8927 45.4461C42.9997 45.6057 43.0532 45.7967 43.0504 45.9877V46.0419C43.0504 46.0647 43.0448 46.0846 43.0307 46.1017C43.0138 46.116 42.9941 46.1245 42.9716 46.1217H42.6307C42.611 46.1217 42.5885 46.116 42.5716 46.1046C42.5575 46.0932 42.5519 46.0732 42.5519 46.0561V45.9934C42.5519 45.8195 42.4758 45.6513 42.3406 45.543C42.1716 45.4147 41.9632 45.352 41.7519 45.3634C41.5773 45.352 41.4027 45.3976 41.2562 45.4946C41.1379 45.5858 41.0731 45.7283 41.0816 45.8794C41.0788 45.9791 41.1097 46.0789 41.1717 46.1587C41.2421 46.2414 41.3323 46.3098 41.4308 46.3554C41.5435 46.4124 41.721 46.4865 41.9576 46.5777C42.1604 46.6576 42.3575 46.7459 42.5491 46.8485C42.6955 46.9255 42.8251 47.0367 42.9237 47.1706C43.0279 47.316 43.0814 47.4899 43.073 47.6695C43.0758 47.8548 43.0251 48.0372 42.9237 48.1911C42.8166 48.345 42.6674 48.4648 42.4927 48.536C42.2815 48.6244 42.0561 48.6643 41.8308 48.6615C41.5886 48.6672 41.3492 48.6244 41.1266 48.5303V48.5275Z" fill="black"></path><path d="M49.3345 48.5474L49.1542 47.963C49.1542 47.963 49.1542 47.9431 49.1317 47.9431H47.6952C47.6952 47.9431 47.6754 47.9431 47.667 47.963L47.4867 48.5474C47.4755 48.5873 47.4388 48.6129 47.3966 48.6101H47.0304C46.9713 48.6101 46.9516 48.5787 46.9685 48.5189L48.0782 45.0213C48.0895 44.9814 48.1261 44.9557 48.1684 44.9586H48.6387C48.6782 44.9557 48.7176 44.9814 48.7289 45.0213L49.8499 48.5189C49.8499 48.5189 49.8499 48.5388 49.8499 48.5502C49.8499 48.5873 49.8274 48.6101 49.7823 48.6101H49.419C49.3795 48.6101 49.3457 48.5873 49.3345 48.5474ZM47.8191 47.5468H48.9993C49.019 47.5468 49.0274 47.5468 49.019 47.5155L48.4219 45.5714L47.8304 47.5155C47.7966 47.5354 47.8022 47.5468 47.8191 47.5468Z" fill="black"></path><path d="M54.458 48.5106C54.2721 48.4165 54.1172 48.2711 54.013 48.0887C53.9059 47.8977 53.8524 47.6782 53.8552 47.4587V46.1105C53.8496 45.891 53.9059 45.6772 54.013 45.489C54.1172 45.3095 54.2721 45.1669 54.458 45.0729C54.6608 44.9703 54.8861 44.9189 55.1143 44.9246C55.3396 44.9189 55.5621 44.9674 55.7678 45.0672C55.9508 45.1555 56.1029 45.2981 56.21 45.4719C56.317 45.6544 56.3705 45.8653 56.3677 46.0762C56.3677 46.1104 56.3452 46.1304 56.2888 46.139L55.948 46.1589H55.9283C55.9283 46.1589 55.9001 46.1618 55.8861 46.1589V46.1076C55.8945 45.9081 55.8213 45.7142 55.6804 45.5717C55.5312 45.432 55.334 45.3579 55.1312 45.3665C54.9284 45.3579 54.7284 45.4292 54.5763 45.5717C54.4355 45.7114 54.3594 45.9081 54.3679 46.1076V47.4901C54.3594 47.6896 54.4355 47.8863 54.5763 48.026C54.7256 48.1657 54.9256 48.2398 55.1312 48.2312C55.334 48.2398 55.534 48.1685 55.6804 48.026C55.8185 47.8835 55.8945 47.6896 55.8861 47.4901C55.8861 47.4701 55.8917 47.453 55.9058 47.4416C55.9255 47.4331 55.9452 47.4331 55.9649 47.4416L56.3057 47.4616C56.3564 47.4616 56.3846 47.4616 56.3846 47.4844V47.5072C56.3902 47.721 56.3339 47.9319 56.2269 48.1172C56.1198 48.2939 55.9677 48.4336 55.7847 48.5248C55.3706 48.7215 54.8918 48.7215 54.4749 48.5248L54.458 48.5077V48.5106Z" fill="black"></path><path d="M60.3026 48.5559L59.5928 47.0137C59.5928 47.0137 59.5759 46.9938 59.5618 46.9938H58.8379C58.8379 46.9938 58.8126 47.0052 58.8126 47.0166C58.8126 47.0166 58.8126 47.0166 58.8126 47.0194V48.5331C58.8154 48.573 58.7872 48.6072 58.7478 48.6129C58.7422 48.6129 58.7394 48.6129 58.7337 48.6129H58.3929C58.3535 48.6157 58.3197 48.5872 58.314 48.5473C58.314 48.5416 58.314 48.5388 58.314 48.5331V45.0355C58.3112 44.9956 58.3394 44.9614 58.3788 44.9557C58.3845 44.9557 58.3873 44.9557 58.3929 44.9557H59.759C59.9477 44.9528 60.1364 44.9984 60.3026 45.0868C60.4547 45.1695 60.5815 45.2949 60.666 45.4488C60.7561 45.6142 60.7983 45.8023 60.7955 45.9904C60.8012 46.2099 60.7336 46.4265 60.604 46.6033C60.4772 46.7743 60.2942 46.8969 60.0885 46.9482C60.0801 46.9567 60.0801 46.971 60.0885 46.9795L60.8209 48.516V48.5587C60.8209 48.5929 60.7983 48.61 60.7533 48.61H60.4125C60.3674 48.6214 60.3223 48.5958 60.3054 48.5502L60.3026 48.5559ZM58.8098 45.4175V46.5719C58.8098 46.5719 58.821 46.5947 58.8323 46.5947H59.6858C59.8463 46.6004 60.004 46.5406 60.1195 46.4294C60.2322 46.3154 60.2942 46.1586 60.2857 45.9961C60.3054 45.6797 60.0688 45.4061 59.7534 45.3861C59.7308 45.3861 59.7055 45.3861 59.6829 45.3861H58.8295C58.8295 45.3861 58.807 45.4004 58.8098 45.4146H58.807L58.8098 45.4175Z" fill="black"></path><path d="M65.0797 45.3776C65.0628 45.3918 65.0431 45.4004 65.0205 45.3975H63.2263C63.2263 45.3975 63.2038 45.4089 63.2038 45.4203V46.5292C63.2038 46.5292 63.215 46.552 63.2263 46.552H64.4487C64.4882 46.5491 64.522 46.5777 64.5276 46.6176C64.5276 46.6233 64.5276 46.6261 64.5276 46.6318V46.9083C64.5304 46.9482 64.5023 46.9824 64.4628 46.9881C64.4572 46.9881 64.4544 46.9881 64.4487 46.9881H63.2263C63.2263 46.9881 63.201 46.9995 63.201 47.0109C63.201 47.0109 63.201 47.0109 63.201 47.0138V48.1483C63.201 48.1483 63.2094 48.1739 63.2207 48.1768C63.2207 48.1768 63.2207 48.1768 63.2235 48.1768H65.0205C65.06 48.1739 65.0938 48.2024 65.0994 48.2423C65.0994 48.248 65.0994 48.2509 65.0994 48.2566V48.5331C65.1022 48.573 65.074 48.6072 65.0346 48.6129C65.029 48.6129 65.0262 48.6129 65.0205 48.6129H62.7785C62.739 48.6158 62.7052 48.5872 62.6996 48.5473C62.6996 48.5416 62.6996 48.5388 62.6996 48.5331V45.0384C62.6968 44.9985 62.7249 44.9643 62.7644 44.9586C62.77 44.9586 62.7728 44.9586 62.7785 44.9586H65.0177C65.0571 44.9557 65.0909 44.9842 65.0966 45.0241C65.0966 45.0298 65.0966 45.0327 65.0966 45.0384V45.3149C65.0966 45.3348 65.0909 45.3548 65.0769 45.369L65.0797 45.3776Z" fill="black"></path><path d="M69.1412 48.5474L68.961 47.963C68.961 47.963 68.961 47.9431 68.9384 47.9431H67.5019C67.5019 47.9431 67.4822 47.9431 67.4738 47.963L67.2935 48.5474C67.2822 48.5873 67.2456 48.6129 67.2034 48.6101H66.8372C66.778 48.6101 66.7583 48.5787 66.7752 48.5189L67.885 45.0213C67.8963 44.9814 67.9329 44.9557 67.9751 44.9586H68.4455C68.4849 44.9557 68.5244 44.9814 68.5356 45.0213L69.6567 48.5189C69.6567 48.5189 69.6567 48.5388 69.6567 48.5502C69.6567 48.5873 69.6341 48.6101 69.5891 48.6101H69.2201C69.1835 48.6101 69.1525 48.5844 69.1412 48.5474ZM67.6259 47.5468H68.806C68.8258 47.5468 68.8342 47.5468 68.8258 47.5155L68.2286 45.5714L67.6371 47.5155C67.6061 47.5354 67.6146 47.5468 67.6315 47.5468H67.6287H67.6259Z" fill="black"></path><path d="M73.4819 48.5559L72.7721 47.0137C72.7721 47.0137 72.7552 46.9938 72.7411 46.9938H72.0172C72.0172 46.9938 71.9918 47.0052 71.9918 47.0166C71.9918 47.0166 71.9918 47.0166 71.9918 47.0194V48.5331C71.9947 48.573 71.9665 48.6072 71.9271 48.6129C71.9214 48.6129 71.9186 48.6129 71.913 48.6129H71.5722C71.5327 48.6157 71.4989 48.5872 71.4933 48.5473C71.4933 48.5416 71.4933 48.5388 71.4933 48.5331V45.0355C71.4905 44.9956 71.5186 44.9614 71.5581 44.9557C71.5637 44.9557 71.5665 44.9557 71.5722 44.9557H72.9382C73.127 44.9528 73.3157 44.9984 73.4819 45.0868C73.634 45.1695 73.7607 45.2949 73.8452 45.4488C73.9353 45.6142 73.9776 45.8023 73.9748 45.9904C73.9804 46.2099 73.9128 46.4265 73.7832 46.6033C73.6565 46.7743 73.4734 46.8969 73.2678 46.9482C73.2593 46.9567 73.2593 46.971 73.2678 46.9795L74.0001 48.516V48.5587C74.0001 48.5929 73.9776 48.61 73.9325 48.61H73.5917C73.5466 48.6214 73.5016 48.5958 73.4847 48.5502L73.4819 48.5559ZM71.989 45.4175V46.5719C71.989 46.5719 72.0003 46.5947 72.0116 46.5947H72.865C73.0256 46.6004 73.1833 46.5406 73.2988 46.4294C73.4114 46.3154 73.4734 46.1586 73.465 45.9961C73.4847 45.6797 73.2481 45.4061 72.9326 45.3861C72.9101 45.3861 72.8847 45.3861 72.8622 45.3861H72.0087C72.0087 45.3861 71.989 45.4004 71.9918 45.4146H71.9862L71.989 45.4175Z" fill="black"></path></svg>