<svg width="230" height="70" viewBox="0 0 230 70" fill="none" xmlns="http://www.w3.org/2000/svg">
<g clip-path="url(#clip0_321_2581)">
<path d="M48.9077 20.7934V16.751H50.1414V20.7422C50.1414 22.047 50.8145 22.7491 51.9167 22.7491C53.0114 22.7491 53.6819 22.088 53.6819 20.7934V16.751H54.9163V20.7324C54.9163 22.8292 53.7331 23.8829 51.8968 23.8829C50.071 23.8829 48.9077 22.8292 48.9077 20.7934Z" fill="white"/>
<path d="M56.6104 16.7518H57.7536L61.5163 21.6066V16.7518H62.7304V23.7746H61.697L57.8248 18.7779V23.7746H56.6104V16.7518Z" fill="white"/>
<path d="M65.8373 16.7506H64.6036V23.7727H65.8373V16.7506Z" fill="white"/>
<path d="M67.1116 16.7522H68.4747L70.593 22.1487L72.6982 16.7522H74.0338L71.1129 23.8235H70.0302L67.1116 16.7522Z" fill="white"/>
<path d="M75.2355 16.7518H80.4418V17.8559H76.4691V19.6802H79.9905V20.7848H76.4691V22.67H80.493V23.7746H75.2355V16.7518Z" fill="white"/>
<path d="M81.9556 16.7518H85.0862C85.9674 16.7518 86.6594 17.0123 87.1126 17.4535C87.4834 17.8345 87.6935 18.3563 87.6935 18.9684V18.9879C87.6935 20.1437 87.0031 20.836 86.0179 21.116L87.9148 23.7746H86.4595L84.7334 21.3261H83.1892V23.7746H81.9556V16.7518ZM84.9943 20.2333C85.879 20.2333 86.4399 19.7725 86.4399 19.0587V19.0388C86.4399 18.2877 85.8982 17.8759 84.9845 17.8759H83.1892V20.2333H84.9943Z" fill="white"/>
<path d="M88.7347 22.7491L89.4779 21.8659C90.1491 22.4494 90.8218 22.7785 91.6952 22.7785C92.4556 22.7785 92.9386 22.4276 92.9386 21.8957V21.8765C92.9386 21.3739 92.6574 21.1032 91.3534 20.8028C89.8588 20.4422 89.0152 20.0006 89.0152 18.706V18.6868C89.0152 17.4825 90.0196 16.6501 91.414 16.6501C92.4364 16.6501 93.2484 16.9607 93.9622 17.5329L93.2989 18.4647C92.6676 17.9941 92.0359 17.743 91.3929 17.743C90.6708 17.743 90.2488 18.1138 90.2488 18.5768V18.5964C90.2488 19.1381 90.5707 19.3791 91.9147 19.6983C93.3994 20.0601 94.1723 20.5909 94.1723 21.7568V21.776C94.1723 23.0902 93.1381 23.8728 91.6632 23.8728C90.5907 23.8728 89.578 23.5001 88.7347 22.7491Z" fill="white"/>
<path d="M96.9298 16.7506H95.6962V23.7727H96.9298V16.7506Z" fill="white"/>
<path d="M98.8049 16.7518H101.424C103.63 16.7518 105.155 18.2659 105.155 20.243V20.2634C105.155 22.2386 103.63 23.7746 101.424 23.7746H98.8049V16.7518ZM101.424 22.6501C102.899 22.6501 103.861 21.6578 103.861 20.2826V20.2634C103.861 18.8882 102.899 17.8759 101.424 17.8759H100.039V22.6501H101.424Z" fill="white"/>
<path d="M108.655 16.6995H109.799L112.888 23.7708H111.583L110.871 22.076H107.551L106.829 23.7708H105.566L108.655 16.6995ZM110.421 20.9839L109.206 18.1744L108.004 20.9839H110.421Z" fill="white"/>
<path d="M114.09 16.7518H116.709C118.916 16.7518 120.44 18.2659 120.44 20.243V20.2634C120.44 22.2386 118.916 23.7746 116.709 23.7746H114.09V16.7518ZM116.709 22.6501C118.184 22.6501 119.147 21.6578 119.147 20.2826V20.2634C119.147 18.8882 118.184 17.8759 116.709 17.8759H115.324V22.6501H116.709Z" fill="white"/>
<path d="M47.824 33.4182V33.3809C47.824 29.6657 50.717 26.6216 54.6777 26.6216C57.0317 26.6216 58.4498 27.2548 59.8129 28.4143L58.0029 30.5993C56.9922 29.7579 56.0977 29.2734 54.5836 29.2734C52.4924 29.2734 50.8311 31.121 50.8311 33.3432V33.3809C50.8311 35.7721 52.4747 37.5272 54.7895 37.5272C55.8349 37.5272 56.7685 37.2648 57.4985 36.743V34.8754H54.6032V32.3919H60.2801V38.0689C58.9362 39.2065 57.0866 40.1405 54.6954 40.1405C50.6252 40.1405 47.824 37.2844 47.824 33.4182Z" fill="white"/>
<path d="M62.3302 37.0386V37.0013C62.3302 34.8164 63.9922 33.8079 66.365 33.8079C67.3732 33.8079 68.1013 33.9765 68.8112 34.2197V34.0514C68.8112 32.8739 68.0821 32.2207 66.6632 32.2207C65.5805 32.2207 64.8137 32.427 63.8996 32.7625L63.1893 30.5967C64.2919 30.1107 65.3746 29.7926 67.0735 29.7926C68.6249 29.7926 69.7452 30.2029 70.4533 30.9122C71.2006 31.6602 71.5379 32.7625 71.5379 34.1056V39.9143H68.792V38.8313C68.1013 39.597 67.1481 40.1007 65.7669 40.1007C63.8801 40.1007 62.3302 39.0176 62.3302 37.0386ZM68.8485 36.3855V35.8818C68.3618 35.6578 67.7267 35.5064 67.0359 35.5064C65.8222 35.5064 65.0742 35.9932 65.0742 36.8895V36.9272C65.0742 37.6921 65.71 38.1412 66.6263 38.1412C67.9522 38.1412 68.8485 37.4113 68.8485 36.3855Z" fill="white"/>
<path d="M76.8197 38.6077V39.9144H73.9816V26.2833H76.8197V31.3436C77.5097 30.4104 78.4633 29.7181 79.9382 29.7181C82.273 29.7181 84.4952 31.548 84.4952 34.8906V34.9297C84.4952 38.2723 82.3103 40.1007 79.9382 40.1007C78.4241 40.1007 77.4924 39.4099 76.8197 38.6077ZM81.6571 34.9297V34.8906C81.6571 33.2293 80.5368 32.1267 79.2109 32.1267C77.8843 32.1267 76.7824 33.2293 76.7824 34.8906V34.9297C76.7824 36.591 77.8843 37.6933 79.2109 37.6933C80.5368 37.6933 81.6571 36.6087 81.6571 34.9297Z" fill="white"/>
<path d="M86.5823 29.9077H89.4204V31.9244C89.999 30.5436 90.9326 29.6472 92.6138 29.7214V32.6893H92.4648C90.5798 32.6893 89.4204 33.8293 89.4204 36.2197V39.9177H86.5823V29.9077Z" fill="white"/>
<path d="M94.4426 26.2836H97.4298V28.8044H94.4426V26.2836ZM94.5175 29.907H97.3556V39.9169H94.5175V29.907Z" fill="white"/>
<path d="M99.5394 34.9662V34.9289C99.5394 32.0728 101.575 29.7188 104.488 29.7188C107.831 29.7188 109.363 32.3144 109.363 35.1525C109.363 35.3784 109.343 35.6389 109.325 35.8998H102.36C102.639 37.1884 103.537 37.8619 104.806 37.8619C105.757 37.8619 106.45 37.563 107.232 36.8338L108.859 38.2711C107.925 39.4287 106.579 40.1387 104.769 40.1387C101.762 40.1387 99.5394 38.0302 99.5394 34.9662ZM106.599 34.1263C106.43 32.8554 105.683 31.9963 104.488 31.9963C103.312 31.9963 102.547 32.8373 102.323 34.1263H106.599Z" fill="white"/>
<path d="M114.439 26.2836H111.601V39.9166H114.439V26.2836Z" fill="white"/>
<path d="M116.51 37.0386V37.0013C116.51 34.8164 118.171 33.8079 120.544 33.8079C121.553 33.8079 122.281 33.9765 122.991 34.2197V34.0514C122.991 32.8739 122.261 32.2207 120.843 32.2207C119.76 32.2207 118.993 32.427 118.079 32.7625L117.369 30.5967C118.471 30.1107 119.554 29.7926 121.253 29.7926C122.804 29.7926 123.925 30.2029 124.633 30.9122C125.379 31.6602 125.717 32.7625 125.717 34.1056V39.9143H122.971V38.8313C122.281 39.597 121.328 40.1007 119.946 40.1007C118.06 40.1007 116.51 39.0176 116.51 37.0386ZM123.028 36.3855V35.8818C122.541 35.6578 121.906 35.5064 121.215 35.5064C120.001 35.5064 119.256 35.9932 119.256 36.8895V36.9272C119.256 37.6921 119.889 38.1412 120.805 38.1412C122.132 38.1412 123.028 37.4113 123.028 36.3855Z" fill="white"/>
<path d="M134.06 26.8416H137.159L140.596 32.3694L144.033 26.8416H147.132V39.9132H144.276V31.3782L140.596 36.9629H140.522L136.879 31.4358V39.9132H134.06V26.8416Z" fill="white"/>
<path d="M150.024 26.2836H153.011V28.8044H150.024V26.2836ZM150.098 29.907H152.937V39.9169H150.098V29.907Z" fill="white"/>
<path d="M154.821 38.5907L156.035 36.7231C157.118 37.508 158.257 37.9176 159.191 37.9176C160.011 37.9176 160.385 37.6195 160.385 37.1726V37.1334C160.385 36.5172 159.415 36.3135 158.312 35.9759C156.912 35.5655 155.325 34.9127 155.325 32.9687V32.9311C155.325 30.8952 156.969 29.7576 158.985 29.7576C160.254 29.7576 161.637 30.1871 162.72 30.9152L161.637 32.8765C160.647 32.2979 159.658 31.9425 158.93 31.9425C158.238 31.9425 157.883 32.241 157.883 32.6333V32.6706C157.883 33.2315 158.836 33.4924 159.919 33.8669C161.319 34.3319 162.944 35.005 162.944 36.8353V36.8722C162.944 39.0952 161.283 40.1029 159.116 40.1029C157.716 40.1029 156.147 39.6361 154.821 38.5907Z" fill="white"/>
<path d="M165.257 37.0773V32.334H164.063V29.9063H165.257V27.3479H168.096V29.9063H170.45V32.334H168.096V36.6105C168.096 37.2637 168.377 37.5818 169.012 37.5818C169.534 37.5818 170 37.45 170.413 37.2264V39.504C169.815 39.859 169.124 40.0845 168.17 40.0845C166.435 40.0845 165.257 39.3918 165.257 37.0773Z" fill="white"/>
<path d="M172.539 29.9077H175.377V31.9244C175.955 30.5436 176.889 29.6472 178.571 29.7214V32.6893H178.422C176.534 32.6893 175.377 33.8293 175.377 36.2197V39.9177H172.539V29.9077Z" fill="white"/>
<path d="M179.279 37.0386V37.0013C179.279 34.8164 180.94 33.8079 183.313 33.8079C184.322 33.8079 185.05 33.9765 185.76 34.2197V34.0514C185.76 32.8739 185.03 32.2207 183.612 32.2207C182.529 32.2207 181.762 32.427 180.848 32.7625L180.138 30.5967C181.24 30.1107 182.323 29.7926 184.022 29.7926C185.573 29.7926 186.693 30.2029 187.402 30.9122C188.148 31.6602 188.486 32.7625 188.486 34.1056V39.9143H185.74V38.8313C185.05 39.597 184.096 40.1007 182.716 40.1007C180.828 40.1007 179.279 39.0176 179.279 37.0386ZM185.797 36.3855V35.8818C185.311 35.6578 184.675 35.5064 183.984 35.5064C182.771 35.5064 182.024 35.9932 182.024 36.8895V36.9272C182.024 37.6921 182.658 38.1412 183.575 38.1412C184.901 38.1412 185.797 37.4113 185.797 36.3855Z" fill="white"/>
<path d="M193.899 26.2817H191.06V39.9147H193.899V26.2817Z" fill="white"/>
<path d="M48.9077 20.7934V16.751H50.1414V20.7422C50.1414 22.047 50.8145 22.7491 51.9167 22.7491C53.0114 22.7491 53.6819 22.088 53.6819 20.7934V16.751H54.9163V20.7324C54.9163 22.8292 53.7331 23.8829 51.8968 23.8829C50.071 23.8829 48.9077 22.8292 48.9077 20.7934Z" fill="white"/>
<path d="M56.4846 16.7522H57.6513L61.4915 21.6717V16.7522H62.7308V23.8687H61.6759L57.7239 18.805V23.8687H56.4846V16.7522Z" fill="white"/>
<path d="M65.8373 16.7506H64.6036V23.7727H65.8373V16.7506Z" fill="white"/>
<path d="M67.1116 16.7522H68.4747L70.593 22.1487L72.6982 16.7522H74.0338L71.1129 23.8235H70.0302L67.1116 16.7522Z" fill="white"/>
<path d="M75.2355 16.7518H80.4418V17.8559H76.4691V19.6802H79.9905V20.7848H76.4691V22.67H80.493V23.7746H75.2355V16.7518Z" fill="white"/>
<path d="M81.9556 16.7518H85.0862C85.9674 16.7518 86.6594 17.0123 87.1126 17.4535C87.4834 17.8345 87.6935 18.3563 87.6935 18.9684V18.9879C87.6935 20.1437 87.0031 20.836 86.0179 21.116L87.9148 23.7746H86.4595L84.7334 21.3261H83.1892V23.7746H81.9556V16.7518ZM84.9943 20.2333C85.879 20.2333 86.4399 19.7725 86.4399 19.0587V19.0388C86.4399 18.2877 85.8982 17.8759 84.9845 17.8759H83.1892V20.2333H84.9943Z" fill="white"/>
<path d="M88.7347 22.7491L89.4779 21.8659C90.1491 22.4494 90.8218 22.7785 91.6952 22.7785C92.4556 22.7785 92.9386 22.4276 92.9386 21.8957V21.8765C92.9386 21.3739 92.6574 21.1032 91.3534 20.8028C89.8588 20.4422 89.0152 20.0006 89.0152 18.706V18.6868C89.0152 17.4825 90.0196 16.6501 91.414 16.6501C92.4364 16.6501 93.2484 16.9607 93.9622 17.5329L93.2989 18.4647C92.6676 17.9941 92.0359 17.743 91.3929 17.743C90.6708 17.743 90.2488 18.1138 90.2488 18.5768V18.5964C90.2488 19.1381 90.5707 19.3791 91.9147 19.6983C93.3994 20.0601 94.1723 20.5909 94.1723 21.7568V21.776C94.1723 23.0902 93.1381 23.8728 91.6632 23.8728C90.5907 23.8728 89.578 23.5001 88.7347 22.7491Z" fill="white"/>
<path d="M96.9298 16.7506H95.6962V23.7727H96.9298V16.7506Z" fill="white"/>
<path d="M98.8049 16.7518H101.424C103.63 16.7518 105.155 18.2659 105.155 20.243V20.2634C105.155 22.2386 103.63 23.7746 101.424 23.7746H98.8049V16.7518ZM101.424 22.6501C102.899 22.6501 103.861 21.6578 103.861 20.2826V20.2634C103.861 18.8882 102.899 17.8759 101.424 17.8759H100.039V22.6501H101.424Z" fill="white"/>
<path d="M108.655 16.6995H109.799L112.888 23.7708H111.583L110.871 22.076H107.551L106.829 23.7708H105.566L108.655 16.6995ZM110.421 20.9839L109.206 18.1744L108.004 20.9839H110.421Z" fill="white"/>
<path d="M114.09 16.7518H116.709C118.916 16.7518 120.44 18.2659 120.44 20.243V20.2634C120.44 22.2386 118.916 23.7746 116.709 23.7746H114.09V16.7518ZM116.709 22.6501C118.184 22.6501 119.147 21.6578 119.147 20.2826V20.2634C119.147 18.8882 118.184 17.8759 116.709 17.8759H115.324V22.6501H116.709Z" fill="white"/>
<path d="M47.824 33.4182V33.3809C47.824 29.6657 50.717 26.6216 54.6777 26.6216C57.0317 26.6216 58.4498 27.2548 59.8129 28.4143L58.0029 30.5993C56.9922 29.7579 56.0977 29.2734 54.5836 29.2734C52.4924 29.2734 50.8311 31.121 50.8311 33.3432V33.3809C50.8311 35.7721 52.4747 37.5272 54.7895 37.5272C55.8349 37.5272 56.7685 37.2648 57.4985 36.743V34.8754H54.6032V32.3919H60.2801V38.0689C58.9362 39.2065 57.0866 40.1405 54.6954 40.1405C50.6252 40.1405 47.824 37.2844 47.824 33.4182Z" fill="white"/>
<path d="M62.3302 37.0386V37.0013C62.3302 34.8164 63.9922 33.8079 66.365 33.8079C67.3732 33.8079 68.1013 33.9765 68.8112 34.2197V34.0514C68.8112 32.8739 68.0821 32.2207 66.6632 32.2207C65.5805 32.2207 64.8137 32.427 63.8996 32.7625L63.1893 30.5967C64.2919 30.1107 65.3746 29.7926 67.0735 29.7926C68.6249 29.7926 69.7452 30.2029 70.4533 30.9122C71.2006 31.6602 71.5379 32.7625 71.5379 34.1056V39.9143H68.792V38.8313C68.1013 39.597 67.1481 40.1007 65.7669 40.1007C63.8801 40.1007 62.3302 39.0176 62.3302 37.0386ZM68.8485 36.3855V35.8818C68.3618 35.6578 67.7267 35.5064 67.0359 35.5064C65.8222 35.5064 65.0742 35.9932 65.0742 36.8895V36.9272C65.0742 37.6921 65.71 38.1412 66.6263 38.1412C67.9522 38.1412 68.8485 37.4113 68.8485 36.3855Z" fill="white"/>
<path d="M76.8197 38.6077V39.9144H73.9816V26.2833H76.8197V31.3436C77.5097 30.4104 78.4633 29.7181 79.9382 29.7181C82.273 29.7181 84.4952 31.548 84.4952 34.8906V34.9297C84.4952 38.2723 82.3103 40.1007 79.9382 40.1007C78.4241 40.1007 77.4924 39.4099 76.8197 38.6077ZM81.6571 34.9297V34.8906C81.6571 33.2293 80.5368 32.1267 79.2109 32.1267C77.8843 32.1267 76.7824 33.2293 76.7824 34.8906V34.9297C76.7824 36.591 77.8843 37.6933 79.2109 37.6933C80.5368 37.6933 81.6571 36.6087 81.6571 34.9297Z" fill="white"/>
<path d="M86.5823 29.9077H89.4204V31.9244C89.999 30.5436 90.9326 29.6472 92.6138 29.7214V32.6893H92.4648C90.5798 32.6893 89.4204 33.8293 89.4204 36.2197V39.9177H86.5823V29.9077Z" fill="white"/>
<path d="M94.4426 26.2836H97.4298V28.8044H94.4426V26.2836ZM94.5175 29.907H97.3556V39.9169H94.5175V29.907Z" fill="white"/>
<path d="M99.5394 34.9662V34.9289C99.5394 32.0728 101.575 29.7188 104.488 29.7188C107.831 29.7188 109.363 32.3144 109.363 35.1525C109.363 35.3784 109.343 35.6389 109.325 35.8998H102.36C102.639 37.1884 103.537 37.8619 104.806 37.8619C105.757 37.8619 106.45 37.563 107.232 36.8338L108.859 38.2711C107.925 39.4287 106.579 40.1387 104.769 40.1387C101.762 40.1387 99.5394 38.0302 99.5394 34.9662ZM106.599 34.1263C106.43 32.8554 105.683 31.9963 104.488 31.9963C103.312 31.9963 102.547 32.8373 102.323 34.1263H106.599Z" fill="white"/>
<path d="M114.439 26.2836H111.601V39.9166H114.439V26.2836Z" fill="white"/>
<path d="M116.51 37.0386V37.0013C116.51 34.8164 118.171 33.8079 120.544 33.8079C121.553 33.8079 122.281 33.9765 122.991 34.2197V34.0514C122.991 32.8739 122.261 32.2207 120.843 32.2207C119.76 32.2207 118.993 32.427 118.079 32.7625L117.369 30.5967C118.471 30.1107 119.554 29.7926 121.253 29.7926C122.804 29.7926 123.925 30.2029 124.633 30.9122C125.379 31.6602 125.717 32.7625 125.717 34.1056V39.9143H122.971V38.8313C122.281 39.597 121.328 40.1007 119.946 40.1007C118.06 40.1007 116.51 39.0176 116.51 37.0386ZM123.028 36.3855V35.8818C122.541 35.6578 121.906 35.5064 121.215 35.5064C120.001 35.5064 119.256 35.9932 119.256 36.8895V36.9272C119.256 37.6921 119.889 38.1412 120.805 38.1412C122.132 38.1412 123.028 37.4113 123.028 36.3855Z" fill="white"/>
<path d="M134.06 26.8416H137.159L140.596 32.3694L144.033 26.8416H147.132V39.9132H144.276V31.3782L140.596 36.9629H140.522L136.879 31.4358V39.9132H134.06V26.8416Z" fill="white"/>
<path d="M150.024 26.2836H153.011V28.8044H150.024V26.2836ZM150.098 29.907H152.937V39.9169H150.098V29.907Z" fill="white"/>
<path d="M154.821 38.5907L156.035 36.7231C157.118 37.508 158.257 37.9176 159.191 37.9176C160.011 37.9176 160.385 37.6195 160.385 37.1726V37.1334C160.385 36.5172 159.415 36.3135 158.312 35.9759C156.912 35.5655 155.325 34.9127 155.325 32.9687V32.9311C155.325 30.8952 156.969 29.7576 158.985 29.7576C160.254 29.7576 161.637 30.1871 162.72 30.9152L161.637 32.8765C160.647 32.2979 159.658 31.9425 158.93 31.9425C158.238 31.9425 157.883 32.241 157.883 32.6333V32.6706C157.883 33.2315 158.836 33.4924 159.919 33.8669C161.319 34.3319 162.944 35.005 162.944 36.8353V36.8722C162.944 39.0952 161.283 40.1029 159.116 40.1029C157.716 40.1029 156.147 39.6361 154.821 38.5907Z" fill="white"/>
<path d="M165.257 37.0773V32.334H164.063V29.9063H165.257V27.3479H168.096V29.9063H170.45V32.334H168.096V36.6105C168.096 37.2637 168.377 37.5818 169.012 37.5818C169.534 37.5818 170 37.45 170.413 37.2264V39.504C169.815 39.859 169.124 40.0845 168.17 40.0845C166.435 40.0845 165.257 39.3918 165.257 37.0773Z" fill="white"/>
<path d="M172.539 29.9077H175.377V31.9244C175.955 30.5436 176.889 29.6472 178.571 29.7214V32.6893H178.422C176.534 32.6893 175.377 33.8293 175.377 36.2197V39.9177H172.539V29.9077Z" fill="white"/>
<path d="M179.279 37.0386V37.0013C179.279 34.8164 180.94 33.8079 183.313 33.8079C184.322 33.8079 185.05 33.9765 185.76 34.2197V34.0514C185.76 32.8739 185.03 32.2207 183.612 32.2207C182.529 32.2207 181.762 32.427 180.848 32.7625L180.138 30.5967C181.24 30.1107 182.323 29.7926 184.022 29.7926C185.573 29.7926 186.693 30.2029 187.402 30.9122C188.148 31.6602 188.486 32.7625 188.486 34.1056V39.9143H185.74V38.8313C185.05 39.597 184.096 40.1007 182.716 40.1007C180.828 40.1007 179.279 39.0176 179.279 37.0386ZM185.797 36.3855V35.8818C185.311 35.6578 184.675 35.5064 183.984 35.5064C182.771 35.5064 182.024 35.9932 182.024 36.8895V36.9272C182.024 37.6921 182.658 38.1412 183.575 38.1412C184.901 38.1412 185.797 37.4113 185.797 36.3855Z" fill="white"/>
<path d="M193.899 26.2817H191.06V39.9147H193.899V26.2817Z" fill="white"/>
<path fill-rule="evenodd" clip-rule="evenodd" d="M38.4736 21.2388C39.2322 21.0359 39.8917 20.5762 39.6508 19.6724L39.5363 19.2436L36.4825 20.0613L36.5955 20.4836C36.7878 21.2057 37.4651 21.5083 38.4736 21.2388Z" fill="white"/>
<path fill-rule="evenodd" clip-rule="evenodd" d="M9.1312 32.363L10.2086 31.7501L8.97949 31.5446L9.1312 32.363Z" fill="white"/>
<path fill-rule="evenodd" clip-rule="evenodd" d="M32.6197 13.8753C33.1697 14.3805 33.9042 14.2713 34.6104 13.5019C35.1416 12.9232 35.4518 12.1812 34.7632 11.5488L34.4369 11.2491L32.2982 13.5794L32.6197 13.8753Z" fill="white"/>
<path fill-rule="evenodd" clip-rule="evenodd" d="M36.7286 36.7148C36.3153 36.5815 35.9915 36.705 35.8571 37.1236C35.8195 37.2415 35.8033 37.36 35.7954 37.4553L37.1898 37.9044L37.2771 37.6337C37.4172 37.197 37.1954 36.8654 36.7286 36.7148Z" fill="white"/>
<path fill-rule="evenodd" clip-rule="evenodd" d="M11.396 36.4106C11.7585 36.3007 11.9776 36.0545 11.865 35.6822C11.8293 35.564 11.7717 35.4205 11.7284 35.3498L10.4458 35.7375L10.529 36.015C10.6487 36.4106 11.0067 36.5281 11.396 36.4106Z" fill="white"/>
<path fill-rule="evenodd" clip-rule="evenodd" d="M12.7282 40.089C13.1238 39.926 13.288 39.6244 13.1208 39.219C13.0738 39.1049 13.0098 39.0048 12.9552 38.9272L11.6195 39.4772L11.7272 39.74C11.9015 40.1624 12.2806 40.2731 12.7282 40.089Z" fill="white"/>
<path fill-rule="evenodd" clip-rule="evenodd" d="M10.3004 36.0602L10.224 35.8065L8.80702 36.2352C8.80513 36.326 8.82358 36.4363 8.8537 36.5368C9.01971 37.0857 9.45941 37.1591 9.79521 37.057C10.2518 36.9193 10.4555 36.5744 10.3004 36.0602Z" fill="white"/>
<path fill-rule="evenodd" clip-rule="evenodd" d="M38.6727 34.0409L38.8482 33.2236L37.6006 33.3734L38.6727 34.0409Z" fill="white"/>
<path fill-rule="evenodd" clip-rule="evenodd" d="M37.1827 15.5694L35.9325 15.8107L36.3436 16.5203L37.1827 15.5694Z" fill="white"/>
<path fill-rule="evenodd" clip-rule="evenodd" d="M18.9701 52.5135L19.6278 51.4628L18.448 51.8641L18.9701 52.5135Z" fill="white"/>
<path fill-rule="evenodd" clip-rule="evenodd" d="M34.4252 40.9936L34.1345 41.6776L34.7354 42.2084L34.6845 42.3281L33.7679 41.9393L34.8705 39.3455L35.7872 39.7344L35.7364 39.8541L34.9364 39.7908L34.6458 40.4749L37.4669 41.6724L37.753 41.3095L37.8968 41.3704L37.328 42.7099L37.1835 42.6489L37.2471 42.1911L34.4252 40.9936ZM36.0394 45.6108C35.9005 45.8808 35.631 46.1394 35.4032 46.3009L34.5867 45.9286L34.6691 45.7689C35.2014 45.9319 35.6347 45.9463 35.873 45.4832C36.0292 45.1805 35.9916 44.8199 35.669 44.6531C34.7775 44.1939 34.2652 45.7144 33.19 45.1595C32.564 44.8368 32.4766 44.2767 32.7383 43.7696C32.8689 43.5166 33.082 43.2437 33.2736 43.1052L34.0073 43.4831L33.9305 43.6318C33.4919 43.4891 33.0831 43.5366 32.8956 43.8998C32.7703 44.1419 32.8087 44.4408 33.1313 44.6065C33.9915 45.0499 34.517 43.5509 35.5982 44.1084C36.1674 44.402 36.3519 45.0055 36.0394 45.6108ZM34.156 48.7697L34.0209 48.6902L34.1278 48.2712L31.5231 46.7346L31.2148 47.0338L31.074 46.9506L31.784 45.7449L31.9248 45.8281L31.8126 46.2437L34.4173 47.7807L34.732 47.4848L34.8664 47.5639L34.156 48.7697ZM32.663 51.0973L32.5342 51.0081L32.6679 50.5887L30.4581 49.0644L32.3381 51.6552L32.2293 51.8129L29.0709 51.0103L31.3157 52.5594L31.6507 52.2869L31.7802 52.3757L31.1715 53.257L31.0423 53.1682L31.1782 52.7582L28.6876 51.0397L28.3582 51.316L28.2231 51.223L28.8039 50.3824L31.6232 51.0867L29.9265 48.7572L30.51 47.9117L30.6452 48.0047L30.5033 48.4105L32.9939 50.129L33.3289 49.8569L33.4584 49.9457L32.663 51.0973ZM24.3467 53.4697C24.2406 53.4697 12.5001 40.8193 12.4342 26.6435C12.3916 17.6896 17.9651 12.9455 24.3335 12.9805C30.8443 13.0132 35.6509 17.6896 35.6261 26.6435C35.5877 40.8193 24.4819 53.4697 24.3467 53.4697ZM18.8399 54.4466L18.7199 54.543L17.819 53.4223L17.9395 53.3259L18.3084 53.5838L18.8377 52.7307L18.2079 51.9469L17.2479 52.2748L17.423 52.672L17.2976 52.7729L16.6283 51.9409L16.7544 51.84L17.0906 52.0685L20.447 50.9482L20.5393 51.0642L18.6856 54.0641L18.8399 54.4466ZM14.4813 48.8796L14.6086 48.7919L14.9414 49.0648L17.3944 47.373L17.2521 46.9683L17.3849 46.8772L18.1759 48.0262L18.043 48.118L17.7166 47.841L15.2233 49.561L15.8287 50.4411L16.7133 50.2055L16.7834 50.3071L15.8644 50.8884L14.4813 48.8796ZM12.4703 45.5563L12.604 45.4783L12.9157 45.7742L15.4861 44.2635L15.3735 43.8505L15.5128 43.7685L16.7258 45.8314L15.9089 46.3114L15.8434 46.2L16.332 45.6195L15.8102 44.7314L14.6549 45.4102L14.9643 45.9365L15.5023 45.8137L15.5618 45.915L14.4674 46.558L14.4079 46.4571L14.7712 46.0505L14.4614 45.5239L13.1611 46.2881L13.6987 47.2025L14.5717 47.0402L14.6372 47.1517L13.7021 47.6512L12.4703 45.5563ZM11.8529 44.3859L11.2273 43.1398L11.3651 43.0709L11.6568 43.3867L14.3217 42.0503L14.237 41.6302L14.3812 41.5587L15.0073 42.804L14.8627 42.8766L14.5766 42.5578L11.9117 43.8938L11.9911 44.3166L11.8529 44.3859ZM10.8196 42.0112L10.6769 42.0703C10.6223 42.0123 10.4857 41.8083 10.4104 41.6257C10.3306 41.4314 10.3738 41.2797 10.5406 41.0776L11.3895 40.0803C11.516 39.9275 11.5612 39.8161 11.4904 39.6444L11.4505 39.5473L10.1668 40.0766L10.2229 40.5072L10.0802 40.566L9.54603 39.2702L9.68908 39.2115L9.95636 39.5484L12.7128 38.413L12.6586 37.9876L12.808 37.9263L13.3091 39.1422C13.5865 39.8161 13.6106 40.3536 12.9688 40.6179C12.4955 40.8137 12.0314 40.6635 11.6956 40.0145C11.7419 40.2554 11.7238 40.5234 11.4912 40.8061L10.8806 41.5523C10.7751 41.6822 10.7654 41.8064 10.8196 42.0112ZM8.70653 36.7291L8.29544 35.3649L8.44301 35.3201L8.67604 35.6815L11.5303 34.8183L11.5183 34.3902L11.673 34.3435L12.0777 35.6837C12.2309 36.1916 12.2972 36.7513 11.6052 36.9607C11.0345 37.1334 10.7601 36.8556 10.5384 36.4133C10.6686 36.9155 10.5689 37.4354 9.99739 37.6082C9.30622 37.8175 8.92751 37.461 8.70653 36.7291ZM8.10081 34.0021L7.94948 34.03L7.68784 32.6167L7.83918 32.5889L8.04209 32.9902L8.91207 32.4906L8.72912 31.5024L7.72888 31.336L7.695 31.7686L7.53613 31.7976L7.34226 30.748L7.50074 30.719L7.68897 31.0793L11.1731 31.6843L11.1998 31.8296L8.14674 33.5921L8.10081 34.0021ZM8.731 26.2053C10.0821 26.1229 10.6588 26.8239 10.7153 27.7548C10.739 28.1494 10.6441 28.6685 10.5583 28.8778L9.71317 28.9606L9.70263 28.7878C10.2602 28.5992 10.5481 28.2472 10.518 27.7481C10.4759 27.0576 9.70451 26.7339 8.81533 26.7881C7.84219 26.8472 7.14951 27.2485 7.19732 28.0315C7.2105 28.2472 7.29332 28.4528 7.34226 28.5672L8.45544 28.4987L8.54164 28.0665L8.70239 28.0571L8.78634 29.4376L8.62559 29.4474L8.48932 29.054L7.35468 29.1229C7.19281 28.8853 7.02415 28.4196 7.00119 28.0432C6.93983 27.0328 7.40023 26.287 8.731 26.2053ZM8.59849 20.5085L8.75886 20.5495L8.76789 20.9783L10.8388 21.5128C11.4667 21.6747 11.8879 21.4255 12.0088 20.9553C12.1274 20.4972 11.8861 20.0462 11.1467 19.8557L9.18689 19.3501L8.9708 19.7269L8.81081 19.6851L9.07696 18.6506L9.23771 18.6924L9.24637 19.1205L11.2197 19.6298C12.1334 19.8655 12.4368 20.5077 12.2742 21.1371C12.1278 21.7071 11.7543 22.3196 10.7288 22.0549L8.63011 21.5136L8.41515 21.884L8.25479 21.843L8.59849 20.5085ZM10.1555 16.2417L13.1186 16.0038L11.1953 14.9418L10.8915 15.2531L10.7465 15.173L11.2578 14.2476L11.4027 14.3278L11.3097 14.7344L14.2796 16.375L14.1975 16.5237L10.4985 16.8271L12.9138 18.1609L13.224 17.8533L13.3625 17.9294L12.8483 18.8603L12.7098 18.7835L12.7993 18.3679L10.1194 16.8881L9.82121 17.1885L9.67666 17.1087L10.1555 16.2417ZM13.247 11.9622L13.3689 12.0747L13.1777 12.4516L15.4262 14.5258L15.7922 14.3097L15.9085 14.4174L14.9779 15.4259L14.8619 15.3183L15.0475 14.9362L12.7993 12.8619L12.4383 13.0829L12.3171 12.9707L13.247 11.9622ZM15.6416 10.0321L15.7304 10.1718L15.4413 10.5091L17.4847 12.1704L16.8319 9.6067L16.4167 9.73469L16.3279 9.59503L17.2242 9.02432L17.313 9.16436L17.0507 9.47644L17.8841 12.9571L17.7512 13.0418L14.9421 10.8095L14.5521 10.9213L14.4633 10.7816L15.6416 10.0321ZM21.1555 7.74776L21.41 8.68664L21.2869 8.72052L20.8547 8.07566L19.8759 8.3403L20.2351 9.66881L20.8148 9.51221L20.8325 8.9479L20.9436 8.91779L21.2839 10.1763L21.1721 10.2064L20.8751 9.73469L20.2949 9.89205L20.6989 11.387L21.707 11.1148L21.7706 10.2094L21.8937 10.1759L22.1362 11.2371L19.8274 11.862L19.786 11.7092L20.1466 11.4845L19.3482 8.52815L18.925 8.52326L18.8817 8.36289L21.1555 7.74776ZM23.0585 10.9209L23.4677 10.8068L23.5321 7.74852L23.1281 7.62466L23.1315 7.4594L24.4254 7.48575C25.1418 7.50043 25.6361 7.6977 25.6214 8.41032C25.6101 8.93586 25.2924 9.31118 24.5741 9.36125C24.8101 9.41659 25.0443 9.54345 25.2077 9.87812L25.6383 10.7579C25.7144 10.9107 25.8224 10.9702 26.0283 11.0033L26.025 11.1618C25.9515 11.1893 25.7136 11.2349 25.5194 11.2311C25.3131 11.2262 25.1934 11.1231 25.077 10.8833L24.5127 9.67634C24.4254 9.49451 24.3422 9.4068 24.1596 9.40266L24.0565 9.4004L24.0271 10.8257L24.4374 10.9491L24.4341 11.1076L23.0551 11.0794L23.0585 10.9209ZM26.9461 10.2403L27.1167 10.2839C27.0726 10.8456 27.1502 11.2744 27.6445 11.402C27.9678 11.4852 28.3059 11.3636 28.397 11.0079C28.6496 10.0246 27.0835 9.87436 27.3881 8.68852C27.5654 7.99811 28.0845 7.78277 28.6255 7.92169C28.8958 7.99133 29.203 8.13739 29.3758 8.29362L29.1684 9.10225L29.0099 9.06197C29.0535 8.59742 28.9218 8.20629 28.5344 8.10653C28.2754 8.03989 27.9972 8.14681 27.9061 8.50218C27.6625 9.45085 29.2109 9.6195 28.9048 10.8121C28.7441 11.4397 28.2035 11.7615 27.5571 11.5948C27.2688 11.5206 26.9646 11.3158 26.7613 11.1295L26.9461 10.2403ZM29.5392 11.9731L29.9578 12.0484L31.3428 9.31909L31.0322 9.03185L31.1075 8.8839L32.3313 9.50581L32.256 9.65375L31.8412 9.57206L30.4558 12.3014L30.763 12.595L30.6915 12.7365L29.4676 12.1146L29.5392 11.9731ZM33.8819 10.427L34.9861 11.4412C35.8 12.1884 35.844 13.0114 35.0693 13.8554C34.2166 14.7845 33.309 14.8217 32.4909 14.0703L31.4312 13.0972L31.5385 12.9805L31.921 13.1649L33.9915 10.9089L33.7698 10.5493L33.8819 10.427ZM38.09 15.1711L38.163 15.2972L35.794 18.0152L35.8828 18.4131L35.7461 18.4922L35.0362 17.2676L35.1732 17.1885L35.4984 17.4912L36.1746 16.7194L35.678 15.8626L34.6605 16.0599L34.7685 16.4755L34.6247 16.5587L34.098 15.6492L34.2411 15.566L34.5392 15.8359L38.09 15.1711ZM39.3492 18.2934L39.5096 18.2505L39.8966 19.7002C40.1819 20.7682 39.7772 21.4865 38.6716 21.7824C37.4545 22.1084 36.6688 21.6521 36.382 20.5781L36.0104 19.1863L36.1633 19.1453L36.3869 19.5075L39.3435 18.7162L39.3492 18.2934ZM40.8001 30.7732L40.6442 30.7563L40.5693 30.3309L37.5633 30.0053L37.4056 30.4054L37.2429 30.3878L37.3935 28.9971L37.5565 29.0141L37.6247 29.4387L40.6796 29.77L40.7955 28.705L39.9591 28.3033L39.9722 28.1802L41.0639 28.3421L40.8001 30.7732ZM40.299 33.55L40.1462 33.5168L40.1119 33.0659L39.1022 33.1908L38.8911 34.1783L39.7637 34.7208L39.9636 34.3334L40.1232 34.3673L39.8988 35.4153L39.7385 35.3811L39.7019 34.9741L36.6707 33.061L36.702 32.9156L40.2478 32.468L40.4496 32.1055L40.602 32.1386L40.299 33.55ZM39.5273 37.0518C39.4621 37.2524 39.33 37.3397 39.0684 37.3857L37.7606 37.5957C37.5625 37.6292 37.4549 37.6857 37.398 37.8623L37.366 37.9628L38.7062 38.395L38.9434 38.0287L39.0928 38.0768L38.6618 39.4151L38.5131 39.3673L38.5251 38.9352L35.6479 38.0076L35.4126 38.3678L35.2568 38.3178L35.6611 37.0615C35.8851 36.3659 36.2163 35.939 36.8868 36.155C37.3807 36.3147 37.6424 36.7306 37.4793 37.4463C37.6009 37.2313 37.7903 37.0386 38.1551 36.9742L39.1143 36.8014C39.2807 36.7705 39.3691 36.6825 39.461 36.4901L39.6097 36.5387C39.6142 36.6181 39.5875 36.8632 39.5273 37.0518ZM43.0588 24.7567C43.0972 18.7918 41.2842 13.7842 37.8155 10.2757C34.4331 6.85368 29.7285 5.03014 24.2097 5.0019C24.1698 5.00153 24.1291 5.00153 24.0896 5.00153C23.7369 5.00153 23.3879 5.00943 23.0423 5.02449C12.3389 5.50071 5.14188 13.2978 5.00335 24.762C4.73606 46.7413 22.5364 62.2129 24.2481 63.6178C25.3887 62.7169 31.8047 56.7253 36.7566 47.699L36.8352 47.5537C40.9179 40.0581 43.0117 32.3879 43.0588 24.7567Z" fill="white"/>
<path fill-rule="evenodd" clip-rule="evenodd" d="M25.0495 8.41862C25.0585 7.9793 24.8519 7.70148 24.4208 7.69244C24.2992 7.69018 24.1829 7.70938 24.0918 7.72896L24.0605 9.21144L24.3399 9.21708C24.7897 9.2265 25.0393 8.91517 25.0495 8.41862Z" fill="white"/>
<path d="M21.7273 40.3916C21.6178 40.36 21.2085 40.3702 21.1566 40.7696C21.1046 41.1604 21.4834 41.3264 21.5997 41.3377C21.7314 41.1272 21.8474 40.6578 21.7273 40.3916Z" fill="white"/>
<path d="M24.0444 43.3197C24.0475 43.3194 24.0497 43.319 24.0527 43.319C24.0501 43.319 24.0475 43.3194 24.0444 43.3197ZM23.7267 43.31C23.726 43.31 23.7248 43.3096 23.7241 43.3096C23.7248 43.3096 23.726 43.3096 23.7267 43.31ZM22.4449 38.2971C22.4449 38.2971 21.9664 38.8012 21.9431 38.8422C21.9194 38.8825 21.8998 38.9216 21.937 38.9683C21.9728 39.0157 22.1535 39.2457 22.1535 39.2457C22.1799 39.2789 22.1735 39.3263 22.1403 39.353C22.1068 39.379 22.0594 39.3734 22.0338 39.3395C22.0338 39.3395 21.9521 39.236 21.9303 39.2073C21.9084 39.1802 21.8486 39.1652 21.8136 39.175C21.7789 39.1848 21.0772 39.367 21.0772 39.367C21.0366 39.3775 20.9952 39.3538 20.9839 39.312C20.9737 39.2721 20.9982 39.2296 21.0385 39.2198C21.0385 39.2198 21.7055 39.1031 21.7492 39.0918C21.7929 39.0801 21.7996 39.0402 21.7789 39.0146C21.759 38.989 21.3095 38.3648 21.2884 38.3389C21.2636 38.3061 21.2331 38.2873 21.1792 38.3035C21.1258 38.3189 20.4504 38.5659 20.4504 38.5659C20.4098 38.5764 20.368 38.5519 20.3574 38.5113C20.3465 38.4703 20.3706 38.4285 20.412 38.4183C20.412 38.4183 21.0464 38.2372 21.0964 38.2263C21.148 38.2158 21.1597 38.174 21.1296 38.1348C21.0994 38.0964 20.7414 37.6394 20.7414 37.6394C20.7414 37.6394 20.7497 37.6496 20.7313 37.6266C20.7132 37.6033 20.6804 37.5622 20.6085 37.5818C20.5378 37.6014 19.8839 37.8419 19.8839 37.8419C19.8432 37.8529 19.8014 37.8276 19.7909 37.7877C19.78 37.7463 19.8041 37.7045 19.8458 37.6944C19.8458 37.6944 20.5028 37.5092 20.5419 37.4982C20.5811 37.4885 20.5871 37.4414 20.5668 37.4158C20.5464 37.3902 20.0032 36.7457 20.0032 36.7457C19.978 36.7122 19.9832 36.6644 20.0164 36.6384C20.0499 36.6121 20.0977 36.6185 20.124 36.6516C20.124 36.6516 20.5747 37.278 20.6153 37.3292C20.6548 37.3804 20.697 37.3597 20.7147 37.3307C20.732 37.3017 21.1186 36.6971 21.1186 36.6971C21.139 36.6599 21.186 36.6471 21.2225 36.6682C21.2591 36.6892 21.2722 36.7355 21.2515 36.7724C21.2515 36.7724 20.7994 37.3759 20.7813 37.4102C20.7621 37.4425 20.7467 37.4994 20.793 37.5562C20.828 37.5995 21.1962 38.0234 21.2259 38.0599C21.2553 38.0964 21.3072 38.0897 21.3343 38.0407C21.3618 37.9929 21.6848 37.4207 21.6848 37.4207C21.7055 37.3842 21.7526 37.3718 21.7887 37.3917C21.8256 37.4124 21.8388 37.4595 21.8181 37.496L21.3886 38.1405C21.3886 38.1405 21.3407 38.2067 21.3874 38.267C21.4243 38.3144 21.7612 38.7439 21.7861 38.7763C21.8117 38.8094 21.8523 38.8072 21.8847 38.7492C21.9175 38.6924 22.312 38.2218 22.312 38.2218C22.3327 38.1857 22.379 38.1729 22.4163 38.1936C22.4528 38.2143 22.466 38.2606 22.4449 38.2971ZM26.2181 36.812C26.2264 36.7811 26.258 36.7627 26.2889 36.7713C26.3194 36.7788 26.3378 36.8108 26.3291 36.841C26.3291 36.841 25.6557 38.5418 25.6448 38.5689C25.6335 38.5975 25.5792 38.602 25.5924 38.5527C25.5992 38.5278 26.2181 36.812 26.2181 36.812ZM26.4349 38.6449C26.456 38.6186 28.106 36.8534 28.106 36.8534C28.1324 36.8202 28.1802 36.8138 28.2137 36.8406C28.2468 36.8666 28.2525 36.9144 28.2261 36.9471C28.2261 36.9471 26.5174 38.6649 26.4895 38.6935C26.4617 38.7206 26.3935 38.6976 26.4349 38.6449ZM27.0158 38.9826C27.0384 38.9694 28.7347 38.1857 28.7347 38.1857C28.7633 38.1702 28.7991 38.1793 28.8149 38.2075C28.8311 38.235 28.8217 38.2707 28.793 38.2862C28.793 38.2862 27.0693 39.0199 27.0406 39.0315C27.0135 39.0428 26.971 39.0078 27.0158 38.9826ZM26.5253 39.4535C28.5126 39.3289 29.0618 38.1533 29.0618 38.1533C27.9302 37.9376 27.2025 38.64 26.7082 39.0285C26.2143 39.4182 25.6131 39.5827 25.6199 39.5721C25.8303 39.2721 26.1349 39.0801 26.2734 39.0206C28.5668 38.0166 28.7219 36.2985 28.7053 36.3045C26.6909 36.975 26.6337 38.1766 26.0366 38.8599C25.7332 39.2055 25.4068 39.6429 25.3937 39.6301C25.3135 39.5514 25.4686 38.9291 25.6414 38.774C26.6175 37.8988 26.3867 36.3523 26.3773 36.3598C25.2495 37.2995 25.397 38.3144 25.1911 39.6154C25.1113 40.1203 24.6449 40.3913 23.9477 41.8196H23.9488C23.9447 41.8196 23.9409 41.8192 23.9368 41.8192H23.9311C23.8284 41.5497 23.3077 40.7858 23.3077 40.7858C23.0175 40.3905 22.7732 39.9629 22.7732 39.9629C22.533 39.5616 22.6542 39.2153 22.6542 39.2153L22.9083 38.2655C22.9083 38.2655 23.06 37.7527 22.8507 37.6861C22.6741 37.63 22.4946 37.8792 22.4434 37.9169C22.4434 37.9169 22.373 37.9869 22.3026 37.95C22.1482 37.8608 22.3952 37.3518 22.4317 37.281C22.4686 37.2103 22.6847 36.684 22.3801 36.5763C22.0756 36.4683 21.9785 36.8718 21.916 36.9592C21.7985 37.1338 21.567 37.0145 21.6317 36.8428C21.6468 36.8029 21.7428 36.5345 21.7356 36.3128C21.7232 35.8287 21.2982 35.9258 21.2015 36.0959C21.0573 36.3339 20.9278 36.2232 20.8849 36.1795C20.5502 35.8019 19.978 36.0451 19.7137 36.2522C19.4306 36.4724 19.076 36.9558 19.3625 37.3718C19.3948 37.4237 19.4705 37.5758 19.2047 37.659C19.0169 37.7124 18.8196 38.1002 19.2868 38.2289C19.5006 38.2896 19.7845 38.2606 19.8259 38.2557C20.0081 38.2342 20.0683 38.4864 19.8707 38.5606C19.7709 38.5994 19.3553 38.5964 19.3877 38.9186C19.4193 39.239 19.981 39.1562 20.0597 39.1381C20.138 39.1193 20.6899 39.0014 20.7395 39.1723C20.7584 39.2499 20.674 39.3015 20.674 39.3015C20.6251 39.3429 20.3401 39.4566 20.3518 39.641C20.3661 39.8613 20.901 39.8372 20.901 39.8372L21.8832 39.8191C21.8832 39.8191 22.2491 39.7841 22.58 40.1131C22.58 40.1131 22.9621 40.4809 23.1327 40.8438C23.1327 40.8438 23.1571 40.9037 23.0928 40.9029C23.0295 40.9018 22.7468 40.8525 22.7065 40.811C22.6659 40.7693 22.5416 40.3826 22.0647 40.3213C22.0214 40.3115 21.9709 40.3593 21.9273 40.3887C22.033 40.671 21.9303 41.1122 21.7996 41.3373C21.8343 41.3761 21.8719 41.4386 21.9175 41.4405C22.3986 41.474 22.5345 41.2816 22.6293 41.1747C22.7238 41.0674 23.2358 41.0862 23.4425 41.3972C23.4425 41.3972 23.5818 41.5948 23.6529 41.8448C23.5276 41.8723 23.4455 41.9231 23.4455 42.0067C23.4455 42.0458 23.4639 42.0831 23.4956 42.1166C23.5012 42.1215 23.6078 42.1264 23.6134 42.1313C23.6096 42.1347 23.5031 42.138 23.4993 42.1422C23.4651 42.1764 23.4455 42.2145 23.4455 42.2551C23.4455 42.2984 23.4673 42.3379 23.5039 42.373C23.5091 42.3775 23.6025 42.3827 23.6078 42.3873C23.604 42.3914 23.5114 42.3955 23.5065 42.3997C23.4681 42.4351 23.4455 42.4761 23.4455 42.5194C23.4455 42.5683 23.4726 42.6135 23.5208 42.6519C23.5295 42.6583 23.5904 42.6651 23.5998 42.6704C23.5927 42.6753 23.5332 42.6801 23.5276 42.6854C23.4752 42.7238 23.4455 42.7712 23.4455 42.8217C23.4455 42.8725 23.4749 42.9196 23.5268 42.9591C23.5359 42.9655 23.5983 42.9723 23.6078 42.9779C23.5995 42.9839 23.5381 42.9896 23.5306 42.9952C23.4771 43.0355 23.4455 43.0833 23.4455 43.1349C23.4455 43.197 23.4918 43.2407 23.566 43.2704C23.5645 43.27 23.5626 43.2697 23.5611 43.2689V43.4308C23.5611 44.0109 22.5382 44.5609 22.5382 44.5609C22.5382 44.5609 22.1038 44.7939 21.8441 44.8779C21.4473 45.0341 20.9778 45.0831 20.9952 45.1561C21.0057 45.2043 21.567 45.1309 22.1155 44.992C22.7445 44.832 23.2848 44.4815 23.3209 44.5451C23.3646 44.6227 22.8665 45.0371 22.4249 45.3771C22.1641 45.5777 21.8633 45.7784 21.867 45.7972C21.8787 45.8503 22.1791 45.883 22.4626 45.8122C22.6757 45.7588 22.8134 45.5295 22.8899 45.5295C22.9802 45.5295 23.0615 46.0961 23.153 46.095C23.2445 46.095 23.3209 44.5451 23.9368 44.4913C24.5523 44.5451 24.6287 46.095 24.7198 46.095C24.812 46.0961 24.8926 45.5295 24.9833 45.5295C25.0597 45.5295 25.1971 45.7588 25.4102 45.8122C25.6937 45.883 25.9945 45.8503 26.0061 45.7972C26.0099 45.7784 25.7091 45.5777 25.4486 45.3771C25.0074 45.0371 24.5086 44.6227 24.5523 44.5451C24.588 44.4815 25.1279 44.832 25.7577 44.992C26.3066 45.1309 26.8667 45.2043 26.8784 45.1561C26.8953 45.0831 26.4259 45.0341 26.0291 44.8779C25.7694 44.7939 25.3342 44.5609 25.3342 44.5609C25.3342 44.5609 24.3113 44.0109 24.3113 43.4308V43.2689C24.311 43.2693 24.3098 43.2693 24.3095 43.2697C24.3821 43.2399 24.4277 43.1966 24.4277 43.1349C24.4277 43.0826 24.3949 43.0325 24.3381 42.9922C24.3317 42.9873 24.2918 42.9828 24.285 42.9779C24.2921 42.9734 24.3328 42.9689 24.34 42.9636C24.3949 42.923 24.4277 42.8744 24.4277 42.8217C24.4277 42.7724 24.3994 42.7264 24.3501 42.6884C24.3426 42.682 24.2937 42.6768 24.285 42.6704C24.2955 42.6632 24.3471 42.6553 24.3565 42.6485C24.4013 42.6105 24.4277 42.5668 24.4277 42.5194C24.4277 42.4761 24.4062 42.4354 24.3678 42.4001C24.3622 42.3955 24.2903 42.3914 24.285 42.3873C24.2914 42.3816 24.3656 42.3763 24.372 42.3699C24.407 42.3357 24.4277 42.2969 24.4277 42.2551C24.4277 42.2145 24.4085 42.1772 24.3742 42.1429C24.3705 42.1392 24.2891 42.1347 24.285 42.1313C24.2914 42.1252 24.3753 42.1185 24.3814 42.1121C24.4111 42.0805 24.4277 42.0443 24.4277 42.0067C24.4277 41.9269 24.3516 41.8768 24.2353 41.8489H24.2376C24.3132 41.6784 24.4386 41.4145 24.5557 41.2398C24.7104 41.0083 25.2736 40.936 25.3677 40.9887C25.4614 41.0414 25.6527 41.387 26.1515 41.3799C26.5802 41.3471 26.9066 41.0508 26.8814 40.7181C26.8562 40.386 26.488 40.1428 26.0592 40.1756C25.6064 40.2042 25.484 40.5249 25.3402 40.6977C25.1938 40.828 24.9189 40.8502 24.8467 40.7817C24.7744 40.7124 25.6267 39.5096 26.5253 39.4535Z" fill="white"/>
<path d="M24.0172 32.4239C24.4475 32.4236 24.7975 32.135 24.7973 31.7836C24.7915 31.7519 24.7905 31.7401 24.7889 31.7294C24.7905 31.7401 24.7915 31.7519 24.7959 31.7838C24.7961 32.1352 24.4475 32.4236 24.0172 32.4239Z" fill="white"/>
<path d="M23.2381 31.7817C23.2381 31.7682 23.2392 31.7539 23.2411 31.7415C23.2407 31.7554 23.2369 31.7682 23.2369 31.7817C23.2369 32.133 23.5867 32.4217 24.0173 32.4217C23.5867 32.4217 23.2381 32.133 23.2381 31.7817Z" fill="white"/>
<path d="M30.597 21.1974C29.8159 21.5155 28.8597 21.5855 28.181 21.5855H28.1817C28.8597 21.5855 29.8151 21.5162 30.597 21.1974Z" fill="white"/>
<path d="M17.2645 21.2941L16.3741 22.0128L17.2645 21.2945V21.2941Z" fill="white"/>
<path d="M17.4723 21.2004C18.2534 21.5166 19.2032 21.5874 19.879 21.5851C19.2029 21.5874 18.2519 21.5151 17.4723 21.2004Z" fill="white"/>
<path d="M23.1936 31.6169C22.8928 31.4565 22.3703 31.3752 21.6418 31.3752C22.3703 31.3752 22.8913 31.4565 23.1936 31.6169Z" fill="white"/>
<path d="M30.795 30.2451L30.7442 30.2729C30.6836 30.3068 29.2271 31.0894 27.6155 30.8662C27.5955 30.8639 25.7919 30.6001 24.0704 31.3439H23.9887C22.2657 30.6001 20.4624 30.8639 20.4466 30.8651C18.8324 31.0894 17.3766 30.3068 17.316 30.2729L17.2648 30.2451V21.2926L16.3741 22.0109V30.7619C16.5323 30.8986 17.3559 31.5408 19.0583 31.5408C19.3045 31.5408 19.5642 31.5269 19.8281 31.4998C19.833 31.499 20.744 31.3733 21.6423 31.3733C22.3707 31.3733 22.8928 31.4546 23.1936 31.615L23.2524 31.6473L23.2411 31.7422C23.2392 31.7543 23.238 31.7686 23.238 31.7825C23.238 32.1337 23.5866 32.4225 24.0173 32.4225C24.4476 32.4225 24.7962 32.1337 24.7962 31.7825C24.7917 31.7505 24.7905 31.7385 24.789 31.7279L24.7849 31.6665L24.838 31.6338C25.1358 31.4614 25.6688 31.3733 26.4247 31.3733C27.3203 31.3733 28.2283 31.499 28.2366 31.4998C28.4967 31.5269 28.7554 31.5408 29.0035 31.5408C30.7039 31.5408 31.5291 30.8986 31.6857 30.7619V22.0109L30.795 21.2922V30.2451Z" fill="white"/>
<path d="M28.1805 21.5847C28.0088 21.5855 27.8537 21.5813 27.7212 21.5753C27.8537 21.5813 28.0088 21.5855 28.1801 21.5847H28.1805Z" fill="white"/>
<path d="M21.6328 21.4782C23.017 21.4782 23.7225 22.0327 23.8972 22.1934C23.724 22.0327 23.017 21.4782 21.6328 21.4782Z" fill="white"/>
<path d="M25.1309 27.3878C25.1309 27.1973 25.0597 27.0768 24.8888 27.0768C24.8384 27.0768 24.8026 27.087 24.7672 27.0964V27.7447H24.8613C25.0496 27.7447 25.1309 27.6035 25.1309 27.3878Z" fill="white"/>
<path d="M28.8243 28.5973C28.6925 28.5973 28.5352 28.548 28.4377 28.4919L28.4204 28.0948H28.4972C28.5318 28.3357 28.6237 28.51 28.8322 28.51C28.9598 28.51 29.0826 28.4276 29.0826 28.2634C29.0826 27.8459 28.4366 27.9363 28.4366 27.4111C28.4366 27.1288 28.6293 26.9579 28.8702 26.9579C28.9851 26.9579 29.1262 26.9978 29.2143 27.0324L29.2087 27.3949H29.1364C29.1044 27.1954 29.0114 27.0448 28.8518 27.0448C28.7486 27.0448 28.6466 27.1288 28.6466 27.27C28.6466 27.6577 29.2832 27.5922 29.2832 28.1223C29.2832 28.4023 29.1033 28.5973 28.8243 28.5973ZM28.0725 26.3996V26.3318L28.2291 26.2806V24.9495L28.0725 24.8979V24.8305H29.066V25.2492H29.0099L28.8988 24.9288H28.5017V25.5285H28.7294L28.7991 25.2962H28.8507V25.8583H28.7991L28.7294 25.6271H28.5017V26.301H28.9147L29.0419 25.929H29.0969L29.0795 26.3996H28.0725ZM28.1151 27.0588L27.9581 27.1103V27.9916C27.9581 28.4023 27.7356 28.5973 27.4533 28.5973C27.2044 28.5973 26.8957 28.4987 26.8957 28.05V27.1103L26.7384 27.0588V26.991H27.326V27.0588L27.1687 27.1103V28.0281C27.1687 28.3173 27.2936 28.4701 27.4969 28.4701C27.6953 28.4701 27.8527 28.315 27.8527 27.9788V27.1103L27.6953 27.0588V26.991H28.1151V27.0588ZM26.4391 27.0588L26.2817 27.1103V28.4449L26.4391 28.4965V28.5642H25.8514V28.4965L26.0088 28.4449V27.1103L25.8514 27.0588V26.991H26.4391V27.0588ZM25.5943 28.5642C25.5635 28.5755 25.4362 28.5973 25.3545 28.5973C25.2664 28.5973 25.2111 28.5571 25.1606 28.4539L24.9141 27.9446C24.8749 27.864 24.8535 27.8264 24.7891 27.8264H24.7673V28.4471L24.9246 28.4965V28.5642H24.337V28.4965L24.4943 28.4449V27.1103L24.337 27.0565V26.991H24.8866C25.193 26.991 25.4065 27.061 25.4065 27.3799C25.4065 27.6061 25.2664 27.7725 24.9645 27.8034C25.0918 27.8241 25.1734 27.8734 25.2469 28.0214L25.434 28.3956C25.4682 28.4629 25.5074 28.4859 25.5943 28.4965V28.5642ZM23.4019 26.3996V26.3318L23.5585 26.2806V24.9495L23.4019 24.8979V24.8305H24.3953V25.2492H24.3392L24.2282 24.9288H23.831V25.5285H24.0588L24.1284 25.2962H24.18V25.8583H24.1284L24.0588 25.6271H23.831V26.301H24.244L24.3712 25.929H24.4262L24.4089 26.3996H23.4019ZM23.9744 28.5642H22.9648V28.4965L23.1218 28.4449V27.1103L22.9648 27.0588V26.991H23.9605V27.4111H23.9044L23.793 27.0896H23.3951V27.6908H23.6232L23.6932 27.4582H23.7448V28.0214H23.6932L23.6232 27.7895H23.3951V28.4656H23.8092L23.9364 28.0925H23.9918L23.9744 28.5642ZM22.1558 27.864H22.0929V27.7917C22.3071 27.7563 22.4012 27.6197 22.4012 27.3949C22.4012 27.1883 22.3199 27.0772 22.1558 27.0772C22.1121 27.0772 22.0801 27.084 22.0387 27.0964V28.4471L22.1961 28.4965V28.5642H21.6084V28.4965L21.7658 28.4449V27.1103L21.6084 27.0588V26.991H22.1547C22.4543 26.991 22.6779 27.0655 22.6779 27.3949C22.6779 27.7206 22.4291 27.864 22.1558 27.864ZM21.0693 26.4327C20.9376 26.4327 20.781 26.3834 20.6835 26.3273L20.6665 25.9313H20.743C20.7776 26.1718 20.8691 26.3458 21.0772 26.3458C21.2045 26.3458 21.3268 26.2633 21.3268 26.0996C21.3268 25.6832 20.6823 25.7736 20.6823 25.2492C20.6823 24.9679 20.8747 24.7974 21.1149 24.7974C21.2293 24.7974 21.3701 24.8373 21.4582 24.8716L21.4526 25.2333H21.3807C21.3487 25.0342 21.2557 24.8844 21.0968 24.8844C20.9937 24.8844 20.892 24.9679 20.892 25.1084C20.892 25.4954 21.5271 25.4302 21.5271 25.9588C21.5271 26.2381 21.3475 26.4327 21.0693 26.4327ZM21.3242 27.0588L21.1668 27.1103V27.9916C21.1668 28.4023 20.9444 28.5973 20.662 28.5973C20.4132 28.5973 20.1045 28.4987 20.1045 28.05V27.1103L19.9471 27.0588V26.991H20.5348V27.0588L20.3774 27.1103V28.0281C20.3774 28.3173 20.5024 28.4701 20.7057 28.4701C20.9041 28.4701 21.0614 28.315 21.0614 27.9788V27.1103L20.9041 27.0588V26.991H21.3242V27.0588ZM19.7472 26.3996V26.3318L19.9031 26.2757L19.7657 25.8515H19.373L19.23 26.2806L19.3847 26.3318V26.3996H18.9634V26.3318L19.1223 26.2784L19.6388 24.7974H19.7039L20.1948 26.2806L20.3518 26.3318V26.3996H19.7472ZM19.1807 28.5973C19.0489 28.5973 18.8915 28.548 18.794 28.4919L18.7767 28.0948H18.8539C18.8882 28.3357 18.98 28.51 19.1889 28.51C19.3162 28.51 19.4389 28.4276 19.4389 28.2634C19.4389 27.8459 18.7929 27.9363 18.7929 27.4111C18.7929 27.1288 18.9857 26.9579 19.2266 26.9579C19.3414 26.9579 19.4826 26.9978 19.5707 27.0324L19.565 27.3949H19.4927C19.4607 27.1954 19.3678 27.0448 19.2081 27.0448C19.105 27.0448 19.003 27.1288 19.003 27.27C19.003 27.6577 19.6396 27.5922 19.6396 28.1223C19.6396 28.4023 19.4596 28.5973 19.1807 28.5973ZM22.5812 24.7974C22.7415 24.7974 22.9486 24.858 23.0299 24.8979L23.0412 25.2721H22.9678C22.9049 25.0101 22.7713 24.8821 22.5868 24.8821C22.3109 24.8821 22.1599 25.1795 22.1599 25.5985C22.1599 26.0435 22.2973 26.3435 22.6087 26.3435C22.7927 26.3435 22.9279 26.1959 22.9655 25.9475H23.0469L23.0216 26.3217C22.9132 26.3789 22.763 26.4327 22.597 26.4327C22.1784 26.4327 21.8817 26.1959 21.8817 25.6271C21.8817 25.0365 22.1976 24.7974 22.5812 24.7974ZM24.7612 26.3318L24.9182 26.2806V24.9495L24.7612 24.8979V24.8305H25.1998L25.8511 25.8628V24.9495L25.6941 24.8979V24.8305H26.1131V24.8979L25.9584 24.9495V26.4199H25.8763L25.0247 25.073V26.2806L25.1814 26.3318V26.3996H24.7612V26.3318ZM26.4176 26.3318L26.5742 26.2806V24.9495L26.4176 24.8979V24.8305H27.0651C27.5301 24.8305 27.777 25.0858 27.777 25.5755C27.777 26.1158 27.506 26.3996 27.041 26.3996H26.4176V26.3318ZM28.1813 21.5821H28.1806C28.0089 21.5829 27.8538 21.5787 27.7213 21.5727C27.6772 21.5708 27.6355 21.5686 27.5963 21.5663C27.5632 21.564 27.5319 21.5622 27.5029 21.5599C27.4668 21.5573 27.4337 21.5546 27.4047 21.552C27.3727 21.549 27.3437 21.5463 27.3211 21.5437C27.3015 21.5414 27.2857 21.5396 27.2737 21.5377C26.9827 21.4963 26.6973 21.4763 26.4267 21.4763C25.0997 21.4763 24.3818 22.0079 24.1657 22.1916C24.1243 22.2266 24.0335 24.049 24.0335 24.049L23.901 22.192C23.7264 22.0312 23.0171 21.4763 21.6329 21.4763C21.363 21.4763 21.0795 21.4963 20.7889 21.5377C20.6933 21.5516 20.3439 21.5821 19.8794 21.5821C19.2036 21.584 18.2535 21.5136 17.4723 21.1974C17.4693 21.1959 17.4659 21.1951 17.4625 21.1936V30.1254C17.7347 30.2601 19.0346 30.8602 20.4162 30.6682C20.4896 30.6565 22.1776 30.4137 23.8973 31.094L24.0302 29.2305C24.0302 29.2305 24.157 31.0955 24.1623 31.0932C25.8816 30.4115 27.57 30.6569 27.6434 30.6682C29.0223 30.8591 30.326 30.2601 30.597 30.1254V21.194C29.8151 21.5132 28.8593 21.5821 28.1813 21.5821Z" fill="white"/>
<path d="M19.4088 25.7483H19.7326L19.576 25.254L19.4088 25.7483Z" fill="white"/>
<path d="M27.5003 25.5989C27.5003 25.2544 27.4009 24.9291 27.0173 24.9291H26.8468V26.304H27.0139C27.3253 26.304 27.5003 26.0577 27.5003 25.5989Z" fill="white"/>
<path d="M84.8498 51.6014C84.8362 51.5803 84.8166 51.5634 84.7967 51.5483C84.8185 51.5634 84.8392 51.5803 84.8498 51.6014ZM72.5743 54.1982C72.5574 54.2275 72.5326 54.2626 72.51 54.2949L72.4821 54.3352V54.3367C70.718 57.1116 67.8664 59.755 65.9875 60.3547C65.8335 60.4161 65.6743 60.4485 65.5094 60.4485H65.4507C65.171 60.4485 65.037 60.3182 65.037 60.0513V60.0317C65.037 59.411 65.8478 58.1111 67.3518 56.9282C68.7247 55.8463 70.6676 54.819 72.426 54.2471C72.4847 54.2306 72.5352 54.2125 72.5743 54.1982ZM96.9814 53.516C96.8835 54.7742 95.7376 56.7298 94.6975 57.0178H94.5774C94.4821 57.0095 94.3982 56.9647 94.3338 56.8879C94.2611 56.7984 94.1776 56.6222 94.2137 56.2996V56.298C94.309 55.163 95.8242 52.4665 96.2462 52.4665C96.2827 52.5026 96.3414 52.5139 96.4111 52.5279C96.4559 52.5361 96.5033 52.5448 96.5455 52.5614C96.8557 52.6521 97.0349 53.0436 96.9814 53.516ZM97.6651 53.1592C97.6586 53.073 97.644 52.9913 97.6285 52.9092C97.5954 52.7575 97.621 52.5527 97.5574 52.4273C97.4038 52.0961 97.0767 51.8483 96.7774 51.8276C96.6881 51.8051 96.5959 51.8231 96.5203 51.8514C96.5176 51.8472 96.5146 51.8416 96.512 51.8374C96.5007 51.822 96.4894 51.8051 96.4728 51.7855C96.4084 51.5829 96.2631 51.4625 96.0534 51.4388H96.0113C95.9891 51.4361 95.9669 51.4361 95.9443 51.4361C95.4775 51.4361 94.8793 51.8386 94.3229 52.5294C93.4646 53.6154 92.8999 54.9183 92.8159 56.0157C92.8133 56.0485 92.8193 56.0737 92.8174 56.1057C91.9181 57.5061 91.1573 58.297 90.6604 58.297C90.3724 58.297 90.1792 57.9895 90.087 57.3856C90.0731 57.2945 90.0731 57.1801 90.0731 57.0472C90.0731 55.3321 91.3564 51.2671 93.1291 47.3712C93.2323 47.3655 93.5203 47.3527 93.9732 47.3527C94.8149 47.3527 96.5398 47.399 98.6506 47.7009C98.7737 47.7205 98.8938 47.7205 98.9917 47.7205C99.3188 47.7205 99.4867 47.6324 99.4867 47.4578C99.4867 47.3836 99.4445 47.294 99.3523 47.1781C99.056 46.8607 96.713 46.5377 94.1298 46.4598C94.0014 46.4511 93.8783 46.447 93.7748 46.4428C93.7047 46.4402 93.6321 46.4372 93.579 46.4346C93.7552 46.011 94.9071 43.875 95.086 43.6526H95.1168C95.3431 43.6526 95.4161 43.5072 95.5528 43.1187C95.6089 42.9245 95.6341 42.7818 95.6341 42.6546C95.6341 42.4742 95.5614 42.3542 95.4018 42.2646L95.3517 42.2378C95.293 42.2058 95.2369 42.178 95.1756 42.178C94.6609 42.178 94.0767 43.0152 92.5754 45.9143C92.3043 46.4413 92.3043 46.4413 91.8402 46.4598C89.2848 46.5659 85.9272 46.9616 85.6027 47.2857C85.5187 47.3501 85.4769 47.4382 85.4769 47.5556C85.4769 47.7751 85.664 47.9524 85.8963 47.9524C85.9912 47.9524 86.0638 47.9272 86.1534 47.8602C86.324 47.719 88.1106 47.4984 90.8 47.3723C90.951 47.3667 91.0854 47.3599 91.2055 47.3542C91.4347 47.3418 91.5996 47.3332 91.7284 47.3332C91.8036 47.3332 91.8541 47.3373 91.885 47.3418C91.8458 47.4352 91.7701 47.6114 91.6809 47.7988C90.5361 50.3233 89.7591 52.7018 89.4245 54.6243C88.8353 55.474 88.2473 55.9148 87.6382 55.9148H87.5877C86.9613 55.8787 86.682 55.3362 86.5898 53.9802C86.4889 52.8813 86.2178 52.3125 85.7845 52.2914C85.7762 52.2903 85.7676 52.2903 85.7593 52.2903C85.3373 52.2903 84.8087 52.7725 84.1405 53.7664C84.3389 53.2811 84.6578 52.5546 84.834 52.2022C84.9653 51.9843 85.0015 51.8179 85.0154 51.7113L85.0184 51.7015C85.0184 51.5005 84.9066 51.3846 84.6887 51.3605C84.4899 51.33 84.2719 51.4026 84.054 51.5788C83.3658 52.1401 82.7025 53.661 82.3746 55.2613C81.4158 56.2073 80.5789 56.7664 80.053 56.7664C79.564 56.7664 79.4631 56.3188 79.4631 55.9442C79.4631 55.2285 79.835 54.1131 80.5394 52.7221C80.7686 52.2986 80.8778 52.0302 80.8778 51.8751C80.8778 51.7004 80.7882 51.6247 80.6485 51.5619C80.5732 51.5171 80.5198 51.5171 80.4389 51.5171H80.4193C80.0895 51.5171 79.7428 51.8988 79.2926 52.7545C78.8762 53.5552 77.5311 55.5557 76.9751 56.2069C76.5218 56.7272 76.122 56.9606 75.9267 56.9606C75.8623 56.9606 75.8341 56.9467 75.8145 56.9045C75.7644 56.7844 75.7418 56.6587 75.7418 56.5243C75.7418 55.7947 76.1646 54.5268 76.7748 53.3952C76.939 53.3602 77.0477 53.3113 77.0477 53.2115C77.0477 53.1652 77.0282 53.1358 77.0142 53.1095C77.0086 53.1008 77.0056 53.094 76.9999 53.0812C76.992 53.0673 76.963 53.0662 76.9525 53.0538C77.2657 52.4672 77.3888 52.2229 77.3888 52.0498C77.3888 51.9842 77.3579 51.9282 77.3244 51.8638L77.2992 51.8148C77.1874 51.6597 77.0726 51.5939 76.9134 51.5939C76.5271 51.5939 76.0351 52.0991 75.5995 52.9036C75.3654 52.9258 75.1064 52.9589 74.7999 53.0086C74.7216 53.0184 74.6012 53.0421 74.5089 53.0605C74.5594 52.9751 74.6294 52.8508 74.6934 52.6984C75.6104 50.7931 76.0972 48.8473 76.0972 47.0704C76.0972 44.1837 74.8444 42.3918 72.8315 42.3918C72.6583 42.3918 72.4795 42.4084 72.2781 42.4295C70.072 42.7622 67.3574 45.2254 67.3574 46.8957C67.3574 47.413 67.6481 47.7205 67.9304 47.7205C68.1096 47.7205 68.3249 47.5515 68.3667 47.1796C68.6212 45.6041 71.1792 43.5938 72.9293 43.5938C73.0637 43.5938 73.2008 43.6149 73.3013 43.6315C74.3858 43.8637 75.0096 45.0812 75.0096 46.974C75.0096 48.906 74.3858 51.1173 73.293 53.0436L73.2425 53.1358C73.142 53.3233 73.142 53.3233 72.9015 53.382L72.7562 53.417C70.4048 54.0194 67.7376 55.4397 65.9653 57.0359C64.7994 58.1069 64.1003 59.2336 64.1003 60.0513C64.1003 60.5994 64.4023 60.9642 64.9752 61.108L65.0004 61.111C65.1235 61.1291 65.2384 61.146 65.392 61.146C67.6341 61.146 71.7943 57.7128 73.9556 54.0807C74.0869 53.8586 74.1009 53.8571 74.1457 53.8545C74.1709 53.853 74.2014 53.8503 74.2435 53.8405C74.5564 53.7675 74.9294 53.6839 75.2893 53.6128C74.9204 54.476 74.6738 55.3513 74.6738 56.0801C74.6738 56.9998 75.0123 57.6175 75.5939 57.7726C75.6609 57.7937 75.7475 57.7937 75.8092 57.7937C76.4718 57.7937 77.2405 57.0848 78.4625 55.3445C78.4764 55.3264 78.493 55.3027 78.5125 55.276C78.4986 55.3836 78.4903 55.4898 78.4903 55.5948C78.4903 56.6741 79.1024 57.4259 79.9747 57.4259H80.1147C80.7524 57.3766 81.3962 57.0141 82.2199 56.2634C82.1961 56.481 82.1747 56.6986 82.1668 56.9102C82.1442 57.3868 82.2281 57.6819 82.4295 57.7911C82.4883 57.8106 82.5331 57.8133 82.5666 57.8133C82.5831 57.8133 82.6027 57.8159 82.6197 57.8159C82.7093 57.8159 82.8015 57.7854 82.8798 57.7282C82.972 57.6608 83.0334 57.5644 83.0417 57.4696C83.2487 56.4701 83.26 56.4531 83.8552 55.5387L83.8834 55.497C84.5486 54.4696 85.3512 53.5078 85.5635 53.3583C85.5861 53.4562 85.6223 53.67 85.6336 53.9158C85.8794 56.1723 86.7016 56.6809 87.3528 56.7103H87.529C88.1396 56.6926 88.7822 56.2378 89.3089 55.7029C89.2859 55.9683 89.2343 56.266 89.2343 56.5047C89.2343 57.8999 89.6428 58.7205 90.4115 58.8786C90.4981 58.8993 90.579 58.8993 90.6604 58.8993C91.306 58.8993 91.9975 58.3286 92.9116 57.0212C93.0475 57.5053 93.3166 57.8536 93.733 57.9838C93.8335 58.0256 93.937 58.0452 94.0432 58.0663C94.0823 58.0693 94.1215 58.0704 94.1606 58.0704C95.782 58.0704 97.5909 55.5753 97.7418 53.6824C97.7595 53.4667 97.6835 53.3395 97.6651 53.1592Z" fill="white"/>
<path d="M101.279 57.4571C101.279 58.4999 100.284 59.8322 98.6231 60.2572C98.3295 60.3227 98.142 60.3521 97.9967 60.3521C97.8205 60.3521 97.4098 60.3186 97.4098 60.014C97.4098 59.2227 98.7014 57.9409 100.549 56.8966C100.628 56.8533 100.689 56.8157 100.742 56.7833C100.857 56.7148 100.927 56.673 100.963 56.673C100.98 56.673 101.041 56.6843 101.117 56.8141C101.223 56.9945 101.279 57.2166 101.279 57.4571ZM105.982 54.0562C105.979 54.0547 105.973 54.0532 105.965 54.0506C105.943 54.0449 105.914 54.0367 105.881 54.0367C105.263 54.0367 103.149 54.773 101.53 55.553C101.276 55.675 101.148 55.7224 101.078 55.7224C101.036 55.7224 101.008 55.7085 100.938 55.672C100.678 55.5225 100.267 55.3335 99.7468 55.1254C99.4784 55.0218 98.7654 54.7467 98.7654 54.6081C98.7654 54.1929 101.203 52.6427 102.537 52.3185V52.3995C102.537 52.6302 102.725 52.8177 102.956 52.8177C103.051 52.8177 103.127 52.791 103.208 52.7281C103.499 52.535 103.686 52.1939 103.686 51.857C103.686 51.7648 103.669 51.6334 103.619 51.537C103.496 51.2742 103.2 51.1304 102.783 51.1304H102.764C101.181 51.1304 97.8514 53.0244 97.8514 54.5117C97.8514 55.166 98.2455 55.4107 99.4283 55.8173C99.7777 55.9332 100.25 56.0914 100.328 56.1625C100.298 56.199 100.172 56.2675 100.094 56.3108C97.9519 57.5524 96.5123 59.0646 96.5123 60.0727C96.5123 60.3844 96.6546 60.7854 97.3258 60.9337C97.5577 60.9868 97.8096 61.012 98.0946 61.012C100.094 61.012 102.059 59.2799 102.059 57.5144C102.059 57.0908 101.945 56.6941 101.715 56.3319C101.684 56.2845 101.671 56.2551 101.667 56.2423C101.673 56.2355 101.693 56.2088 101.83 56.1418C102.766 55.6328 104.684 54.8626 105.632 54.6168C105.875 54.5355 106.166 54.4041 106.166 54.2407C106.166 54.1876 106.144 54.0939 105.982 54.0562Z" fill="white"/>
<path d="M113.265 53.1463C113.27 53.1546 113.273 53.1979 113.237 53.2931C113.133 53.5574 112.865 53.915 112.761 53.9572C112.705 53.9767 112.529 53.9835 112.518 53.9696C112.423 53.8201 112.649 53.4456 112.901 53.2329C113.047 53.1098 113.175 53.0608 113.228 53.1098C113.242 53.1252 113.253 53.1365 113.265 53.1463ZM119.401 57.4589C119.401 58.5017 118.406 59.8336 116.745 60.2586C116.527 60.3076 116.304 60.3539 116.119 60.3539C115.943 60.3539 115.532 60.3204 115.532 60.0154C115.532 59.2241 116.824 57.9423 118.672 56.8984C118.75 56.8547 118.811 56.8171 118.865 56.7851C118.979 56.7166 119.049 56.6744 119.085 56.6744C119.13 56.6744 119.186 56.7264 119.239 56.8171C119.345 56.9918 119.401 57.2142 119.401 57.4589ZM134.138 52.8221C134.339 52.6445 134.454 52.3983 134.454 52.1494C134.454 51.7496 134.143 51.3446 133.551 51.3446H133.531C132.444 51.3446 130.501 52.7563 128.966 54.6532C129.22 54.0494 129.799 52.8233 130.162 52.1453C130.288 51.916 130.347 51.7959 130.347 51.6856C130.347 51.6224 130.316 51.5667 130.285 51.5064L130.26 51.4605L130.257 51.4534C130.173 51.3261 130.039 51.2478 129.891 51.2478C129.597 51.2478 129.27 51.5192 128.918 52.0531C128.185 53.1504 127.597 54.4906 127.277 55.6497C126.069 56.8476 124.886 57.6027 124.101 57.6027C123.59 57.6027 123.318 57.2786 123.318 56.6646C123.318 56.2844 123.41 55.8372 123.584 55.3689C123.68 55.0861 123.816 54.8015 123.963 54.5275C124.135 54.4507 124.288 54.3592 124.288 54.2421C124.288 54.2071 124.263 54.1597 124.214 54.1172C124.673 53.391 125.196 52.8191 125.418 52.8191C125.465 52.8191 125.493 52.8402 125.507 52.8892C125.572 53.0875 125.692 53.1869 125.862 53.1869C126.142 53.1869 126.455 52.8429 126.455 52.3832C126.455 51.8588 126.1 51.5204 125.552 51.5204H125.496C125.004 51.5204 124.456 51.7737 124.034 52.1984C123.421 52.8112 122.963 53.5705 122.666 54.3581C121.772 54.6423 120.654 55.0749 119.659 55.5548C119.398 55.6764 119.27 55.7239 119.2 55.7239C119.161 55.7239 119.136 55.7114 119.06 55.6738C118.797 55.5228 118.375 55.3282 117.869 55.1272C117.674 55.0519 117.248 54.8859 117.028 54.7477C117.109 54.5885 117.162 54.4458 117.162 54.3385C117.162 54.311 117.12 54.3167 117.112 54.2937C117.727 53.6831 119.561 52.5865 120.662 52.3188V52.4013C120.662 52.6317 120.849 52.8191 121.079 52.8191C121.174 52.8191 121.246 52.7939 121.333 52.7295C121.621 52.5368 121.809 52.1942 121.809 51.8588C121.809 51.7666 121.792 51.6352 121.742 51.5399C121.621 51.276 121.325 51.1319 120.905 51.1319H120.886C119.304 51.1319 115.973 53.0262 115.973 54.5136C115.973 54.6992 116.017 54.8475 116.09 54.9804C115.533 55.7024 114.713 56.5506 113.958 56.9906C113.499 57.2478 113.057 57.3904 112.714 57.3904C112.104 57.3904 111.758 56.9906 111.758 56.2957C111.758 56.019 111.814 55.696 111.928 55.3075C111.981 55.1117 112.018 55.0041 112.034 54.9886C112.057 54.9886 112.09 55.0056 112.121 55.021C112.283 55.1005 112.465 55.1437 112.635 55.1437C113.402 55.1437 114.134 54.4296 114.372 53.4414C114.408 53.2581 114.43 53.0973 114.43 52.9057C114.43 52.2375 114.053 51.7918 113.469 51.7722C113.069 51.7722 112.624 51.9845 112.222 52.3704C111.226 53.3112 110.609 54.6589 110.609 55.8891C110.609 57.0644 111.187 57.9216 112.121 58.1272C112.238 58.1467 112.381 58.1663 112.521 58.1663C113.452 58.1663 114.612 57.4966 115.884 56.2272C116.134 55.9697 116.374 55.6866 116.586 55.4107C116.827 55.5428 117.122 55.6715 117.55 55.8191C117.9 55.9351 118.372 56.0932 118.451 56.1643C118.42 56.1993 118.3 56.2663 118.219 56.3126C116.077 57.5523 114.637 59.0649 114.637 60.0742C114.637 60.3859 114.777 60.7872 115.448 60.9355C115.68 60.9886 115.932 61.0138 116.217 61.0138C118.216 61.0138 120.181 59.2817 120.181 57.5162C120.181 57.0927 120.067 56.6955 119.84 56.3348C119.815 56.2957 119.793 56.2581 119.79 56.2441C119.796 56.237 119.815 56.2106 119.952 56.1432C120.552 55.8176 121.54 55.3971 122.43 55.0636C122.35 55.4137 122.306 55.763 122.306 56.103C122.306 57.235 122.784 58.015 123.617 58.2416C123.791 58.2849 123.931 58.3018 124.101 58.3018C124.926 58.3018 125.906 57.7688 127.065 56.7422C127.051 56.8739 127.012 57.0309 127.012 57.1484C127.012 57.6167 127.129 57.9175 127.358 58.0432C127.445 58.088 127.534 58.1087 127.621 58.1087C127.917 58.1087 128.197 57.8403 128.197 57.5553C128.197 57.4868 128.174 57.4239 128.152 57.3581C128.138 57.3121 128.138 57.2813 128.138 57.2071C128.138 56.1184 130.979 53.1828 132.743 52.4472C132.952 52.3648 133.154 52.3158 133.279 52.3158H133.283L133.279 52.3354C133.263 52.3941 133.249 52.4446 133.249 52.4992C133.249 52.7774 133.458 52.9938 133.727 52.9938C133.855 52.9938 134.004 52.9324 134.138 52.8221Z" fill="white"/>
<path d="M135.997 51.3216C136.086 51.3634 136.173 51.3845 136.26 51.3845C136.556 51.3845 136.824 51.1805 136.928 50.8687L136.939 50.8296C136.953 50.7682 136.97 50.7106 136.97 50.638C136.97 50.2551 136.606 49.9882 136.271 49.9882C136.073 50.0131 135.913 50.0929 135.798 50.2269C135.689 50.3587 135.628 50.5292 135.628 50.6967C135.628 50.9734 135.773 51.2196 135.997 51.3216Z" fill="white"/>
<path d="M141.37 52.0614H141.409C141.415 52.0629 141.435 52.0783 141.443 52.0964C141.516 52.2794 141.552 52.5003 141.552 52.7688C141.552 54.3819 140.084 57.4308 138.77 58.032C138.678 58.0696 138.608 58.0862 138.544 58.0862C138.247 58.0862 138.071 57.7636 138.071 57.2252C138.071 57.0129 138.096 56.8017 138.147 56.5766C138.164 56.49 138.203 56.2943 138.239 56.1809L138.242 56.1742C138.541 54.8573 140.772 52.0795 141.37 52.0614ZM142.662 44.1969C142.799 44.0583 142.875 43.8893 142.875 43.7203C142.875 43.5467 142.788 43.3901 142.631 43.2783V43.2772C142.567 43.2335 142.475 43.2072 142.399 43.2072C141.946 43.2072 141.446 43.9213 140.263 46.267C138.673 49.4322 137.572 52.5259 136.871 55.6648C136.014 56.6696 135.518 57.0848 135.077 57.1748C135.052 57.1748 135.027 57.1804 135.004 57.1861C134.988 57.1902 134.974 57.1944 134.962 57.1944C134.649 57.1944 134.585 56.8311 134.585 56.5262C134.585 55.6513 135.13 54.1526 135.91 52.8847C136.047 52.6765 136.078 52.4864 136.078 52.3618C136.078 52.0151 135.815 51.8084 135.563 51.8084C135.295 51.8084 134.862 51.9985 134.518 52.5354C133.892 53.458 133.517 54.6601 133.517 55.7518C133.517 56.8616 133.897 57.6405 134.54 57.8347C134.641 57.8543 134.744 57.8739 134.864 57.8739C135.382 57.8739 135.952 57.5369 136.619 56.8627C136.578 57.0833 136.518 57.3017 136.481 57.523C136.371 58.1882 136.324 58.6034 136.324 58.9095C136.324 59.2901 136.405 59.5291 136.567 59.6451C136.634 59.691 136.707 59.7147 136.779 59.7147C137.003 59.7147 137.252 59.4802 137.294 59.0258C137.294 58.9599 137.445 58.2861 137.543 57.9311L137.546 57.9382C137.696 58.5714 138.06 58.9193 138.563 58.9193C139.995 58.9193 142.251 56.2088 142.603 53.437C142.642 53.1433 142.662 52.8666 142.662 52.6137C142.662 51.4911 142.251 50.8214 141.563 50.8214C140.546 50.8214 139.265 52.1243 138.286 54.1191C138.586 53.1979 139.109 51.7008 139.478 50.76C140.431 48.406 142.248 44.6622 142.662 44.1969Z" fill="white"/>
<path d="M145.251 51.3216C145.34 51.3634 145.427 51.3845 145.514 51.3845C145.81 51.3845 146.078 51.1805 146.182 50.8687L146.193 50.8296C146.207 50.7682 146.224 50.7106 146.224 50.638C146.224 50.2551 145.86 49.9882 145.525 49.9882C145.326 50.0131 145.167 50.0929 145.055 50.2258C144.946 50.3556 144.882 50.5277 144.882 50.6967C144.882 50.9723 145.027 51.2181 145.251 51.3216Z" fill="white"/>
<path d="M156.445 57.0201H156.325C156.23 57.0118 156.146 56.967 156.079 56.8887C156.007 56.7979 155.926 56.6229 155.962 56.3029V56.3003C155.981 56.0691 156.069 55.7657 156.185 55.4416C156.453 54.9925 156.626 54.5818 156.651 54.3615C157.14 53.3782 157.749 52.4683 157.994 52.4683C158.031 52.5049 158.089 52.5162 158.159 52.5301C158.204 52.5384 158.252 52.5466 158.293 52.5636C158.604 52.6543 158.783 53.0458 158.73 53.5183C158.632 54.7764 157.486 56.7321 156.445 57.0201ZM159.413 53.1599C159.406 53.0744 159.392 52.9943 159.377 52.9129C159.344 52.7608 159.369 52.5553 159.305 52.4292C159.152 52.0979 158.825 51.8506 158.525 51.8295C158.453 51.8114 158.372 51.8186 158.268 51.8536C158.266 51.8491 158.263 51.8438 158.26 51.8393C158.249 51.8242 158.237 51.8073 158.221 51.7877C158.156 51.5837 158.011 51.4647 157.798 51.441H157.757C157.734 51.4384 157.712 51.4384 157.69 51.4384C157.225 51.4384 156.627 51.8408 156.071 52.5316C155.207 53.6177 154.645 54.9206 154.564 56.0179C154.556 56.1083 154.57 56.1821 154.569 56.2679C154.439 56.3409 154.327 56.3812 154.251 56.3812C153.871 56.3812 153.722 55.8835 153.661 54.4142C153.641 53.5183 153.613 53.3127 153.359 53.1757C153.292 53.1298 153.219 53.1072 153.147 53.1072C152.789 53.1072 152.386 53.5898 151.421 55.172C151.212 55.4977 150.815 56.12 150.639 56.3436V56.3338C150.639 56.0443 150.711 55.2086 150.854 54.1726C150.982 53.1561 151.064 52.512 151.064 52.1107C151.064 51.7614 151.008 51.5615 150.871 51.4244C150.759 51.2874 150.641 51.2272 150.493 51.2272H150.474C149.719 51.2272 148.671 52.7774 147.915 54.0943C147.977 53.9181 148.05 53.7295 148.114 53.5672C148.377 52.8542 148.494 52.5971 148.606 52.5075C148.763 52.3483 148.858 52.1205 148.858 51.8969C148.858 51.627 148.721 51.4256 148.52 51.3853L148.461 51.3657L148.438 51.3627C147.725 51.3627 146.738 53.6308 146.279 55.48C145.33 56.6154 144.797 57.0814 144.331 57.1752C144.306 57.1752 144.281 57.1808 144.258 57.1865C144.242 57.1906 144.228 57.1947 144.217 57.1947C143.903 57.1947 143.839 56.8315 143.839 56.5265C143.839 55.6543 144.385 54.1556 145.167 52.8836C145.273 52.7217 145.332 52.5369 145.332 52.3622C145.332 52.0155 145.069 51.8088 144.818 51.8088C144.549 51.8088 144.116 51.9989 143.772 52.5357C143.146 53.458 142.771 54.6604 142.771 55.7522C142.771 56.8619 143.151 57.6408 143.795 57.8351C143.895 57.8547 143.999 57.8742 144.121 57.8742C144.685 57.8742 145.316 57.4669 146.067 56.6553C146.049 56.8194 146.026 56.9922 146.026 57.1277C146.026 57.4966 146.11 57.7831 146.266 57.9397C146.35 58 146.439 58.0293 146.54 58.0293C146.789 58.0293 146.976 57.8279 146.996 57.5441C147.088 56.8315 148.983 53.795 150.166 52.4461C150.155 52.5805 150.124 52.8 150.074 53.1437L150.018 53.5533C149.859 54.6326 149.783 55.393 149.783 55.9464C149.783 56.7867 149.957 57.1823 150.376 57.2745H150.474C150.834 57.2745 151.103 56.9598 152.081 55.4013C152.459 54.796 152.791 54.3024 152.948 54.0927C152.962 54.2663 152.979 54.5739 152.979 54.8618C152.979 56.1798 153.488 57.0999 154.212 57.0999H154.371C154.465 57.0908 154.561 57.0483 154.656 57.0099C154.79 57.5012 155.061 57.8543 155.481 57.986C155.579 58.0267 155.677 58.0463 155.789 58.0685C155.828 58.0711 155.867 58.0726 155.906 58.0726C157.53 58.0726 159.339 55.5775 159.49 53.6847C159.508 53.4682 159.431 53.3406 159.413 53.1599Z" fill="white"/>
<path d="M163.027 57.4571C163.027 58.4999 162.031 59.8322 160.371 60.2572C160.152 60.3061 159.929 60.3521 159.744 60.3521C159.568 60.3521 159.157 60.3186 159.157 60.014C159.157 59.2227 160.449 57.9409 162.297 56.8966C162.375 56.8518 162.439 56.8126 162.492 56.7818C162.602 56.7163 162.674 56.673 162.708 56.673C162.73 56.673 162.789 56.6869 162.864 56.8141C162.971 56.9945 163.027 57.2166 163.027 57.4571ZM167.729 54.0562C167.726 54.0547 167.721 54.0532 167.712 54.0506C167.69 54.0449 167.662 54.0367 167.628 54.0367C167.011 54.0367 164.897 54.773 163.281 55.553C163.021 55.675 162.892 55.7224 162.825 55.7224C162.783 55.7224 162.756 55.7085 162.686 55.672C162.425 55.5225 162.015 55.3335 161.495 55.1254C161.226 55.0218 160.513 54.7467 160.513 54.6081C160.513 54.1929 162.951 52.6427 164.285 52.3185V52.3995C164.285 52.6302 164.472 52.8177 164.704 52.8177C164.799 52.8177 164.875 52.791 164.956 52.7281C165.247 52.535 165.434 52.1939 165.434 51.857C165.434 51.7648 165.417 51.6334 165.367 51.537C165.244 51.2742 164.947 51.1304 164.531 51.1304H164.511C162.929 51.1304 159.596 53.0244 159.596 54.5117C159.596 55.1645 159.991 55.4107 161.176 55.8173C161.52 55.9321 162.037 56.1042 162.076 56.1542C162.065 56.1877 161.92 56.2675 161.841 56.3108C159.7 57.5509 158.26 59.0635 158.26 60.0727C158.26 60.3844 158.402 60.7854 159.074 60.9337C159.305 60.9868 159.557 61.012 159.842 61.012C161.841 61.012 163.807 59.2799 163.807 57.5144C163.807 57.0908 163.692 56.6941 163.463 56.3319C163.432 56.2845 163.418 56.2551 163.415 56.2423C163.421 56.2355 163.44 56.2088 163.575 56.1418C164.517 55.6313 166.437 54.8611 167.383 54.6168C167.623 54.5355 167.914 54.4041 167.914 54.2407C167.914 54.1876 167.891 54.0939 167.729 54.0562Z" fill="white"/>
<path d="M185.404 53.8797C185.256 53.8797 185.066 54.0713 184.308 54.889C183.17 56.0997 182.212 56.7664 181.608 56.7664C181.118 56.7664 181.018 56.3191 181.018 55.9446C181.018 55.2285 181.389 54.1131 182.094 52.7221C182.323 52.2986 182.433 52.0302 182.433 51.8751C182.433 51.7004 182.343 51.6247 182.203 51.5619C182.128 51.5174 182.072 51.5174 181.996 51.5174H181.974C181.65 51.5174 181.291 51.9101 180.847 52.7545C180.431 53.5499 179.091 55.5515 178.532 56.2073C178.079 56.7272 177.677 56.9606 177.481 56.9606C177.417 56.9606 177.389 56.9467 177.369 56.9075C177.322 56.7803 177.299 56.6545 177.299 56.5247C177.299 55.7642 177.749 54.4233 178.395 53.2631L178.418 53.2198C178.812 52.4861 178.946 52.2387 178.946 52.0498C178.946 51.9869 178.915 51.9312 178.884 51.8709L178.854 51.8148C178.742 51.6597 178.627 51.5942 178.468 51.5942C178.054 51.5942 177.512 52.1646 177.05 53.0842C176.629 53.9117 176.403 54.7553 176.312 55.5214C175.259 57.2738 174.362 58.297 173.805 58.297C173.514 58.297 173.324 57.991 173.231 57.383C173.215 57.2934 173.215 57.1786 173.215 57.0472C173.215 55.3321 174.498 51.2671 176.27 47.3712C176.374 47.3655 176.662 47.3531 177.115 47.3531C177.956 47.3531 179.681 47.399 181.792 47.7009C181.915 47.7205 182.035 47.7205 182.133 47.7205C182.463 47.7205 182.631 47.6324 182.631 47.4578C182.631 47.3825 182.586 47.2929 182.494 47.1781C182.198 46.8607 179.855 46.5381 177.274 46.4598C177.143 46.4511 177.02 46.447 176.919 46.4428C176.846 46.4402 176.774 46.4372 176.721 46.4346C176.897 46.011 178.051 43.8735 178.23 43.6526H178.258C178.496 43.6526 178.563 43.4907 178.694 43.1187C178.75 42.9369 178.775 42.789 178.775 42.6546C178.775 42.4742 178.703 42.3542 178.543 42.2646L178.502 42.2424C178.44 42.2088 178.381 42.178 178.317 42.178C177.803 42.178 177.218 43.0152 175.717 45.9147C175.449 46.4413 175.449 46.4413 174.982 46.4598C172.426 46.5659 169.068 46.9616 168.744 47.2857C168.66 47.3501 168.619 47.4382 168.619 47.5556C168.619 47.771 168.811 47.9528 169.038 47.9528C169.133 47.9528 169.205 47.9276 169.295 47.8602C169.466 47.719 171.252 47.4984 173.942 47.3727C174.093 47.367 174.227 47.3599 174.347 47.3542C174.576 47.3418 174.741 47.3335 174.87 47.3335C174.945 47.3335 174.996 47.3377 175.029 47.3418C175.015 47.3682 175.001 47.4005 174.987 47.4382C174.945 47.5346 174.886 47.6633 174.825 47.7988C173.27 51.2208 172.379 54.3954 172.379 56.5051C172.379 57.8999 172.787 58.7205 173.556 58.8786C173.64 58.8993 173.724 58.8993 173.805 58.8993C174.499 58.8993 175.26 58.1995 176.286 56.6602C176.402 57.255 176.701 57.6533 177.151 57.773C177.218 57.7937 177.299 57.7937 177.366 57.7937C178.029 57.7937 178.795 57.0852 180.017 55.3449C180.031 55.3264 180.048 55.3027 180.067 55.2763C180.053 55.384 180.045 55.4902 180.045 55.5948C180.045 56.6741 180.657 57.4263 181.529 57.4263H181.672C182.441 57.366 183.204 56.8838 184.308 55.7597C185.298 54.7745 185.631 54.3604 185.631 54.1229C185.631 54.0642 185.631 53.9915 185.561 53.9508C185.524 53.9132 185.488 53.8797 185.404 53.8797Z" fill="white"/>
<path d="M190.199 60.6788C190.187 60.6578 190.174 60.6088 190.174 60.5181C190.174 60.0246 190.484 58.7262 190.984 57.1281V57.1266C191.01 57.0415 191.029 57.005 191.04 56.99C191.063 57.0107 191.124 57.0988 191.2 57.4342C191.236 57.584 191.255 57.753 191.255 57.9405C191.255 58.87 190.83 60.0246 190.266 60.6243C190.232 60.6608 190.21 60.6732 190.199 60.6788ZM220.041 52.3336C220.024 52.3923 220.01 52.4424 220.01 52.497C220.01 52.7695 220.226 52.992 220.488 52.992C220.62 52.992 220.771 52.9303 220.899 52.82C221.1 52.6423 221.215 52.3965 221.215 52.1476C221.215 51.7478 220.905 51.3424 220.315 51.3424H220.293C219.205 51.3424 217.262 52.7541 215.724 54.6526C215.979 54.0529 216.555 52.8396 216.926 52.142C217.041 51.9267 217.108 51.7979 217.108 51.6835C217.108 51.6176 217.078 51.5619 217.044 51.4975L217.024 51.4583L217.022 51.4501C216.935 51.3243 216.801 51.246 216.672 51.246H216.653C216.362 51.246 216.034 51.5171 215.682 52.0509C215.062 52.977 214.551 54.0747 214.206 55.096C213.178 56.1493 212.275 56.7675 211.715 56.7675C211.226 56.7675 211.125 56.3203 211.125 55.9457C211.125 55.23 211.497 54.1142 212.202 52.7236C212.431 52.3054 212.54 52.0358 212.54 51.8762C212.54 51.7 212.45 51.6247 212.311 51.5634C212.235 51.5186 212.179 51.5186 212.104 51.5186H212.084C211.757 51.5186 211.399 51.9112 210.955 52.7556C210.538 53.5511 209.199 55.5527 208.64 56.2084C208.187 56.7283 207.784 56.9617 207.589 56.9617C207.524 56.9617 207.499 56.9478 207.48 56.906C207.429 56.7856 207.407 56.6598 207.407 56.5258C207.407 55.7695 207.857 54.4289 208.503 53.2657C208.914 52.5041 209.054 52.2466 209.054 52.0509C209.054 51.988 209.023 51.9323 208.992 51.8721L208.961 51.8175C208.855 51.6639 208.735 51.5954 208.578 51.5954C208.159 51.5954 207.628 52.1518 207.158 53.0854C206.74 53.9064 206.515 54.7471 206.423 55.5131C205.37 57.2712 204.47 58.2981 203.909 58.2981C203.621 58.2981 203.429 57.9906 203.336 57.3868C203.322 57.296 203.322 57.1812 203.322 57.0487C203.322 56.5345 203.449 55.7917 203.659 54.9232C204.017 54.5227 204.178 54.2784 204.178 54.124C204.178 54.0653 204.178 53.9941 204.113 53.9535C204.077 53.9143 204.038 53.8808 203.954 53.8808C203.947 53.8808 203.938 53.8876 203.931 53.8884C204.474 51.994 205.337 49.6604 206.378 47.3723C206.482 47.3667 206.77 47.3542 207.222 47.3542C208.064 47.3542 209.789 47.4002 211.9 47.7021C212.023 47.7217 212.143 47.7217 212.241 47.7217C212.568 47.7217 212.736 47.6336 212.736 47.4589C212.736 47.3847 212.694 47.2955 212.602 47.1796C212.305 46.8622 209.962 46.5392 207.382 46.4609C207.25 46.4526 207.127 46.4485 207.027 46.444C206.954 46.4413 206.881 46.4387 206.828 46.4357C207.004 46.0122 208.156 43.8762 208.335 43.6541H208.366C208.592 43.6541 208.665 43.5084 208.802 43.1199C208.858 42.9256 208.883 42.7829 208.883 42.6557C208.883 42.4754 208.81 42.3553 208.651 42.2657L208.601 42.2393C208.542 42.207 208.486 42.1791 208.424 42.1791C207.91 42.1791 207.326 43.0163 205.824 45.9158C205.553 46.4428 205.553 46.4428 205.089 46.4609C202.534 46.5671 199.176 46.9627 198.852 47.2868C198.768 47.3512 198.726 47.4393 198.726 47.5568C198.726 47.7762 198.913 47.9539 199.145 47.9539C199.24 47.9539 199.313 47.9287 199.402 47.8617C199.573 47.7205 201.36 47.4995 204.049 47.3738C204.2 47.3682 204.334 47.361 204.454 47.3554C204.684 47.3429 204.849 47.3347 204.977 47.3347C205.053 47.3347 205.103 47.3388 205.134 47.3429C205.095 47.4367 205.019 47.6129 204.93 47.8C203.677 50.5628 202.883 53.1283 202.611 55.1337C201.585 56.1757 200.715 56.7675 200.158 56.7675C199.668 56.7675 199.568 56.3203 199.568 55.9457C199.568 55.23 199.939 54.1142 200.644 52.7236C200.873 52.2997 200.982 52.0313 200.982 51.8762C200.982 51.7015 200.893 51.6262 200.753 51.5634C200.677 51.5186 200.621 51.5186 200.546 51.5186H200.524C200.199 51.5186 199.841 51.9112 199.397 52.7556C198.98 53.5511 197.641 55.5527 197.082 56.2084C196.629 56.7283 196.227 56.9617 196.031 56.9617C195.966 56.9617 195.939 56.9478 195.919 56.9087C195.872 56.7814 195.849 56.6557 195.849 56.5258C195.849 55.7654 196.299 54.4248 196.945 53.2646L196.967 53.2209C197.362 52.4872 197.496 52.2399 197.496 52.0509C197.496 51.988 197.465 51.9323 197.434 51.8721L197.403 51.8163C197.292 51.6609 197.177 51.5954 197.018 51.5954C196.598 51.5954 196.07 52.1518 195.6 53.0854C195.274 53.7265 195.073 54.3744 194.939 54.9985C193.756 55.9622 192.826 56.4001 191.907 56.4001C191.533 56.4001 191.303 56.3398 191.245 56.3022C191.264 56.2615 191.289 56.1791 191.351 55.9958C191.373 55.922 191.401 55.8395 191.429 55.7541C192.268 53.2966 193.157 51.1719 194.312 48.8653C194.759 47.9694 194.823 47.8783 194.896 47.8335C195.089 47.7623 195.192 47.4939 195.192 47.2661C195.192 47.0188 195.097 46.8103 194.943 46.721L194.935 46.7165C194.865 46.6902 194.806 46.6721 194.759 46.6567L194.7 46.6386L194.677 46.6356C194.292 46.6356 193.97 47.125 193.355 48.2991C191.054 52.6788 189.318 57.7809 189.318 60.1688C189.318 60.8633 189.475 61.3064 189.765 61.4506C189.846 61.4939 189.936 61.515 190.028 61.515C190.959 61.515 191.957 59.4053 191.957 57.9209C191.957 57.6427 191.932 57.4274 191.874 57.2162C191.862 57.1925 191.837 57.1281 191.826 57.0807C191.843 57.0792 191.865 57.0792 191.888 57.0792C192.788 57.0792 193.812 56.6617 194.797 55.9555C194.796 55.9946 194.778 56.0428 194.778 56.0812C194.778 57.0009 195.116 57.619 195.701 57.7741C195.768 57.7948 195.849 57.7948 195.913 57.7948C196.576 57.7948 197.345 57.0863 198.567 55.346C198.581 55.3275 198.597 55.3038 198.617 55.2775C198.603 55.3851 198.594 55.4913 198.594 55.596C198.594 56.6753 199.207 57.4274 200.079 57.4274H200.221C200.907 57.3736 201.602 56.9565 202.523 56.0767C202.517 56.2126 202.484 56.3782 202.484 56.5062C202.484 57.9014 202.892 58.7217 203.66 58.8798C203.747 58.9009 203.828 58.9009 203.909 58.9009C204.606 58.9009 205.368 58.1995 206.395 56.6583C206.51 57.2546 206.808 57.6544 207.259 57.7741C207.326 57.7948 207.413 57.7948 207.474 57.7948C208.139 57.7948 208.906 57.0863 210.125 55.3471C210.141 55.3223 210.158 55.2982 210.175 55.276C210.164 55.3851 210.152 55.4898 210.152 55.596C210.152 56.6753 210.764 57.4274 211.637 57.4274H211.779C212.418 57.3777 213.062 57.0144 213.889 56.2627C213.828 56.5785 213.773 56.891 213.773 57.1462C213.773 57.6145 213.89 57.9153 214.122 58.041C214.212 58.0858 214.296 58.1069 214.385 58.1069C214.679 58.1069 214.958 57.8385 214.958 57.5531C214.958 57.4929 214.942 57.4372 214.925 57.3826L214.916 57.3532C214.899 57.3084 214.899 57.278 214.899 57.2049C214.899 56.2013 217.609 53.2352 219.507 52.4454C219.717 52.363 219.915 52.314 220.044 52.314L220.041 52.3336Z" fill="white"/>
<path d="M224.154 53.5171C224.056 54.7752 222.912 56.7309 221.872 57.0189H221.749C221.654 57.0106 221.57 56.9658 221.506 56.8886C221.433 56.7979 221.352 56.6232 221.388 56.3017V56.2987C221.481 55.1637 222.993 52.4672 223.421 52.4672C223.457 52.5037 223.516 52.515 223.586 52.5289C223.631 52.5372 223.675 52.5455 223.72 52.5624C224.028 52.6531 224.207 53.0447 224.154 53.5171ZM224.838 53.158C224.832 53.0744 224.818 52.9957 224.803 52.9163C224.771 52.7608 224.797 52.556 224.732 52.428C224.576 52.0967 224.249 51.8494 223.95 51.8283C223.86 51.8061 223.768 51.8242 223.692 51.852C223.689 51.8479 223.687 51.8423 223.684 51.8381C223.673 51.8227 223.662 51.8061 223.645 51.7865C223.581 51.584 223.435 51.4635 223.225 51.4398H223.183C223.161 51.4372 223.139 51.4372 223.116 51.4372C222.652 51.4372 222.054 51.8396 221.498 52.53C220.636 53.615 220.072 54.9179 219.988 56.0164C219.904 57.058 220.24 57.7763 220.905 57.9849C221.006 58.0252 221.104 58.0447 221.215 58.0673C221.254 58.07 221.294 58.0715 221.333 58.0715C222.954 58.0715 224.763 55.5763 224.914 53.6835C224.931 53.4727 224.856 53.3394 224.838 53.158Z" fill="white"/>
</g>
<defs>
<clipPath id="clip0_321_2581">
<rect width="220" height="58.6366" fill="white" transform="translate(5 5)"/>
</clipPath>
</defs>
</svg>
