<svg width="145" height="52" viewBox="0 0 145 52" fill="none" xmlns="http://www.w3.org/2000/svg">
<g clip-path="url(#clip0_414_2)">
<path d="M25.9993 1.63114C12.5666 1.63114 1.63884 12.4977 1.63884 25.8564C1.63884 39.215 12.5666 50.0816 26.0025 50.0816C39.4384 50.0816 50.363 39.215 50.363 25.8564C50.363 12.4977 39.432 1.63114 25.9993 1.63114ZM25.9993 51.7108C11.6619 51.7108 0 40.1133 0 25.8564C0 11.5994 11.6619 0.00195312 25.9993 0.00195312C40.3368 0.00195312 51.9986 11.5994 51.9986 25.8564C51.9986 40.1133 40.3335 51.7108 25.9993 51.7108Z" fill="white"/>
<path d="M39.0521 28.6427L38.5401 28.5332C38.7269 27.6607 38.8235 26.7527 38.8235 25.8415C38.8235 18.7549 33.0247 12.9916 25.8995 12.9916C19.5663 12.9916 14.2151 17.5025 13.1719 23.7133L12.6567 23.6264C13.7418 17.1612 19.3119 12.4668 25.8995 12.4668C33.3145 12.4668 39.3483 18.4651 39.3483 25.8383C39.3483 26.7849 39.2485 27.7283 39.0521 28.6395" fill="white"/>
<path d="M20.062 37.7465C20.0202 37.7465 19.9815 37.7368 19.9397 37.7175C18.8514 37.1573 17.8726 36.494 17.0355 35.7438C16.926 35.6472 16.9196 35.483 17.0162 35.3768C17.1127 35.2673 17.277 35.2609 17.3864 35.3542C18.1817 36.0626 19.1508 36.7194 20.1844 37.2539C20.3132 37.3183 20.3615 37.476 20.2971 37.6048C20.252 37.695 20.1586 37.7465 20.0652 37.7465" fill="white"/>
<path d="M12.2448 28.8675L12.6311 28.5649C12.7599 28.465 13.127 28.2364 13.127 28.1624C13.1946 28.0143 13.3298 28.0497 13.3717 27.9402L13.3202 27.6505C13.1946 27.6794 12.7857 27.6601 12.7857 27.8501C12.6215 28.1431 12.5539 28.1173 12.4025 28.172L12.2512 28.4328C12.0999 28.6969 12.1578 28.8675 12.2512 28.8675M14.7497 26.3819C14.6242 26.4688 14.2346 26.8133 14.2346 26.8133L13.9995 26.9872C13.8804 26.9872 13.6389 27.0258 13.5874 27.1578C13.5713 27.3349 13.5552 27.38 13.5552 27.4122L13.6454 27.6537C13.919 27.4959 14.109 27.322 14.1509 27.2802C14.2893 27.2287 14.5243 26.9679 14.5243 26.9679C14.6564 26.8455 14.8334 26.8391 14.9075 26.6137C14.8399 26.4913 14.7819 26.4205 14.7851 26.4044L14.7433 26.3851L14.7497 26.3819ZM13.8418 28.7677C13.9448 28.7677 13.9738 28.6164 14.1026 28.6164C14.3698 28.4522 14.5694 28.4103 14.5694 28.3073C14.5694 28.2783 15.1522 27.6859 15.1844 27.673L15.3422 27.4251L15.1522 27.2093C15.0041 27.2931 14.8914 27.38 14.8785 27.4219C14.7851 27.4637 14.5984 27.702 14.5855 27.7567C14.2893 27.9853 14.1637 28.1688 14.08 28.1688C14.0414 28.1688 13.7774 28.3524 13.7645 28.3588C13.7194 28.5552 13.7387 28.5616 13.7548 28.5584C13.7548 28.5842 13.8096 28.7709 13.8353 28.7709M13.2236 30.3035C13.4039 30.0556 13.4425 30.0073 13.4876 29.9719C13.5359 29.9043 13.8901 29.6757 13.9609 29.6918C14.1283 29.5823 14.2217 29.3762 14.2442 29.3569C14.3183 29.0832 14.2185 28.9705 14.1251 28.9641C13.9512 29.0124 13.7291 29.4471 13.7291 29.4471C13.626 29.5984 13.2526 29.5404 13.2236 29.7594C13.1141 29.9944 13.0722 30.0266 13.0722 30.091C13.1334 30.1618 13.0948 30.3035 13.2236 30.3035ZM15.735 28.1527C15.6255 27.9724 15.603 27.937 15.5611 27.9209C15.4677 27.9531 15.3583 27.9306 15.3067 28.0304C15.2456 28.2912 14.8624 28.2332 14.8624 28.3717L14.8141 28.5745L14.9268 28.8257C14.988 28.845 15.1393 28.713 15.1876 28.6872C15.3389 28.5842 15.3615 28.523 15.4098 28.4876C15.5547 28.4457 15.6931 28.3008 15.7124 28.2461L15.7317 28.1559L15.735 28.1527ZM13.5488 28.8546C13.4232 28.6872 13.2848 28.7323 13.288 28.7645C13.1141 28.919 12.8952 28.8063 12.7921 29.1154C12.6086 29.3762 12.6215 29.4503 12.6505 29.4664C12.8018 29.5372 12.8984 29.4889 12.9145 29.505C13.1624 29.3086 13.1849 29.2217 13.2461 29.1766C13.3395 29.1541 13.5037 29.0221 13.5198 28.9738L13.5488 28.8514V28.8546ZM14.7208 30.033C14.7272 29.9815 14.8946 29.9429 14.9429 29.9429C15.2584 29.9429 15.1522 29.3988 15.5289 29.3022C15.5804 29.1991 15.8219 29.1122 15.8219 29.1122C15.9893 29.0897 16.0698 28.8514 16.1471 28.8385L16.073 28.6196C15.9249 28.5423 15.838 28.5938 15.8219 28.5777L15.5901 28.787C15.5482 28.7741 15.2906 29.0961 15.2874 29.109C15.194 29.2088 15.1136 29.2474 15.0459 29.299C14.8978 29.4245 14.827 29.4342 14.7723 29.4696C14.7723 29.4696 14.5855 29.6467 14.5501 29.6692C14.505 29.8688 14.592 30.0813 14.6209 30.0813L14.7208 30.0298V30.033ZM14.4503 30.0942C14.2925 30.0234 14.1831 30.091 14.1573 30.1232C13.8675 30.281 13.5166 30.6867 13.5101 30.706C13.4393 30.7575 13.4586 30.8959 13.4908 30.9185C13.6582 30.9635 14.1122 30.648 14.3118 30.4259C14.373 30.3518 14.4278 30.2649 14.4825 30.1844L14.4535 30.0942H14.4503ZM15.7607 30.2649C15.9829 30.1908 16.0344 30.1071 16.1052 30.0524C16.2115 29.9687 16.3596 29.8882 16.4691 29.8012C16.585 29.6918 16.6043 29.6306 16.63 29.5887C16.5463 29.5243 16.5335 29.3891 16.395 29.3891C16.2888 29.3988 15.9603 29.5791 15.97 29.6982C15.8831 29.8044 15.8219 29.856 15.7672 29.8914C15.677 30.12 15.7543 30.1361 15.7543 30.2649M16.0763 30.5868C16.1406 30.7446 16.2115 30.9249 16.2888 30.9571C16.3853 30.9185 16.4014 30.7156 16.5335 30.6351C16.7266 30.4999 16.9456 30.3228 16.9874 30.1715C16.9842 30.033 16.8426 30.0105 16.7266 30.0105C16.6783 30.0717 16.4787 30.2391 16.4014 30.3099C16.3403 30.3711 16.2598 30.4033 16.1954 30.4645L16.0795 30.5836L16.0763 30.5868ZM14.0317 31.4079C14.1476 31.6333 14.1476 31.6815 14.2249 31.6815C14.4084 31.5495 14.5243 31.424 14.6499 31.3306C14.8238 31.2018 14.959 31.0634 15.1136 30.9571C15.1908 30.9056 15.3293 30.8219 15.3872 30.7446C15.413 30.5997 15.3711 30.5482 15.3583 30.5353C15.2681 30.4452 15.2359 30.4259 15.1039 30.4259C14.9429 30.4259 14.8463 30.5482 14.7787 30.677L14.534 31.102C14.4664 31.1793 14.2668 31.1825 14.1509 31.2823L14.0285 31.4111L14.0317 31.4079ZM17.4221 31.0473C17.1742 30.8992 17.1613 30.9314 17.1613 30.9571C17.0003 31.0859 16.7846 31.1278 16.5946 31.1986C16.5624 31.4079 16.5528 31.4079 16.5528 31.4368C16.4819 31.5689 16.4916 31.6494 16.5238 31.6687C16.6848 31.6848 17.0744 31.5141 17.1999 31.4175C17.2772 31.3564 17.3545 31.2533 17.3899 31.1632L17.4221 31.0408V31.0473ZM15.9346 31.0601C15.677 31.0473 15.3067 31.2115 15.178 31.4014C15.1007 31.5882 15.0041 31.6944 14.93 31.7653C14.7433 31.82 14.4632 31.9166 14.4278 32.0647C14.3505 32.1935 14.3473 32.348 14.4181 32.348L14.8914 32.2386C15.0524 32.2096 15.1458 31.7878 15.4291 31.7363C15.4548 31.6912 15.7865 31.4208 15.9314 31.3145C16.0022 31.1567 15.9893 31.131 15.9603 31.0923L15.9314 31.0634L15.9346 31.0601ZM14.9139 33.0113C15.0749 33.0725 15.4098 32.7441 15.4323 32.7698C15.6963 32.7312 16.2211 32.0357 16.1793 31.9327C16.102 31.8393 16.0634 31.7234 15.9249 31.7234C15.8573 31.7234 15.735 32.0164 15.7221 32.0744C15.7156 32.1001 15.3486 32.3352 15.3486 32.3352C15.1136 32.538 14.8721 32.6346 14.8721 32.8568L14.9139 33.0081V33.0113ZM16.3403 32.9405L16.7846 32.7891C16.9166 32.7215 16.981 32.6281 17.0679 32.5187C17.0744 32.4897 17.6378 31.9939 17.6378 31.9939C17.757 31.9552 17.9018 31.8071 17.8986 31.6912C17.6217 31.5689 17.3674 31.6526 17.3223 31.7234C17.2901 31.7137 17.0164 32.0486 16.9874 32.0647C16.8168 32.1677 16.6848 32.303 16.4916 32.3641C16.4916 32.3641 16.2179 32.6346 16.2179 32.7086L16.3403 32.9405ZM16.1664 33.0113L15.9636 32.9694C15.9024 32.9694 15.6545 33.0886 15.6319 33.1497L15.3583 33.2302C15.2552 33.285 15.1361 33.4588 15.1361 33.5747L15.2681 33.8452C15.4516 33.8034 15.8734 33.4749 15.9153 33.4363C15.9249 33.4041 16.2276 33.285 16.2759 33.2013L16.1664 33.0113ZM15.8541 34.3056C15.809 34.4602 15.8541 34.5246 15.867 34.589C16.2147 34.4924 16.6944 34.0352 16.6944 34.0352C16.7943 33.9676 16.981 33.7357 17.039 33.623C17.0647 33.4395 17.0196 33.4299 17.0003 33.4009L16.7749 33.3816C16.6365 33.4009 16.234 33.8935 16.2179 33.8935C16.0988 33.8935 15.9185 34.2058 15.8541 34.3056ZM18.0596 32.8278C18.1304 32.7891 18.3011 32.6571 18.3011 32.567C18.285 32.4092 18.1208 32.2675 18.0403 32.2675C17.9759 32.2997 17.5509 32.6797 17.4833 32.6797C17.3545 32.7602 17.4028 32.8503 17.4028 32.8922C17.3609 33.0757 17.3706 33.1143 17.4028 33.1433C17.641 33.1755 17.7698 32.8696 17.9566 32.831H18.0596V32.8278ZM17.3609 24.7302C17.3609 24.7302 17.2096 24.64 17.1452 24.64C17.1033 24.64 16.8329 24.8815 16.8136 24.8332C16.7041 24.8686 16.6139 25.1487 16.5399 25.2453C16.3693 25.4063 16.3596 25.5093 16.3596 25.5286C16.1567 25.4417 15.912 25.7122 15.8348 25.7894C15.7768 25.9955 15.7382 26.1243 15.896 26.1919C15.9764 26.0824 16.1889 25.9891 16.2791 25.9376L16.4948 25.7669C16.5946 25.8055 16.8168 25.5029 16.878 25.4256C16.8619 25.3516 17.0518 25.255 17.0808 25.255C17.2096 25.2324 17.3352 25.0843 17.3352 25.0843C17.3996 25.0457 17.406 24.7559 17.3641 24.7302M16.2276 26.8842C16.3564 26.9099 16.5174 26.794 16.5624 26.7521C16.6751 26.5557 16.4626 26.3819 16.4626 26.3819C16.3757 26.4849 16.2888 26.5912 16.2501 26.6008L16.2308 26.8842H16.2276ZM16.6622 26.6523C16.9649 26.5139 17.2579 26.472 17.5638 26.369C17.6797 26.3304 17.728 26.1501 17.9051 26.1501C18.0145 26.1501 18.0403 26.662 18.1272 26.7135C18.0371 26.8745 17.9952 27.0548 17.9952 27.2351C17.9952 27.7567 18.3172 29.4277 19.0384 29.4277C19.1736 29.4277 19.2316 29.8044 19.2316 29.8914C19.2316 30.252 18.6553 30.6609 18.6553 31.0086C18.6553 31.1213 18.6746 31.2404 18.7358 31.3403C18.9998 31.3692 18.8935 31.7298 19.0287 31.8941C19.077 31.952 19.2799 31.9874 19.3733 32.0969C18.5844 32.4511 18.1884 32.9244 18.1884 33.7969C18.1884 34.0802 18.2399 34.3797 18.3301 34.6501C17.5895 35.1138 17.2354 35.9702 16.4916 36.4113C14.8238 34.3443 13.7709 31.9423 12.4283 29.7723C12.0001 29.0897 11.1919 28.7291 10.8764 27.9628C11.6427 26.6684 14.1637 26.9646 14.1058 25.0135C15.2874 26.5654 17.6346 30.0652 18.2528 31.8329L18.8195 32.0647C18.3719 30.9571 17.6088 30.062 16.9874 29.0575C16.1117 27.6408 15.3647 26.1662 14.3988 24.8042C15.9217 24.2053 16.3049 24.0669 16.3725 22.4602C17.0905 22.6599 17.3159 23.7707 17.8085 24.2601L17.9212 25.6059C17.6861 25.7218 16.8071 26.4463 16.6655 26.6523M21.7816 33.1304C21.0153 32.7859 20.6096 32.5541 20.6096 31.5721C20.6096 30.8283 20.967 30.1071 21.2568 29.4406L21.1956 29.138L20.9638 29.0993L20.5581 30.0041L20.0011 29.5404C19.9045 29.2732 19.9721 28.9383 19.7886 28.6969C19.5342 28.3556 19.3765 28.6067 19.0803 27.9821C18.9322 27.6698 18.9225 27.0516 18.8581 26.926C18.6456 26.4978 18.3912 26.2885 18.0178 26.0116C17.9856 25.8603 18.0467 25.6864 18.1594 25.7218L18.6456 25.8506C18.9032 25.9215 19.4731 26.6749 19.6952 26.6749C19.7081 26.472 19.5761 26.3851 19.5761 26.2917C19.9335 26.3143 19.9206 26.1146 20.0075 26.0921C20.0719 26.076 20.3231 26.1082 20.3231 25.9987C20.3231 25.8313 19.9786 26.0696 19.9786 25.5061C19.9786 25.4256 20.0011 25.2196 20.0591 25.1552C20.2877 25.3 20.6772 25.5126 20.6772 25.8313C20.6772 26.6427 20.3746 27.4798 20.3746 28.2944C20.3746 28.3266 20.9445 28.816 21.0314 28.816C21.2922 28.816 21.2407 28.1495 21.3051 27.9724C21.656 28.3491 21.6786 28.6131 21.6786 29.0897C21.6786 29.1669 21.6045 29.9622 21.5884 29.9912C21.5466 30.0717 21.3791 30.1554 21.3824 30.2552C21.4339 30.9314 21.4661 31.6075 21.4661 32.2675C21.4661 32.4961 21.7881 32.8535 21.9426 33.021L21.7816 33.1304ZM38.0251 32.6475L37.9446 31.2179C38.0509 31.4723 38.1282 31.7363 38.1282 32.01V32.3963C38.1282 32.4768 38.1153 32.5638 38.1056 32.6475H38.0251ZM24.5731 32.4285C24.5313 32.4156 24.2898 32.3448 24.2801 32.3287L24.6536 30.9603L24.5731 32.4317V32.4285ZM10.2614 28.7452C12.8372 31.1213 13.8224 33.4202 15.6738 36.157C14.3408 34.6534 13.3974 32.7827 12.2834 31.1213C11.7071 30.2584 10.8989 29.5855 10.2711 28.7677L10.2614 28.7484V28.7452ZM28.8071 31.8908C28.7974 31.4658 29.3319 31.1857 29.6088 31.1181C29.8567 30.6029 30.3622 30.3711 30.7711 30.0202C31.0415 29.7111 31.2251 29.5984 31.4086 29.4567C31.7177 29.4374 32.088 29.4406 32.3971 29.4567C31.9399 29.9719 31.4408 30.9957 30.7292 31.1374L30.9804 30.4742C30.2946 30.3937 30.0402 31.3596 29.6056 31.6236C29.3802 31.7588 29.0807 31.8361 28.8264 31.8941H28.8038L28.8071 31.8908ZM23.7231 31.7846C23.6941 31.6815 23.6619 31.5592 23.6619 31.4497C23.6619 31.0988 23.736 30.8798 23.8551 30.7671L23.8068 31.762L23.7231 31.7846ZM22.9021 31.1374V29.0156C23.1081 29.08 23.1114 29.2152 23.1114 29.3472C23.1114 29.6467 22.9117 29.9687 22.9117 30.3035C22.9117 30.4709 22.989 30.6448 23.1049 30.7639C23.0759 30.8348 23.0824 31.1374 22.9633 31.1374H22.9021ZM26.3118 31.0601C26.3118 30.7865 26.4051 30.487 26.4728 30.3647C26.608 30.6995 26.5436 30.8734 26.4212 31.0601H26.3085H26.3118ZM25.4199 31.0376C25.378 30.9796 25.3491 30.8573 25.3491 30.7865V30.5868C25.3491 30.5096 25.4167 30.3389 25.4714 30.2842L26.0574 29.6982L25.5326 31.0376H25.4199ZM19.1833 30.9249C19.2123 30.7575 19.238 30.7124 19.2638 30.6963C19.3539 30.7865 19.2509 30.8348 19.2123 30.9249H19.1833ZM27.4612 30.5546L27.7445 29.8141C27.7639 29.9171 27.7832 30.0266 27.7832 30.1361C27.7832 30.194 27.7639 30.3035 27.7445 30.355C27.5449 30.4806 27.5031 30.545 27.4612 30.5546ZM24.0451 30.4742L24.3574 28.7677L24.6021 28.6453L24.2286 29.7723C24.3316 29.8173 24.4508 29.8914 24.4604 29.8946C24.4057 30.2262 24.2801 30.2745 24.0451 30.4774M37.7515 30.4452C37.6645 30.4001 37.6195 30.3582 37.539 30.3293L37.4391 30.0588L37.4681 29.8366C37.5551 29.9526 37.8126 30.2005 37.7933 30.442H37.7515V30.4452ZM30.1046 29.9236C30.1754 29.6982 30.2592 29.6241 30.3171 29.5404C30.3686 29.4599 30.4169 29.3601 30.4781 29.2893C30.6777 29.183 30.697 29.1702 30.7228 29.1702C30.8065 29.5018 30.359 29.7368 30.1368 29.9236H30.1078H30.1046ZM22.1551 29.6209C22.1905 29.5372 22.2163 29.4213 22.2163 29.3279V29.1154C22.2163 28.977 22.1873 28.8353 22.1873 28.6936C22.1873 28.5906 22.2259 28.4844 22.2678 28.391C22.3418 28.4489 22.3257 28.3105 22.4996 28.5713C22.3451 28.7709 22.3901 29.0768 22.3483 29.3118C22.3354 29.402 22.2968 29.4921 22.2678 29.5758L22.1551 29.6177V29.6209ZM27.1425 26.472C28.2339 26.2016 28.6396 25.8796 29.4993 25.6059L31.5213 24.962L31.4601 24.7527C31.1124 24.6786 30.8258 24.479 30.4491 24.479H30.2463C30.2076 24.6271 30.2978 24.6851 30.2978 24.7624L26.637 26.311C26.9139 26.4527 27.0394 26.472 27.1425 26.472ZM29.4252 27.0773C29.5508 27.0934 29.7311 27.0323 29.8599 27.0162C30.4427 26.955 31.1607 27.0806 31.5374 26.5042C31.7274 26.4527 31.7917 26.4656 31.84 26.3626C31.7756 26.2273 31.6147 26.1726 31.4762 26.1726C31.3732 26.1726 31.2702 26.2112 31.1703 26.2016C30.4845 26.3722 29.876 26.6234 29.422 26.926V27.0773H29.4252ZM31.9978 26.3626C32.0654 26.369 32.1395 26.3529 32.2071 26.3529C32.4357 26.3529 32.6289 26.3915 32.7641 26.1726C32.7577 25.9569 32.4647 26.0663 32.4421 25.9408L32.4003 25.7218C32.323 25.6961 32.2232 25.651 32.1395 25.651C31.9366 25.651 31.8787 25.6864 31.8143 25.68C31.7724 26.0535 32.1298 25.8377 32.1588 26.0599L31.9978 26.3626ZM29.7408 28.5359L31.8819 27.1353C31.9817 27.1868 32.1427 27.2093 32.2554 27.2641C32.4679 27.116 32.5902 26.9872 32.7126 26.765L30.5071 27.2866C30.4459 27.3607 30.4781 27.4991 30.4266 27.5989C29.8535 27.8565 29.1773 27.7503 28.675 28.201C28.9648 28.3266 29.1934 28.1914 29.4349 28.1914C29.5508 28.1914 29.6506 28.2429 29.7376 28.3105V28.5327L29.7408 28.5359ZM38.2151 29.6209C37.4681 29.1283 37.6259 29.3891 36.9401 29.3891C36.792 29.3891 36.792 28.977 36.5344 28.8257C36.4539 28.8417 36.3605 28.8772 36.2833 28.8772C35.4912 28.8772 34.9181 28.1302 34.1776 28.1302C33.9168 28.1302 33.7236 28.2525 33.4467 28.2525C32.7061 28.2525 32.0461 28.7935 31.2862 28.7935C30.9868 28.7935 30.7099 28.6453 30.3976 28.6453C29.2417 28.6453 28.1502 29.2088 27.0072 29.2088C26.6015 29.2088 25.6936 29.2603 25.6936 28.7355L24.3799 27.8533L23.8551 26.5042C24.1867 26.691 24.5957 27.2995 24.8243 27.2995L24.2286 25.4288C25.143 25.416 24.9466 26.8777 25.7387 26.8777C25.8835 26.8777 26.344 26.6105 26.447 26.4752C25.9351 26.018 25.5004 26.34 25.4038 25.4288H27.2745C27.6254 25.1133 28.1277 25.1358 28.5495 25.2389C28.6751 25.1391 28.5656 24.9362 28.6525 24.8171C28.7427 24.6947 29.2578 24.7559 29.4027 24.7559C30.2559 24.7559 30.2109 23.6387 32.4743 23.6387C33.4081 23.6387 34.2677 23.732 35.1564 24.0315C35.1886 24.4726 36.0482 24.5466 36.3509 24.7849H36.6407C36.792 24.8686 36.8081 25.8796 37.2782 25.8796C37.3587 25.8796 37.7354 25.7283 37.7354 25.6381C37.7354 25.548 37.3876 25.2646 37.3297 25.0747C37.1333 24.4243 36.9755 22.911 36.0257 22.911C35.4268 22.911 34.8956 23.3328 34.3064 23.3328C34.0842 23.3328 33.8492 23.2684 33.6785 23.1203L33.7783 22.7404C33.6334 22.5762 33.4209 22.5375 33.2116 22.5375C32.9026 22.5375 32.6128 22.6856 32.294 22.6084C30.2656 23.9252 27.7864 24.8783 25.3459 24.8783C25.0883 24.8783 25.0174 24.6207 25.1044 24.4275L24.8693 24.376C25.1527 24.0701 25.436 24.0766 25.436 23.7514C24.8146 23.7803 24.9015 23.4197 24.9015 23.1171C24.9015 22.7565 24.5796 23.0237 24.5796 22.6856C24.5796 22.4667 24.982 22.7307 24.982 22.3862C24.982 22.2155 24.4701 22.354 24.3864 22.354C24.2801 22.354 24.1546 22.3154 24.1546 22.193C24.1546 21.8292 24.3671 22.0642 24.5377 22.0642C24.6407 21.8871 24.3413 21.3301 24.3252 21.3301C24.2672 21.3301 24.293 21.6199 24.293 21.6618C23.8261 21.7422 23.8165 22.0127 23.6297 22.0127L23.5782 20.5349C23.868 20.7152 23.9936 21.2883 24.1739 21.2883C24.3059 21.2883 24.2898 20.9019 24.3477 20.8246C24.425 20.7152 24.7019 20.6121 24.7019 20.435C24.7019 19.907 23.8873 20.0036 23.5782 20.0036C23.3915 20.0036 23.4977 19.9006 23.4977 19.7911C23.4977 19.5561 23.3142 19.2083 23.3142 18.867C23.3142 18.7704 23.3239 18.6771 23.3561 18.5837C23.5492 18.5129 23.7714 18.5032 23.9742 18.5032C24.8243 18.5032 24.8597 19.1761 25.7773 19.1761C26.1476 19.1761 26.0317 19.6333 26.2925 19.6784C26.7207 19.5561 26.4856 19.9907 27.1747 19.9714C27.3582 20.0487 27.297 20.8633 27.5192 21.05C27.59 21.1112 27.9023 20.9985 28.015 20.9985C28.0762 21.2689 27.7059 21.285 27.7124 21.4815C28.3499 21.578 28.4207 21.0242 28.5913 20.6153L28.8843 20.4866C28.8876 20.2097 28.7845 20.0294 28.7845 19.8523C28.7845 19.585 28.9455 19.6365 28.9841 19.4208L29.026 19.0989C29.2675 18.9958 29.4832 19.057 29.6893 19.0795H29.905C29.9951 19.2856 29.8052 19.4659 29.8052 19.7525C29.8052 20.171 29.4188 19.9521 29.2997 19.9521C29.1516 19.9521 29.1387 20.0455 29.1387 20.171C29.1387 20.6894 29.4156 20.6443 29.7987 20.6443C30.1819 20.6443 30.4556 21.2335 30.4556 21.5813C28.9648 22.5955 27.4355 23.439 25.6936 23.7449C25.5648 24.0766 25.8642 24.0572 25.9254 24.0572C26.6885 24.0572 28.5624 23.2072 29.2643 22.8209L31.3474 21.665C32.1073 21.2432 33.0571 19.2373 33.0571 18.4742C33.0571 18.3197 32.7834 18.2649 32.7512 18.1233C32.9637 18.0041 33.1151 17.9494 33.2471 17.9494C33.3598 17.9494 33.4757 17.9913 33.5819 18.0202L33.9457 18.9958L34.9084 19.7525C34.9181 20.3191 34.0391 20.1871 34.1711 20.8375C34.0681 20.8955 33.9264 20.7152 33.7139 20.7152C33.2599 20.7152 28.3466 24.1023 25.8964 24.2955C25.8063 24.5917 26.0156 24.6175 26.1411 24.6175C28.0053 24.6175 29.715 23.1171 31.3281 22.4345C32.1298 22.0932 32.9959 21.958 33.8492 21.8002C33.8331 21.7294 33.9651 21.5587 33.9812 21.4782C34.506 21.3333 34.712 20.976 35.063 20.6121L35.7424 21.285C35.6393 21.2979 34.2001 21.2947 34.0939 21.6585L35.8518 21.958C35.942 22.0159 35.9033 22.2477 36.0032 22.2993C37.0109 22.8273 37.0141 23.4487 37.6742 24.2118C37.6742 25.4385 37.716 24.8815 37.9962 25.519C37.7901 25.709 37.613 26.0277 37.613 26.3143C37.613 26.9003 37.8481 27.4508 37.8835 28.0336C37.7998 27.9177 36.7566 25.9021 36.1448 25.9021C35.9903 25.9021 35.9967 26.0084 35.9967 26.134C35.9967 26.6073 36.4378 27.0162 36.8854 27.1289C37.0753 28.0594 38.0058 28.6872 38.3439 29.5726L38.2409 29.6145L38.2151 29.6209ZM23.4205 28.201L23.2273 27.9402C23.4237 27.834 23.4784 27.8501 23.5331 27.8275C23.633 28.04 23.6297 28.1141 23.6136 28.1624L23.4205 28.201ZM9.54343 28.2847L9.51123 28.0529L9.66256 27.8018C9.74305 27.6698 10.4289 27.3703 10.5931 27.3703C10.3773 27.409 9.73661 28.069 9.54021 28.2847M10.6478 26.9099L12.5861 25.6091C12.5603 25.8055 12.2673 25.9698 12.0709 26.1114C11.9003 26.2338 10.8667 27.0097 10.6478 26.9099ZM14.3988 24.2697C14.885 23.8512 15.4291 23.5195 15.9442 23.1428C15.6963 23.4326 14.7626 24.2536 14.3988 24.2697ZM18.9998 24.6529C19.0738 24.6529 19.3572 24.6851 19.4151 24.7141C19.3958 24.7624 19.1704 24.7849 19.1318 24.7656C19.032 24.801 18.9611 24.7752 18.8581 24.8364C18.7583 24.8976 18.652 25.1584 18.4492 25.1584C18.2721 25.3194 18.2335 25.4417 18.1272 25.4417C18.066 25.3355 18.1015 25.2711 18.1272 25.2324C18.2592 25.0135 18.3655 24.9974 18.5619 24.8493C18.7679 24.6754 18.9289 24.6593 18.9933 24.6593M19.7983 24.6014C20.7674 23.8737 21.8943 23.4777 23.1081 23.4777C23.2562 23.4777 24.3381 23.5646 24.4604 23.658C23.1307 23.7256 22.2034 24.1377 21.5691 24.3599C21.363 24.4339 21.0958 24.3502 20.8737 24.3502C20.468 24.3502 20.175 24.4661 19.8015 24.6014M15.5482 22.9432L15.7833 22.6116L15.9958 22.5826C15.7961 22.7436 15.7639 22.7565 15.7414 22.7726L15.5482 22.9432ZM26.4534 23.204C26.6595 22.9915 26.901 22.8241 27.0909 22.5987C27.223 22.4474 27.3228 22.296 27.4258 22.1286C27.4677 22.0578 27.5063 21.9612 27.5546 21.9C27.6866 22.1866 27.4355 22.5762 27.2809 22.7114C27.1328 22.8466 26.6434 23.1428 26.4534 23.204ZM30.6906 21.0017C30.6294 20.9019 30.6004 20.7731 30.6004 20.7506C30.6552 20.6508 30.7453 20.5542 30.7614 20.5509C30.7711 20.7602 30.829 20.8407 30.829 20.9116L30.6874 21.0017H30.6906ZM27.8186 18.999C28.0408 19.0763 28.1213 19.4562 28.1213 19.6108C28.1213 19.8941 28.015 20.5831 27.8379 20.5477C27.8057 20.1871 27.9377 19.9392 27.9377 19.672C27.9377 19.4047 27.6834 19.3081 27.6834 19.2502C27.6834 19.189 27.7639 19.0409 27.8154 18.999M31.1768 20.4383C31.4472 20.2193 31.547 20.0937 31.7692 20.0326L31.9978 20.1259L31.1768 20.4383ZM30.7325 20.0068V19.7943C30.8033 19.7138 30.8999 19.6494 30.9772 19.5722C31.1961 19.3532 31.3056 19.2824 31.6243 19.2502L30.7325 20.0068ZM32.0268 19.5625C32.1878 19.35 32.2232 19.292 32.2554 19.2309C32.1169 19.086 32.0107 19.0828 31.9946 19.0699L32.2554 19.0409C32.2844 19.0763 32.3681 19.2695 32.3681 19.3017L32.2554 19.5239L32.0268 19.5625ZM27.2712 18.9411C27.0845 19.0216 27.0652 18.8831 26.9493 18.8606C26.8623 18.8445 26.7497 18.8928 26.6756 18.8316C26.5565 18.735 26.5887 18.4388 26.3407 18.4388C26.2281 18.4388 26.0703 18.6127 25.9769 18.5901C26.0703 18.0235 26.051 17.4697 26.0864 16.8998L25.8739 16.8708C25.8481 16.9223 25.7548 17.0704 25.7644 17.1219C25.4457 17.1413 25.3523 16.8032 25.1269 16.7066C24.6955 16.7452 24.0708 16.9384 23.7102 16.9384C24.3155 15.9435 25.7032 15.3672 26.8559 15.3672C27.7381 15.3672 29.0163 15.7664 29.4639 16.5939C29.6217 16.8933 29.6571 17.2057 29.7569 17.5212C29.8599 17.856 30.0112 18.1973 30.0112 18.5579C30.0112 18.6642 29.9951 18.7737 29.979 18.8799C29.6023 18.6932 29.4735 18.7672 29.1001 18.7672C28.7266 18.7672 28.4529 18.3036 28.1213 18.2456C28.1116 18.2649 27.9442 18.5483 28.0697 18.5483C27.7574 18.3487 27.9732 18.31 27.6351 18.0267C27.4419 18.2327 27.5546 18.3841 27.5546 18.529C27.5546 18.6932 27.4129 18.7318 27.4129 18.9411H27.2712ZM25.3394 18.5869C25.2911 18.5418 25.2171 18.281 25.2171 18.2134C25.2171 18.1201 25.2557 18.0202 25.3169 17.9526L25.5745 17.8915C25.5809 18.075 25.5487 18.3261 25.4231 18.5064L25.3426 18.5869H25.3394ZM26.8656 18.104C26.6563 18.0009 26.5146 18.0814 26.3118 18.0235C26.2764 17.9784 26.2699 17.8657 26.2699 17.8142C26.2699 17.6468 26.3697 17.5147 26.505 17.431L26.7175 17.46L27.1618 18.0653L26.8656 18.104ZM24.5731 17.6435L24.6536 17.3924L24.8661 17.3505C24.7953 17.5147 24.7116 17.5759 24.6536 17.6146L24.5731 17.6435ZM22.9021 33.2109L22.3354 32.699C22.5061 32.4704 22.3934 32.2547 22.4449 32.0035C22.5318 32.1098 22.6348 32.2031 22.7186 32.3158C22.9117 32.5831 23.0244 32.8568 23.0824 33.1819L22.8989 33.2109H22.9021ZM20.3488 38.8165C20.1235 38.0019 19.7564 37.4127 19.7564 36.582C19.7564 36.3759 20.0043 36.3502 20.1621 36.3502H20.4132C20.6805 36.3502 20.9541 36.4113 21.2246 36.3985L21.2536 36.6303C20.9058 36.6432 20.674 36.5305 20.4261 36.5305C20.3005 36.5305 20.1557 36.5916 20.0816 36.6914C20.0816 36.8396 20.1717 36.9555 20.2619 36.9619L20.3488 38.8165ZM21.6915 36.5401L21.904 36.3598L22.1293 36.3405L21.904 36.5305L21.6915 36.5401ZM15.896 36.9426L15.4098 36.92C15.2971 36.8589 14.9107 36.6142 14.8528 36.5176C13.2429 33.8774 11.3626 31.4594 9.72695 28.8353C10.7798 30.2906 11.9808 31.5399 12.9402 32.934C13.5616 33.8388 13.8901 34.8691 14.6016 35.7416C14.9687 36.1956 15.4162 36.6045 15.896 36.9394M19.5761 35.3134C19.9013 35.3746 20.1943 35.4261 20.4744 35.4261C20.5968 35.2876 20.2941 35.0333 20.22 35.014C19.8272 34.9077 19.5793 34.8369 19.2412 34.6212C19.1865 34.589 19.0384 34.4248 19.0384 34.3604C19.2477 34.3346 19.8788 34.56 20.0816 34.56C20.1589 34.56 20.336 34.4473 20.336 34.3604C20.336 34.2155 18.6166 33.8742 18.6166 33.4943C19.3089 33.3719 19.8916 33.6746 20.468 33.6746C20.8511 33.6746 21.2214 33.5232 21.611 33.5232L21.9523 33.7164C22.139 34.0416 22.4706 34.4151 22.4706 34.8015V35.0848C22.4706 35.2522 22.3386 35.5839 22.2581 35.7287C21.7816 35.7094 21.4918 35.8189 21.186 35.8189C20.8801 35.8189 19.5793 35.5323 19.5793 35.3166M20.0301 33.1304C20.0784 32.963 20.0752 32.9308 20.1524 32.9083L20.3746 32.9276L20.6386 33.0886C20.6966 33.2431 20.6225 33.3301 20.5774 33.3204L20.1718 33.2399L20.0301 33.1304ZM34.9567 33.0596L35.2208 32.3641C35.2143 32.4414 35.2497 32.5187 35.2497 32.596C35.2497 32.8117 35.1725 33.0049 34.9567 33.0596ZM25.5068 41.3794C25.597 40.9737 26.3472 40.7451 26.6402 40.4135L26.9171 40.3909C26.4728 40.7547 26.3762 41.1508 25.7773 41.3343C25.7193 41.3536 25.5745 41.3858 25.5068 41.3794ZM22.3096 40.1849C22.2163 40.0979 22.2131 39.908 22.1873 39.8017C22.3322 39.7277 22.374 39.7824 22.4352 39.8081C22.4191 40.0142 22.3901 40.114 22.3579 40.143L22.3096 40.1849ZM33.1054 37.3644C32.9026 37.3644 32.4582 37.2646 32.5001 37.0714C31.5986 37.0424 30.5843 37.081 29.8245 36.6786C30.5039 36.6142 31.1414 36.5176 31.8336 36.5176C32.3745 36.5176 32.8317 36.6077 33.3308 36.7558C33.4596 36.8589 33.3437 37.0585 33.4563 37.1197C33.4757 37.1293 33.6721 37.1358 33.7236 37.1486C33.6399 37.3773 33.276 37.3644 33.1054 37.3644ZM34.374 36.3212L34.5639 36.1055C34.5189 36.3019 34.4738 36.3308 34.4545 36.3308L34.374 36.3212ZM30.652 33.5812L30.6133 33.2045L31.7757 33.7003C31.9753 33.7003 32.0847 33.6939 32.2779 33.7486C32.3005 33.8452 32.426 33.8549 32.426 33.9804C32.3938 34.0416 32.2586 34.077 32.2007 34.077C32.0332 34.077 30.858 33.6552 30.6552 33.5812M23.7553 41.9525C23.1564 40.1688 22.754 38.8326 22.754 36.9812C22.754 35.7835 23.2305 34.5922 22.9794 33.3944C24.2866 33.7518 23.8583 35.2007 24.9981 35.2007C24.8146 34.9142 24.586 34.7274 24.4958 34.4859C24.5345 34.0159 24.1578 33.6939 23.9549 33.4492C23.9292 33.417 23.7489 33.3043 23.7489 33.2818C24.4282 33.2592 25.3909 35.2039 25.9576 35.6096C26.1669 35.7577 25.8352 36.2536 26.5693 36.1892C26.5951 36.0443 26.5887 35.9734 26.5887 35.9026C26.5887 35.6579 26.7497 35.5259 26.6692 35.2458C26.8301 35.3263 26.8945 35.352 26.8945 35.4615C26.8945 35.5195 27.4902 36.1344 27.5449 36.1634C27.4387 36.1924 27.3002 36.2503 27.3002 36.3469C27.3002 36.7558 28.8425 37.2807 29.29 37.4094C29.6764 37.3869 29.5412 37.1744 29.6152 37.0005C28.7105 36.392 27.5385 35.9702 27.194 35.0397C26.7239 34.7596 26.1926 34.5407 25.8546 34.1768C25.4231 33.7196 25.2654 33.1626 24.4347 33.0016C24.3413 32.9823 24.2061 33.0177 24.1513 32.9469C24.2737 32.7763 24.4121 32.7634 24.5248 32.7634C24.6375 32.7634 26.5275 33.5039 26.7529 33.5973C26.9622 33.5973 27.0426 33.5651 27.136 33.5265C26.9235 33.2657 25.993 33.0081 25.993 32.7473L26.2281 32.6925C27.1199 32.6925 27.8862 33.1819 28.7105 33.359C28.7169 33.1304 28.5785 33.0177 28.5624 32.8889C28.6976 32.8342 28.8425 32.8278 28.9938 32.8278C29.4059 32.8278 29.8921 33.1047 30.2946 33.1916C30.9063 33.0081 31.3506 32.9662 31.8111 32.9662C33.3404 32.9662 32.7931 33.6327 33.5175 33.6327C33.6817 33.6327 33.7944 33.5522 33.7944 33.4427C33.7944 33.2141 33.4209 32.6925 33.0764 32.6925C32.8639 32.6925 32.5999 32.6153 32.5741 32.4382C32.2683 32.4124 30.2012 32.2772 30.0821 32.1806C31.8078 31.7942 32.6063 30.7092 33.7848 29.8399C33.8942 29.8109 34.0069 29.8044 34.1228 29.8044C34.5092 29.8044 34.873 29.988 35.1853 30.1264C35.2304 30.2874 35.253 30.4452 35.253 30.6094C35.253 30.9539 35.1435 31.2984 35.1435 31.6461C35.1435 31.82 35.1821 31.9939 35.2626 32.1581C35.2143 32.2257 35.0662 32.1227 34.9986 32.1227C34.2677 32.1227 34.7185 34.3765 33.3823 34.3765L33.0957 34.1929C32.777 34.2251 32.1137 34.3185 31.8465 34.3185C31.7531 34.3185 31.5213 34.1672 31.4601 34.1157C31.3217 34.164 30.1787 33.7325 29.9855 33.6681C29.9018 33.6842 29.7923 33.681 29.7086 33.681C29.4735 33.681 29.5186 33.6069 29.3737 33.5554C29.2739 33.5168 29.1516 33.5747 29.0582 33.5426C30.2012 34.2284 31.6404 34.6083 33.0507 34.6083C33.9554 34.6083 33.9071 34.5503 34.712 34.135C35.9903 33.4749 35.6329 32.2064 35.6329 31.2211C35.6329 30.9185 35.678 30.5997 35.81 30.3099L36.016 30.2842C36.5859 30.7704 36.3412 31.6397 37.1075 32.0067C37.1494 32.1162 37.1848 32.2192 37.1848 32.3319C37.1848 32.9984 36.4797 33.5522 36.4797 34.2992C36.4797 34.3893 36.5054 34.4795 36.528 34.5664C36.5569 34.6083 36.924 34.56 36.924 34.6437C36.924 34.8111 36.4571 35.1363 36.2833 35.2393L35.9677 35.1814C35.488 35.7513 34.5221 36.7784 34.5221 37.3869C34.5221 37.4288 34.2355 37.5898 34.1872 37.5898C32.983 37.5576 31.7821 37.2291 30.5843 37.2291C30.4749 37.2291 30.3783 37.2485 30.2785 37.271C30.8226 37.3998 31.795 37.6509 32.0912 38.0051C31.4054 38.3078 30.7196 38.2627 30.111 38.2627C29.2127 38.2627 28.073 38.4816 27.2069 38.6651C27.7671 38.3142 28.5624 38.5621 28.968 38.1596C28.7491 38.1274 28.5366 38.1113 28.3112 38.1113C27.8605 38.1113 27.2487 38.2369 26.8334 38.3625C26.6176 38.5589 26.4212 38.7907 26.0284 38.81C25.6195 38.4301 24.879 38.1049 24.8629 37.5865C23.9034 37.036 24.6375 35.4422 24.0064 35.4422C23.8905 36.2181 24.0064 36.8428 24.0064 37.5704C24.0064 37.6735 23.9968 37.9536 24.2028 37.9536C24.2672 37.9536 24.3638 37.8441 24.4282 37.8441C24.4475 37.9375 24.2479 37.9922 24.2705 38.0534L24.351 38.2691C24.8597 38.4494 24.7277 38.8358 25.4038 38.8358C25.7451 38.8358 25.5809 39.1803 25.8385 39.1803C26.0381 39.1803 26.315 39.0966 26.5565 39.0966C26.3762 39.2415 26.3021 39.2769 26.2603 39.3542C26.6176 39.4894 26.8398 39.3187 26.9911 39.3187C27.1425 39.3187 27.2101 39.4443 27.3775 39.4443C27.6995 39.4443 27.8411 39.2994 27.8411 39.132L28.1857 39.0676C28.2146 39.1867 28.1116 39.2511 28.1857 39.3123C27.532 39.6182 26.4889 39.5119 25.9286 39.9208C25.7032 40.0883 25.4811 40.9705 25.143 40.9705C25.1237 40.7837 25.5197 40.6742 25.2525 40.4875C25.3459 40.3136 25.3877 40.143 25.3877 39.9562C25.3877 39.7953 24.7727 38.6329 24.5409 38.6329C24.454 39.1739 24.7019 39.4862 24.5216 39.908C24.5602 40.04 24.85 39.9434 24.9981 40.114C24.6826 40.4972 24.6279 40.8835 24.4347 41.2892C24.4701 41.3279 24.3638 42.1811 24.3928 42.2068C24.3928 42.2068 23.9227 42.3421 23.7843 41.9364" fill="white"/>
<path d="M9.50149 38.3482L9.52725 38.4287L8.60318 38.6476L7.27344 36.4453L7.35071 36.397L7.41511 36.5033C7.48916 36.6256 7.57931 36.6868 7.68878 36.69C7.75318 36.69 7.86265 36.6449 8.02685 36.5483L9.87176 35.4472C10.0521 35.3377 10.1487 35.254 10.1712 35.1864C10.2002 35.093 10.1841 34.9932 10.1165 34.887L10.0521 34.7807L10.1326 34.7324L10.9085 36.0203L10.8312 36.0686C10.7411 35.9173 10.6606 35.8175 10.5962 35.7724C10.5286 35.7305 10.4674 35.7112 10.4095 35.7144C10.3515 35.7177 10.2356 35.7724 10.0682 35.8722L8.27155 36.9476C8.15242 37.0152 8.07837 37.0732 8.04939 37.1247C8.03007 37.1601 8.02363 37.1987 8.03007 37.2406C8.03651 37.2857 8.09769 37.3984 8.20716 37.5819L8.33273 37.7879C8.46474 38.0069 8.57421 38.1486 8.65792 38.2194C8.74485 38.287 8.8511 38.3353 8.97345 38.3578C9.09902 38.3804 9.27611 38.3739 9.49505 38.3417" fill="white"/>
<path d="M13.0144 38.8641L13.0821 38.8029L13.8709 39.6754L13.8033 39.7334L13.7196 39.6432C13.6294 39.5499 13.5232 39.508 13.3944 39.5306C13.3364 39.537 13.2366 39.6046 13.0982 39.727L12.0904 40.6285C11.8425 40.8506 11.6267 40.9987 11.4432 41.0728C11.2629 41.1436 11.0568 41.1533 10.8282 41.0986C10.5996 41.0406 10.3743 40.8925 10.1521 40.6446C9.9074 40.3741 9.76896 40.1262 9.73676 39.904C9.70778 39.6787 9.7432 39.4694 9.84945 39.2698C9.92028 39.1345 10.107 38.9349 10.4065 38.6644L11.3756 37.7983C11.5269 37.6631 11.6106 37.5504 11.6203 37.4635C11.63 37.383 11.5913 37.2896 11.5076 37.1962L11.4239 37.1061L11.4915 37.0449L12.4574 38.1139L12.3898 38.1718L12.3029 38.0785C12.2127 37.9786 12.1129 37.9336 12.0099 37.9464C11.9391 37.9561 11.8328 38.0205 11.6944 38.1461L10.6157 39.1152C10.5192 39.2021 10.4161 39.3084 10.3066 39.4372C10.1972 39.566 10.1296 39.6851 10.1006 39.7946C10.0716 39.904 10.0748 40.0199 10.1102 40.1455C10.1424 40.2743 10.2197 40.3999 10.3324 40.5254C10.4773 40.6864 10.6447 40.7991 10.8315 40.8603C11.015 40.9247 11.1856 40.9311 11.3337 40.8796C11.4883 40.8281 11.6976 40.6832 11.9616 40.4482L12.9661 39.5499C13.1207 39.4082 13.2012 39.3084 13.2108 39.2376C13.2205 39.1442 13.1819 39.0476 13.0982 38.9542L13.0144 38.8608V38.8641Z" fill="white"/>
<path d="M14.3375 41.9546L14.2666 43.2296C14.2473 43.5838 14.2537 43.8188 14.2827 43.938C14.3149 44.0571 14.3858 44.1633 14.4984 44.2599L14.4437 44.3308L13.3007 43.4743L13.3554 43.4035C13.4327 43.4614 13.4939 43.4936 13.5422 43.5065C13.5776 43.5162 13.613 43.5129 13.6484 43.5065C13.6839 43.4936 13.7128 43.4775 13.7322 43.4518C13.7547 43.4228 13.7708 43.3874 13.7837 43.352C13.7901 43.3198 13.7998 43.2393 13.803 43.0976L13.8642 42.077L12.7695 42.3732C12.6535 42.4021 12.5795 42.4279 12.5473 42.444C12.5183 42.4601 12.4893 42.4794 12.47 42.5084C12.4378 42.5503 12.4282 42.5953 12.4443 42.6501C12.4571 42.7048 12.5151 42.7692 12.6117 42.8497L12.557 42.9237L11.6104 42.2154L11.6651 42.1446C11.7391 42.1864 11.8068 42.2186 11.8679 42.2315C11.9774 42.2605 12.0869 42.2701 12.2028 42.2701C12.3187 42.2701 12.47 42.2444 12.6535 42.1961L13.8835 41.8773L13.9382 40.7182C13.9511 40.4059 13.935 40.1773 13.8803 40.0389C13.832 39.8972 13.745 39.7781 13.6162 39.6783L13.671 39.6074L14.9009 40.5283L14.8494 40.6023C14.7399 40.5283 14.6562 40.4896 14.5918 40.4896C14.5306 40.4896 14.4888 40.5122 14.4598 40.5476C14.4244 40.5959 14.4019 40.6893 14.3954 40.8277L14.3439 41.7421L15.268 41.5006C15.3774 41.4716 15.445 41.4491 15.4772 41.433C15.5094 41.4169 15.5384 41.3944 15.5577 41.3686C15.5771 41.3429 15.5899 41.3107 15.5899 41.2817C15.5899 41.2366 15.5803 41.2012 15.5577 41.169C15.5384 41.1336 15.4805 41.0821 15.3871 41.008L15.4418 40.9339L16.3852 41.6423L16.3305 41.7131C16.2532 41.6616 16.1824 41.6262 16.1212 41.6133C16.0246 41.5908 15.9312 41.5811 15.8346 41.5908C15.738 41.5972 15.5803 41.6262 15.371 41.6841L14.3342 41.961L14.3375 41.9546Z" fill="white"/>
<path d="M18.9484 43.1376L18.4751 44.3611L19.1609 44.6219C19.338 44.6895 19.4667 44.7056 19.5472 44.6767C19.6535 44.638 19.7469 44.5318 19.8241 44.3579L19.9078 44.3901L19.4957 45.4687L19.4088 45.4365C19.4442 45.2787 19.4603 45.1725 19.4539 45.121C19.4474 45.0566 19.4184 44.9986 19.3702 44.9439C19.3186 44.8892 19.2285 44.8376 19.0997 44.7861L18.4139 44.5253L18.0211 45.5492C17.9696 45.6877 17.9406 45.7714 17.9406 45.8068C17.9406 45.839 17.9535 45.8744 17.976 45.9034C18.0018 45.9323 18.0565 45.9613 18.1434 45.9935L18.6715 46.1964C18.8486 46.264 18.9806 46.2994 19.0707 46.3058C19.1576 46.3123 19.2542 46.293 19.3541 46.2479C19.4861 46.1899 19.6374 46.0837 19.8113 45.9323L19.9046 45.9678L19.3347 46.6407L16.936 45.7231L16.9682 45.6394L17.0809 45.6844C17.155 45.7134 17.229 45.7198 17.3095 45.7102C17.3707 45.7037 17.4158 45.6812 17.4512 45.6394C17.4898 45.5975 17.5349 45.5009 17.5961 45.3528L18.372 43.3405C18.4461 43.1408 18.4718 43.0153 18.4525 42.9541C18.4236 42.8704 18.3398 42.806 18.211 42.7577L18.1016 42.7158L18.137 42.6289L20.5357 43.5465L20.3103 44.2388L20.2202 44.2034C20.2524 44.0263 20.2556 43.9007 20.2395 43.8266C20.2234 43.7526 20.1847 43.6818 20.1236 43.6206C20.0721 43.5755 19.969 43.5208 19.8145 43.4628L18.958 43.1376H18.9484Z" fill="white"/>
<path d="M23.5042 44.1903L23.3915 44.963L23.2982 44.9437C23.3078 44.8052 23.3014 44.7054 23.2821 44.641C23.2499 44.5412 23.1984 44.4575 23.1211 44.3963C23.047 44.3384 22.944 44.2965 22.8088 44.2675L22.3451 44.1774L21.8589 46.6662C21.8203 46.8658 21.8171 46.9946 21.8493 47.0526C21.8976 47.1299 21.9877 47.1814 22.1133 47.2104L22.226 47.2297L22.2099 47.3198L20.819 47.0494L20.8351 46.9592L20.951 46.9818C21.0862 47.0075 21.1957 46.985 21.273 46.9141C21.318 46.8723 21.3567 46.7564 21.3921 46.5728L21.8815 44.084L21.4855 44.0099C21.3341 43.981 21.2214 43.9713 21.1538 43.981C21.0637 43.9938 20.98 44.0389 20.9027 44.113C20.8286 44.187 20.7707 44.2965 20.7288 44.4446L20.6387 44.4285L20.8254 43.6719L23.4978 44.1903H23.5042Z" fill="white"/>
<path d="M28.736 44.0586L28.7424 44.1487C28.6297 44.1809 28.5428 44.2228 28.4848 44.2808C28.4043 44.3709 28.3399 44.4997 28.2852 44.6671L27.374 47.581L27.2839 47.5906L25.7867 44.8506C25.7126 44.709 25.6579 44.6253 25.6289 44.5931C25.5838 44.548 25.5291 44.5126 25.4679 44.49C25.4068 44.4643 25.323 44.4546 25.2232 44.4546L25.2168 44.3645L26.5723 44.2453L26.5787 44.3355C26.4274 44.3645 26.3276 44.3999 26.2857 44.4385C26.2439 44.4804 26.2246 44.5287 26.231 44.5866C26.2375 44.6703 26.2857 44.7927 26.3791 44.9601L27.3933 46.8243L28.0083 44.8442C28.0695 44.6478 28.0952 44.5158 28.0888 44.4417C28.0824 44.3934 28.0566 44.3516 28.0083 44.3162C27.9568 44.2743 27.8731 44.2518 27.7572 44.2421C27.7507 44.2421 27.7346 44.2421 27.7185 44.2421L27.7089 44.1487L28.7327 44.0618L28.736 44.0586Z" fill="white"/>
<path d="M29.7054 43.9889L30.0467 45.2575L30.755 45.0675C30.9385 45.016 31.0544 44.9581 31.1027 44.8872C31.1671 44.7906 31.1768 44.6522 31.1382 44.4654L31.2251 44.4429L31.5277 45.5569L31.4376 45.5795C31.3732 45.4281 31.3217 45.3348 31.2895 45.2961C31.2444 45.2478 31.1865 45.2156 31.1156 45.2028C31.0448 45.1899 30.9385 45.2028 30.8033 45.2382L30.0982 45.4281L30.3815 46.4842C30.4202 46.6291 30.4491 46.7128 30.4685 46.7386C30.491 46.7643 30.52 46.7836 30.5586 46.7933C30.5908 46.803 30.6552 46.7933 30.7421 46.7708L31.2895 46.6259C31.4698 46.5776 31.6018 46.5293 31.6758 46.481C31.7531 46.4327 31.8143 46.3651 31.8723 46.2685C31.9431 46.1429 32.0043 45.9723 32.0558 45.7469L32.1524 45.7211L32.088 46.5969L29.6056 47.2602L29.583 47.1732L29.6989 47.141C29.773 47.1217 29.8406 47.0831 29.9018 47.0316C29.9436 46.9929 29.9694 46.9446 29.9726 46.8899C29.9758 46.8352 29.9597 46.7289 29.9179 46.5744L29.3544 44.4912C29.2997 44.2883 29.245 44.1692 29.1934 44.1338C29.1194 44.0855 29.0164 44.0791 28.8843 44.1145L28.7684 44.1467L28.7427 44.0565L31.2251 43.3965L31.4505 44.0887L31.3603 44.1113C31.283 43.9535 31.2122 43.8472 31.1543 43.7925C31.0995 43.741 31.0255 43.7088 30.9385 43.6959C30.8677 43.6895 30.7518 43.7088 30.594 43.7474L29.7118 43.9857L29.7054 43.9889Z" fill="white"/>
<path d="M33.0668 44.3821C33.0925 44.3692 33.1183 44.3596 33.1408 44.3499C33.1601 44.3403 33.1762 44.3306 33.1923 44.3242C33.4821 44.1922 33.6656 44.0279 33.7558 43.838C33.8459 43.6448 33.8427 43.4516 33.7558 43.2617C33.6656 43.0717 33.5401 42.9461 33.363 42.8849C33.1923 42.8173 33.0056 42.8334 32.8124 42.9236C32.7255 42.9654 32.616 43.0331 32.484 43.1296L33.07 44.3789L33.0668 44.3821ZM35.942 44.9327L35.1338 45.3062L33.4499 44.3757C33.3758 44.4143 33.3147 44.4433 33.2696 44.4691C33.2503 44.4787 33.231 44.4884 33.2052 44.498C33.1794 44.5077 33.1569 44.5141 33.1344 44.527L33.5433 45.3996C33.6334 45.5895 33.7075 45.6958 33.7719 45.7247C33.8588 45.7634 33.9586 45.7537 34.0681 45.7054L34.1872 45.6507L34.2259 45.7312L32.9283 46.3333L32.8929 46.2528L33.0056 46.198C33.1312 46.1401 33.2052 46.0564 33.2213 45.9469C33.2342 45.8857 33.1955 45.7698 33.1151 45.5992L32.2039 43.6577C32.1137 43.4677 32.0397 43.3615 31.9753 43.3325C31.8851 43.2939 31.7853 43.3003 31.6694 43.355L31.5567 43.4065L31.5181 43.3228L32.6192 42.8141C32.938 42.666 33.1859 42.5791 33.363 42.5565C33.5368 42.5308 33.7075 42.5565 33.8717 42.6338C34.0391 42.7079 34.1615 42.8334 34.242 43.0041C34.3289 43.1876 34.345 43.3776 34.2838 43.5708C34.2291 43.7639 34.0842 43.9475 33.8588 44.1213L34.8891 44.6944C35.1242 44.8232 35.3109 44.9005 35.4429 44.9198C35.5781 44.9359 35.7295 44.9166 35.9001 44.8586L35.942 44.9424V44.9327Z" fill="white"/>
<path d="M37.3941 43.8653L37.4456 43.9394L36.2479 44.7121L36.1963 44.638L36.2962 44.5736C36.4121 44.4996 36.4732 44.4127 36.4829 44.3096C36.4893 44.2452 36.4346 44.1293 36.3251 43.9619L35.1499 42.1653C35.0566 42.0236 34.9889 41.9367 34.9439 41.9013C34.9084 41.8755 34.8602 41.8659 34.799 41.8691C34.7185 41.8723 34.6444 41.8981 34.5768 41.9399L34.4802 42.0043L34.4287 41.9303L35.6297 41.1543L35.678 41.2316L35.5782 41.296C35.4622 41.37 35.4011 41.457 35.3946 41.5568C35.3882 41.6212 35.4397 41.7371 35.5492 41.9045L36.7244 43.7011C36.8177 43.8428 36.8854 43.9297 36.9337 43.9651C36.9691 43.9909 37.0174 44.0005 37.0785 43.9973C37.159 43.9909 37.2331 43.9683 37.3007 43.9265L37.4005 43.8621L37.3941 43.8653Z" fill="white"/>
<path d="M37.9833 39.2051L38.5113 39.775L38.4437 39.8329C38.3406 39.7396 38.2569 39.6816 38.1958 39.6558C38.0959 39.6172 37.9961 39.6075 37.9028 39.6269C37.8094 39.643 37.7064 39.6977 37.6033 39.7878L37.2427 40.0873L38.8816 42.0288C39.0136 42.1833 39.1134 42.267 39.1778 42.2799C39.2679 42.2928 39.3645 42.2574 39.4643 42.1737L39.5513 42.1028L39.6092 42.1704L38.5242 43.0752L38.4662 43.0044L38.5564 42.9303C38.6626 42.8402 38.7141 42.7436 38.7045 42.6405C38.698 42.5761 38.6336 42.4763 38.5145 42.3347L36.8757 40.3932L36.5666 40.6507C36.4474 40.7473 36.3702 40.831 36.3347 40.889C36.2897 40.9663 36.2736 41.0596 36.2832 41.1659C36.2929 41.2721 36.3444 41.3881 36.4313 41.5104L36.3573 41.5716L35.8872 40.9502L37.9736 39.2083L37.9833 39.2051Z" fill="white"/>
<path d="M40.6171 39.2448L39.2197 38.8134L39.8798 40.1174L40.6171 39.2448ZM40.8006 39.306L39.9699 40.288L40.2275 40.7967C40.2887 40.9223 40.3434 41.0028 40.3949 41.0447C40.4336 41.0801 40.4851 41.0865 40.543 41.0801C40.6042 41.064 40.6911 40.9996 40.8038 40.8837L40.8747 40.9449L40.1985 41.7433L40.1277 41.6854C40.1985 41.563 40.2339 41.4761 40.2275 41.4182C40.2211 41.3055 40.1599 41.1316 40.0375 40.8998L38.6885 38.2499L38.7464 38.1855L41.6184 39.0742C41.8502 39.145 42.0145 39.1772 42.1143 39.1611C42.2141 39.145 42.3107 39.0871 42.4073 38.9905L42.4749 39.0484L41.6313 40.0498L41.5605 39.9918C41.641 39.8856 41.6828 39.8051 41.6828 39.7439C41.6828 39.6827 41.6667 39.6376 41.6216 39.6022C41.5669 39.5539 41.4574 39.5089 41.2965 39.4573L40.7974 39.3028L40.8006 39.306Z" fill="white"/>
<path d="M40.8167 35.2513L41.7955 35.8598L41.7472 35.9371C41.5444 35.8437 41.3673 35.7986 41.2159 35.7922C41.0646 35.7857 40.9165 35.8244 40.7748 35.9017C40.6364 35.9821 40.5269 36.0852 40.4432 36.2107C40.3531 36.3556 40.3241 36.5005 40.3531 36.6486C40.382 36.7967 40.4529 36.9062 40.5656 36.977C40.6525 37.0318 40.7491 37.0479 40.8553 37.035C41.0163 37.0157 41.2836 36.8998 41.657 36.684C41.9661 36.5102 42.1851 36.3975 42.3235 36.3492C42.4588 36.3009 42.594 36.2816 42.7292 36.2945C42.8644 36.3073 42.99 36.346 43.1027 36.4168C43.3152 36.5488 43.4504 36.7484 43.502 37.0092C43.5535 37.27 43.4955 37.5308 43.3313 37.7884C43.2798 37.8721 43.2251 37.943 43.1671 38.0074C43.1349 38.046 43.0544 38.12 42.9256 38.2295C42.7968 38.3358 42.7196 38.4066 42.7002 38.442C42.6777 38.4774 42.6713 38.5129 42.6777 38.545C42.6874 38.5772 42.7196 38.6191 42.7775 38.6706L42.7292 38.7447L41.7601 38.1426L41.8084 38.0653C42.0338 38.1555 42.2173 38.2038 42.3557 38.2038C42.4942 38.2038 42.6358 38.1651 42.7807 38.0814C42.9256 37.9977 43.048 37.8818 43.1413 37.7305C43.2508 37.5566 43.2894 37.3924 43.2605 37.2378C43.2347 37.0801 43.1542 36.9609 43.0319 36.8837C42.9643 36.8418 42.8805 36.8161 42.784 36.8128C42.6906 36.8064 42.5875 36.8225 42.4749 36.8643C42.4008 36.8933 42.2205 36.9867 41.9339 37.1412C41.6506 37.2958 41.4317 37.402 41.2836 37.4536C41.1387 37.5051 41.0034 37.5244 40.8714 37.518C40.7426 37.5115 40.6203 37.4697 40.5012 37.3956C40.2983 37.27 40.1728 37.0865 40.1245 36.8386C40.0762 36.5907 40.1245 36.3492 40.2758 36.1077C40.3692 35.9596 40.5044 35.8244 40.6847 35.6988C40.7716 35.6441 40.8231 35.599 40.8425 35.57C40.865 35.5346 40.8682 35.4992 40.865 35.4605C40.8553 35.4251 40.8264 35.3801 40.7684 35.3253L40.8167 35.248V35.2513Z" fill="white"/>
<path d="M2.55957 25.8564C2.55957 12.984 13.0527 2.54883 25.9992 2.54883C38.9457 2.54883 49.442 12.9872 49.442 25.8597C49.442 38.7321 38.9457 49.1673 25.9992 49.1673C13.0527 49.1673 2.55957 38.7321 2.55957 25.8564ZM3.02643 25.8564C3.02643 38.4713 13.3102 48.7004 25.996 48.7004C38.6817 48.7004 48.972 38.4713 48.972 25.8564C48.972 13.2415 38.6881 3.01247 25.9992 3.01247C13.3102 3.01247 3.02643 13.2415 3.02643 25.8564Z" fill="white"/>
<path d="M4.85561 23.1222L6.62968 23.2767L6.6168 23.4184C6.27229 23.4345 5.99539 23.4892 5.77967 23.5922C5.57039 23.6888 5.3933 23.8402 5.25485 24.0462C5.11963 24.2523 5.03913 24.4712 5.01981 24.7031C4.99728 24.9639 5.05845 25.186 5.20334 25.3728C5.34823 25.5563 5.52209 25.6593 5.72815 25.6754C5.8827 25.6883 6.03403 25.6464 6.16926 25.5498C6.3721 25.4114 6.65866 25.0637 7.02249 24.5034C7.32192 24.0494 7.55052 23.7404 7.70507 23.5762C7.8564 23.4152 8.03026 23.296 8.22666 23.2155C8.42307 23.1383 8.62269 23.1093 8.82875 23.1254C9.21834 23.1576 9.54031 23.3379 9.79789 23.6663C10.0522 23.9883 10.1585 24.3875 10.1166 24.8608C10.1038 25.0089 10.0812 25.1474 10.0458 25.2762C10.0265 25.3534 9.96532 25.5112 9.86872 25.7527C9.76569 25.9877 9.71418 26.1423 9.70774 26.2034C9.7013 26.2678 9.7174 26.3161 9.7496 26.358C9.78501 26.3966 9.86229 26.4288 9.9782 26.4578L9.96532 26.5963L8.20413 26.4417L8.217 26.3033C8.59049 26.2711 8.87383 26.2067 9.07023 26.1101C9.2602 26.0167 9.42762 25.8622 9.56929 25.6464C9.71096 25.4275 9.79467 25.186 9.81721 24.9123C9.84619 24.6 9.78501 24.3457 9.63368 24.1493C9.48236 23.9529 9.29239 23.8434 9.06701 23.8209C8.94144 23.8112 8.80943 23.8369 8.67743 23.8949C8.5422 23.9529 8.41341 24.0495 8.28784 24.1847C8.20413 24.2781 8.0206 24.5292 7.73727 24.9478C7.45071 25.3631 7.22533 25.6561 7.06434 25.83C6.90336 25.9974 6.72949 26.123 6.54275 26.2067C6.35922 26.2839 6.1596 26.3161 5.9471 26.2968C5.58005 26.2678 5.27417 26.0972 5.03269 25.7913C4.78799 25.4887 4.68818 25.1184 4.72682 24.6837C4.74936 24.4101 4.84273 24.1299 5.00372 23.8402C5.08099 23.7017 5.11963 23.6083 5.12607 23.5504C5.1325 23.486 5.11641 23.4313 5.08421 23.3862C5.04879 23.3411 4.9683 23.2993 4.85561 23.2638L4.86849 23.1254L4.85561 23.1222Z" fill="white"/>
<path d="M9.40822 19.1303L7.14797 19.1593L8.74496 20.7627L9.40822 19.1303ZM9.70766 19.1335L8.96068 20.9752L9.58209 21.5966C9.73664 21.7512 9.85898 21.8446 9.94914 21.8832C10.0232 21.9122 10.1005 21.9057 10.1874 21.8607C10.2679 21.8124 10.3645 21.6771 10.474 21.455L10.6027 21.5065L9.99421 23.0037L9.86542 22.9521C9.9105 22.7396 9.91694 22.5915 9.88474 22.5078C9.81713 22.3436 9.64326 22.1215 9.35671 21.8349L6.10156 18.583L6.14986 18.4606L10.7991 18.4059C11.1726 18.3994 11.4302 18.364 11.5687 18.2932C11.7071 18.2224 11.823 18.0904 11.9132 17.9004L12.042 17.9519L11.2821 19.829L11.1533 19.7775C11.2209 19.5843 11.2402 19.4459 11.2145 19.3589C11.1887 19.2688 11.1372 19.2108 11.0567 19.1786C10.9537 19.1368 10.7702 19.1174 10.5094 19.1207L9.70444 19.1335H9.70766Z" fill="white"/>
<path d="M8.07178 14.6646L9.00872 13.6311L13.9896 13.8758L11.7809 11.8988C11.5459 11.6896 11.372 11.5801 11.269 11.5801C11.1241 11.5801 10.9889 11.6541 10.8536 11.8055L10.7345 11.9375L10.6282 11.8441L11.8292 10.5176L11.9355 10.611L11.8131 10.7462C11.665 10.9072 11.6135 11.0649 11.6489 11.2195C11.6714 11.3161 11.7906 11.4577 12.0063 11.6509L15.2357 14.5422L15.1423 14.6421L9.78145 14.3909L12.1383 16.5031C12.3733 16.7156 12.5472 16.8218 12.647 16.8218C12.7919 16.8218 12.9303 16.7478 13.0624 16.5996L13.1879 16.4644L13.291 16.5578L12.09 17.8843L11.987 17.7909L12.1093 17.6589C12.2574 17.4947 12.3122 17.337 12.2767 17.1824C12.2542 17.0858 12.1351 16.9409 11.9194 16.751L9.25342 14.3652C9.0216 14.3587 8.86061 14.3652 8.76724 14.3877C8.67387 14.407 8.56118 14.4553 8.42595 14.5326C8.35833 14.5712 8.27462 14.6485 8.17481 14.758L8.07178 14.6646Z" fill="white"/>
<path d="M16.7233 7.31445L17.3962 8.31579L17.2706 8.38984C17.1386 8.22242 17.0259 8.10973 16.939 8.05821C16.7941 7.9745 16.6492 7.93586 16.5011 7.94552C16.3562 7.95196 16.1888 8.00991 16.0053 8.11939L15.3807 8.48965L17.4091 11.8446C17.5733 12.1151 17.7021 12.2664 17.8019 12.2986C17.9403 12.3404 18.0949 12.3083 18.2688 12.2052L18.4201 12.1151L18.4909 12.2342L16.617 13.3547L16.5462 13.2355L16.7007 13.1422C16.8875 13.0327 16.9873 12.8942 16.997 12.7365C17.0034 12.6399 16.9293 12.4692 16.7845 12.2213L14.756 8.86314L14.2248 9.1819C14.0187 9.30425 13.8835 9.40728 13.8126 9.49099C13.7225 9.59724 13.6742 9.73891 13.6645 9.89989C13.6549 10.0641 13.7032 10.2508 13.8094 10.4601L13.6871 10.5342L13.1172 9.47167L16.7233 7.31767V7.31445Z" fill="white"/>
<path d="M20.8058 6.17179C20.3582 6.28448 20.0395 6.53562 19.8528 6.93487C19.6177 7.4307 19.5984 8.07465 19.8012 8.8667C20.0041 9.67807 20.3357 10.2608 20.7961 10.6118C21.1471 10.879 21.5431 10.9563 21.9842 10.8468C22.4543 10.7309 22.7956 10.4508 23.0081 10.0129C23.2238 9.57182 23.2335 8.96007 23.0371 8.17446C22.8246 7.32445 22.4961 6.7288 22.055 6.39395C21.7009 6.12993 21.2823 6.05588 20.809 6.17501M20.8058 5.88523C21.4562 5.72425 22.0776 5.8305 22.6765 6.20399C23.2753 6.57426 23.6713 7.12805 23.8517 7.86215C24.0416 8.61556 23.9579 9.30459 23.607 9.92277C23.2496 10.541 22.7344 10.9338 22.0518 11.1012C21.3628 11.2751 20.7221 11.172 20.1296 10.8018C19.5404 10.4315 19.1476 9.85838 18.9544 9.08886C18.758 8.29681 18.8675 7.58847 19.2829 6.95418C19.6435 6.40683 20.1522 6.04944 20.8058 5.88523Z" fill="white"/>
<path d="M31.1254 6.03251L30.9934 7.23025L30.8517 7.20771C30.8581 6.99521 30.8453 6.83744 30.8099 6.74085C30.7551 6.58308 30.6682 6.46073 30.5491 6.3738C30.4331 6.28365 30.2689 6.22247 30.0597 6.19028L29.3417 6.07759L28.7235 9.9477C28.6719 10.2568 28.6752 10.4564 28.7299 10.5434C28.8104 10.6625 28.9488 10.7398 29.1452 10.7687L29.3191 10.7977L29.2966 10.9362L27.1394 10.5949L27.1619 10.4564L27.3422 10.4854C27.5579 10.5208 27.7221 10.479 27.8316 10.363C27.8992 10.2922 27.954 10.1151 27.999 9.83179L28.6172 5.96168L28.0055 5.86508C27.7672 5.82967 27.5933 5.82001 27.4903 5.83933C27.3519 5.86186 27.2263 5.93914 27.1136 6.05827C26.9977 6.18062 26.914 6.34804 26.8592 6.57986L26.7144 6.55733L26.9623 5.37891L31.1189 6.03573L31.1254 6.03251Z" fill="white"/>
<path d="M35.1884 7.91177C34.7827 7.69927 34.3738 7.67351 33.9681 7.84416C33.4594 8.05666 33.0119 8.52352 32.6287 9.24474C32.2327 9.98527 32.0878 10.6357 32.1941 11.2023C32.2778 11.6338 32.516 11.9557 32.9185 12.1683C33.3467 12.3936 33.7878 12.4162 34.2418 12.2294C34.699 12.0459 35.1176 11.5984 35.5007 10.8836C35.9129 10.1076 36.0706 9.4508 35.9676 8.90989C35.8807 8.47522 35.6231 8.14359 35.1884 7.91499M35.3848 7.70571C35.974 8.01802 36.3668 8.51064 36.5568 9.18678C36.7564 9.85971 36.6727 10.5326 36.3185 11.1991C35.9515 11.8881 35.4267 12.3421 34.7473 12.5675C34.0647 12.7897 33.4208 12.7381 32.7962 12.4097C32.1683 12.0781 31.7626 11.579 31.5694 10.9093C31.3827 10.2429 31.4761 9.55705 31.8496 8.85193C32.2359 8.13393 32.7962 7.67673 33.5303 7.48355C34.1645 7.31612 34.786 7.39017 35.3816 7.70571" fill="white"/>
<path d="M37.4487 15.8495L39.4932 11.5576L36.8531 13.7599C36.6084 13.9627 36.4828 14.114 36.4635 14.2171C36.4441 14.3555 36.4989 14.5036 36.6277 14.6582L36.7436 14.7966L36.6373 14.8868L35.4814 13.5184L35.5909 13.4282L35.7068 13.5667C35.8453 13.7341 35.9934 13.8082 36.1544 13.7953C36.2542 13.7856 36.4119 13.689 36.6341 13.5055L39.2163 11.3515C39.3902 11.2066 39.4997 11.0811 39.548 10.978C39.5802 10.904 39.5866 10.8138 39.5608 10.7108C39.5383 10.6078 39.461 10.4757 39.3258 10.318L39.4353 10.2246L40.3722 11.3386L38.4855 15.3408L42.7613 14.1656L43.6982 15.2764L43.5919 15.3665L43.476 15.2313C43.3344 15.0639 43.1863 14.9866 43.0253 14.9995C42.9255 15.0091 42.7677 15.1057 42.5455 15.2892L39.9633 17.4432C39.7186 17.6461 39.593 17.8006 39.5769 17.9037C39.5576 18.0421 39.6124 18.1902 39.7444 18.3448L39.8571 18.48L39.7508 18.5701L38.3438 16.8991L38.45 16.8122L38.5724 16.9506C38.7141 17.118 38.8622 17.1953 39.0199 17.1792C39.1197 17.1696 39.2775 17.073 39.4997 16.8894L42.1398 14.6872L37.5389 15.9461L37.4584 15.8495H37.4487Z" fill="white"/>
<path d="M47.3558 20.9043L45.762 20.2443L45.7234 20.1219L47.095 20.0962L47.359 20.9043H47.3558ZM42.7065 21.2971L44.4194 19.8289L42.1591 19.6196L42.7097 21.2971H42.7065ZM42.4747 21.4839L41.8597 19.5971L40.9743 19.5166C40.7586 19.4941 40.604 19.5005 40.5074 19.5327C40.4334 19.5552 40.3786 19.6132 40.3432 19.7033C40.3078 19.7935 40.3239 19.9577 40.3851 20.1992L40.2498 20.241L39.7476 18.702L39.8828 18.6602C39.9858 18.8533 40.076 18.9692 40.1532 19.0079C40.3078 19.0948 40.5879 19.156 40.9904 19.1882L45.5881 19.6003L45.63 19.7259L42.1044 22.7428C41.8243 22.9875 41.6472 23.1774 41.586 23.3191C41.5281 23.464 41.5216 23.6379 41.5764 23.8407L41.4411 23.8826L40.8133 21.9572L40.9485 21.9153C41.0226 22.1085 41.0966 22.2276 41.1739 22.2759C41.2512 22.3274 41.3317 22.3403 41.4122 22.3145C41.5184 22.2791 41.6697 22.1761 41.8661 22.0087L42.4747 21.4871V21.4839Z" fill="white"/>
<path d="M46.7024 27.145L44.9186 27.1772V27.0355C45.2567 26.984 45.5304 26.8971 45.73 26.7747C45.9329 26.6556 46.0874 26.4882 46.2033 26.266C46.3192 26.0503 46.3772 25.8217 46.3707 25.5899C46.3675 25.3291 46.2806 25.1134 46.1164 24.9459C45.9522 24.7753 45.7687 24.6948 45.5658 24.698C45.4048 24.698 45.2664 24.7592 45.1376 24.8687C44.9508 25.0264 44.7029 25.4031 44.397 25.9956C44.1459 26.4785 43.9527 26.8102 43.8175 26.984C43.6823 27.1611 43.5213 27.2996 43.3345 27.3961C43.151 27.496 42.9546 27.5475 42.7518 27.5507C42.359 27.5571 42.0209 27.4122 41.7279 27.1128C41.4413 26.8198 41.2932 26.4367 41.2868 25.9601C41.2868 25.812 41.2932 25.6736 41.3125 25.5416C41.3254 25.4611 41.3673 25.3001 41.4413 25.049C41.5186 24.801 41.5572 24.6465 41.5572 24.5821C41.554 24.5177 41.5347 24.4694 41.4961 24.4308C41.4574 24.3954 41.3802 24.3696 41.2578 24.3567V24.2183L43.0222 24.1861V24.3277C42.6552 24.3986 42.3815 24.4887 42.198 24.6046C42.0177 24.7173 41.8663 24.8912 41.7504 25.1198C41.6345 25.3516 41.5766 25.6028 41.583 25.8732C41.5894 26.1855 41.6764 26.4334 41.8438 26.6137C42.0145 26.7941 42.2141 26.8842 42.4427 26.881C42.5682 26.881 42.697 26.8391 42.8226 26.7651C42.9482 26.6942 43.0673 26.5848 43.18 26.4399C43.254 26.3401 43.4086 26.0696 43.6469 25.6253C43.8915 25.1842 44.0815 24.8687 44.2232 24.6755C44.3649 24.4887 44.5291 24.3471 44.7029 24.2473C44.8768 24.1507 45.07 24.0991 45.2857 24.0959C45.6527 24.0895 45.9747 24.2247 46.2484 24.5016C46.5188 24.7785 46.6605 25.1327 46.6702 25.5706C46.6766 25.8442 46.6122 26.134 46.4834 26.4431C46.4223 26.5848 46.3933 26.6846 46.3933 26.7425C46.3933 26.8069 46.4126 26.8584 46.4512 26.9003C46.4931 26.9422 46.5768 26.9744 46.6959 27.0001V27.1386L46.7024 27.145Z" fill="white"/>
<path d="M83.7229 7.38094V6.50195H95.14V7.38094H93.9262C92.6576 7.38094 91.682 7.91541 90.9994 8.9747C90.6678 9.47054 90.5004 10.6103 90.5004 12.4005V25.4822C90.5004 28.7149 90.1752 31.2327 89.5248 33.0261C88.8905 34.8001 87.6316 36.3327 85.7448 37.6174C83.8742 38.886 81.3209 39.517 78.0851 39.517C74.5595 39.517 71.8903 38.9117 70.068 37.6882C68.2456 36.4712 66.9513 34.8259 66.1914 32.7653C65.6859 31.3518 65.4316 28.7052 65.4316 24.819V12.2105C65.4316 10.2304 65.1515 8.92963 64.5944 8.31144C64.0567 7.69325 63.1745 7.38094 61.9543 7.38094H60.7437V6.50195H74.6819V7.38094H73.4455C72.1157 7.38094 71.1595 7.80272 70.5896 8.64307C70.1968 9.21618 69.9939 10.401 69.9939 12.2105V26.2679C69.9939 27.5203 70.1034 28.9596 70.3288 30.5759C70.567 32.1922 70.9888 33.4543 71.5909 34.359C72.193 35.2638 73.0559 36.0075 74.1828 36.5935C75.3258 37.1827 76.7199 37.479 78.3684 37.479C80.4806 37.479 82.3641 37.0185 84.0287 36.0977C85.6965 35.1768 86.8299 34.0049 87.432 32.5785C88.0469 31.1329 88.3593 28.702 88.3593 25.273V12.2138C88.3593 10.2014 88.1371 8.94251 87.6896 8.43057C87.0714 7.73189 86.1537 7.38738 84.9335 7.38094H83.7196H83.7229Z" fill="white"/>
<path d="M113.94 6.11719L115.041 16.4461H113.846C113.673 15.7023 113.038 13.7318 112.224 12.3474C111.499 11.1335 110.411 10.0292 109.02 9.2693C107.629 8.50623 106.328 8.08766 104.699 8.08766C103.176 8.08766 101.682 8.74127 100.707 9.92291C99.9629 10.8244 99.8824 11.9578 99.8824 12.5148C99.8824 13.5193 100.079 14.5722 100.938 15.6218C102.088 17.0192 103.749 18.0559 107.475 20.3097C109.31 21.4141 111.641 22.8566 113.161 24.2732C113.937 25.0009 114.426 25.4871 115.115 26.6365C115.801 27.7666 116.103 29.2284 116.097 30.5742C116.078 32.754 115.498 34.6601 113.656 36.5694C111.438 38.8876 108.408 39.5219 106.219 39.5219C105.237 39.5219 104.448 39.4768 103.453 39.2933C102.069 39.0099 102.207 39.0389 100.549 38.469C99.1515 37.9861 98.5462 37.8025 98.2371 37.8122C97.8765 37.8315 97.4129 37.9635 97.239 38.3145C97.1618 38.469 96.9428 38.762 96.8366 39.4478H95.7644L94.293 29.1189H95.4392C96.154 31.2182 97.1167 32.8603 98.0923 34.0902C99.0421 35.1752 99.876 36.0607 101.17 36.6853C102.397 37.2745 103.392 37.7381 105.456 37.7381C106.637 37.7381 108.25 37.458 109.79 36.0027C110.205 35.6067 111.219 34.4186 111.219 32.197C111.219 31.3888 111.019 30.3167 110.52 29.4312C110.086 28.6038 109.806 28.4041 109.326 27.8632C108.505 27.1485 107.516 26.4433 104.976 24.8174C101.141 22.3639 99.6184 21.7264 97.9087 20.0039C96.8977 18.9768 96.8398 18.7256 96.3085 17.7951C96.0252 17.2929 95.5358 16.0243 95.597 14.5947C95.6131 12.5599 96.125 10.6667 97.7703 8.79922C99.5894 6.87704 101.84 6.11719 104.48 6.11719C106.225 6.11719 108.019 6.75147 110.037 7.45337C110.849 7.73349 110.99 7.74637 111.361 7.74637C111.776 7.74637 112.121 7.62402 112.375 7.38254C112.726 6.95432 112.819 6.62912 112.942 6.11719H113.937H113.94Z" fill="white"/>
<path d="M142.927 37.3858C143.156 37.3858 143.323 37.4083 143.426 37.4534C143.619 37.5306 143.713 37.6852 143.713 37.9138C143.713 38.0748 143.651 38.1939 143.532 38.2744C143.471 38.3163 143.381 38.3452 143.268 38.3678C143.413 38.3871 143.519 38.445 143.581 38.5449C143.648 38.6447 143.68 38.7348 143.68 38.825V38.9602C143.68 39.0021 143.68 39.0471 143.687 39.0954C143.693 39.1437 143.696 39.1759 143.706 39.1888L143.716 39.2113H143.416C143.416 39.2113 143.416 39.2017 143.416 39.192C143.41 39.1888 143.41 39.1824 143.41 39.1727L143.403 39.1148V38.9699C143.403 38.7574 143.346 38.6157 143.233 38.5513C143.165 38.5062 143.046 38.4901 142.872 38.4901H142.618V39.2081H142.296V37.3825H142.933L142.927 37.3858ZM143.271 37.6755C143.191 37.6272 143.062 37.6047 142.885 37.6047H142.611V38.2712H142.901C143.036 38.2712 143.139 38.2551 143.207 38.2293C143.329 38.1778 143.394 38.0844 143.394 37.9428C143.394 37.8108 143.355 37.7206 143.271 37.6787M144.138 39.4818C143.812 39.8102 143.42 39.9744 142.959 39.9744C142.499 39.9744 142.106 39.8102 141.784 39.4818C141.462 39.1566 141.304 38.767 141.304 38.3034C141.304 37.8397 141.462 37.4534 141.787 37.1314C142.109 36.8062 142.502 36.6484 142.959 36.6484C143.416 36.6484 143.812 36.8062 144.138 37.1314C144.46 37.4534 144.624 37.843 144.624 38.3034C144.624 38.7638 144.456 39.1566 144.138 39.4818ZM141.948 37.2924C141.671 37.5693 141.533 37.9106 141.533 38.3034C141.533 38.6962 141.671 39.0439 141.948 39.3208C142.222 39.6009 142.563 39.7394 142.959 39.7394C143.355 39.7394 143.696 39.6009 143.97 39.3208C144.25 39.0407 144.392 38.6994 144.392 38.3034C144.392 37.9074 144.25 37.5693 143.97 37.2924C143.693 37.0123 143.355 36.8706 142.959 36.8706C142.563 36.8706 142.228 37.0123 141.948 37.2924Z" fill="white"/>
<path d="M144.369 6.50517L144.727 14.0715H143.825C143.651 12.7418 143.413 11.7887 143.114 11.2189C142.621 10.298 141.964 9.62509 141.14 9.19687C140.332 8.75254 139.26 8.5336 137.93 8.5336H133.387V33.1774C133.387 35.1608 133.599 36.3971 134.027 36.8865C134.636 37.553 135.56 37.8846 136.813 37.8846H137.933V38.7636H124.252V37.8846H125.395C126.761 37.8846 127.726 37.4757 128.3 36.6483C128.647 36.1395 128.821 34.9837 128.821 33.1742V8.52716H124.945C123.435 8.52716 122.362 8.63663 121.731 8.85879C120.907 9.16145 120.202 9.73778 119.616 10.5942C119.03 11.4539 118.682 12.613 118.57 14.0683H117.662L118.045 6.50195H144.379L144.369 6.50517Z" fill="white"/>
<path d="M144.363 43.8691H60.8594V44.5582H144.363V43.8691Z" fill="white"/>
<path d="M63.7278 47.9688V47.8594H65.1574V47.9688H65.0061C64.8483 47.9688 64.726 48.0332 64.639 48.1685C64.5972 48.2296 64.5746 48.3745 64.5746 48.5967V50.2355C64.5746 50.6412 64.536 50.9568 64.4523 51.1789C64.3718 51.4011 64.214 51.5943 63.979 51.7552C63.744 51.913 63.4252 51.9935 63.0195 51.9935C62.5784 51.9935 62.2436 51.9162 62.015 51.7649C61.7864 51.6104 61.6254 51.4075 61.5288 51.1499C61.4644 50.9729 61.4322 50.6412 61.4322 50.155V48.5774C61.4322 48.3295 61.3968 48.1653 61.3292 48.088C61.2615 48.0107 61.1521 47.9721 60.9975 47.9721H60.8462V47.8626H62.5913V47.9721H62.4367C62.2693 47.9721 62.1534 48.0236 62.0793 48.1298C62.0278 48.2007 62.0053 48.3488 62.0053 48.5774V50.3353C62.0053 50.4899 62.0182 50.6702 62.0472 50.873C62.0761 51.0759 62.1276 51.2337 62.2049 51.3463C62.279 51.459 62.3852 51.5524 62.5269 51.6265C62.6718 51.7005 62.8424 51.7359 63.0517 51.7359C63.3157 51.7359 63.5508 51.678 63.76 51.5653C63.9693 51.4494 64.111 51.3045 64.1851 51.1242C64.2623 50.9439 64.301 50.638 64.301 50.2098V48.5774C64.301 48.3262 64.272 48.1685 64.2172 48.1041C64.14 48.0171 64.0241 47.9721 63.8695 47.9721H63.7182L63.7278 47.9688Z" fill="white"/>
<path d="M65.1572 47.8567H66.2519L68.7215 50.8833V48.5554C68.7215 48.3075 68.6925 48.153 68.6378 48.0918C68.5637 48.0081 68.4478 47.9662 68.2868 47.9662H68.1451V47.8567H69.5522V47.9662H69.4105C69.2398 47.9662 69.1175 48.0177 69.0467 48.1208C69.0016 48.1851 68.9823 48.33 68.9823 48.5554V51.9555H68.876L66.2165 48.7035V51.1892C66.2165 51.4371 66.2423 51.5916 66.297 51.6528C66.3711 51.7365 66.4902 51.7784 66.6447 51.7784H66.7896V51.8878H65.3826V51.7784H65.5211C65.6949 51.7784 65.8141 51.7269 65.8881 51.6238C65.93 51.5594 65.9557 51.4178 65.9557 51.1892V48.3816C65.8398 48.2463 65.7497 48.153 65.6885 48.1111C65.6273 48.066 65.5404 48.0274 65.4245 47.9887C65.3665 47.9694 65.2796 47.963 65.1637 47.963V47.8535L65.1572 47.8567Z" fill="white"/>
<path d="M71.5066 51.7835V51.893H69.7776V51.7835H69.9193C70.0867 51.7835 70.2059 51.7352 70.2799 51.6386C70.3282 51.5743 70.3507 51.4229 70.3507 51.1782V48.5702C70.3507 48.3642 70.3379 48.2322 70.3121 48.1646C70.2928 48.113 70.2509 48.0712 70.1898 48.0358C70.1028 47.9875 70.0127 47.9649 69.9161 47.9649H69.7744V47.8555H71.5034V47.9649H71.3585C71.1943 47.9649 71.0752 48.0132 70.9979 48.1098C70.9464 48.1742 70.9239 48.3288 70.9239 48.5702V51.1782C70.9239 51.3811 70.9367 51.5195 70.9625 51.5839C70.9818 51.6354 71.0237 51.6773 71.0881 51.7127C71.175 51.761 71.2619 51.7835 71.3585 51.7835H71.5034H71.5066Z" fill="white"/>
<path d="M75.9694 47.8554V47.9648C75.8245 47.9906 75.7182 48.0357 75.6442 48.1001C75.5379 48.1967 75.4445 48.3448 75.3641 48.5444L73.957 51.9798H73.8476L72.3343 48.4993C72.257 48.3222 72.2055 48.2128 72.1733 48.1709C72.125 48.1097 72.0606 48.0614 71.9898 48.0292C71.9189 47.9938 71.8191 47.9681 71.6968 47.9616V47.8521H73.3453V47.9616C73.1585 47.9777 73.0362 48.0099 72.9847 48.055C72.9267 48.1001 72.901 48.1612 72.901 48.2288C72.901 48.3287 72.946 48.4832 73.0394 48.6925L74.0665 51.059L75.0195 48.7215C75.1129 48.4929 75.158 48.3319 75.1612 48.2417C75.1612 48.1838 75.1322 48.129 75.0743 48.0775C75.0163 48.026 74.9197 47.9874 74.7813 47.9648C74.7716 47.9648 74.7555 47.9616 74.733 47.9552V47.8457H75.9758L75.9694 47.8554Z" fill="white"/>
<path d="M77.3057 48.0776V49.6714H78.1911C78.4197 49.6714 78.5743 49.636 78.6515 49.5684C78.7546 49.475 78.8125 49.314 78.8254 49.0854H78.9349V50.4892H78.8254C78.7964 50.2928 78.7674 50.1672 78.7417 50.1125C78.7063 50.0417 78.6483 49.9901 78.5678 49.9483C78.4841 49.9097 78.3618 49.8903 78.1911 49.8903H77.3057V51.2201C77.3057 51.3972 77.3121 51.5066 77.3282 51.5485C77.3443 51.5871 77.3701 51.6161 77.4119 51.6419C77.4506 51.6644 77.5279 51.6741 77.6373 51.6741H78.3231C78.5517 51.6741 78.7159 51.658 78.8222 51.6258C78.9252 51.5936 79.025 51.5324 79.1216 51.439C79.244 51.3167 79.3695 51.1299 79.4983 50.882H79.6175L79.2697 51.893H76.1595V51.7835H76.3011C76.3977 51.7835 76.4879 51.761 76.5716 51.7159C76.6328 51.6837 76.6778 51.6354 76.6972 51.571C76.7229 51.5066 76.7326 51.3779 76.7326 51.1814V48.5574C76.7326 48.303 76.7068 48.1452 76.6553 48.0841C76.5845 48.0036 76.4653 47.9649 76.2979 47.9649H76.1562V47.8555H79.2665L79.3116 48.7409H79.1957C79.1538 48.5284 79.1087 48.3835 79.0572 48.303C79.0089 48.2225 78.9349 48.1646 78.8351 48.1227C78.7546 48.0937 78.6161 48.0776 78.4165 48.0776H77.3089H77.3057Z" fill="white"/>
<path d="M83.6742 51.893H82.5956L81.2304 50.0062C81.1306 50.0095 81.0469 50.0127 80.9825 50.0127H80.8988C80.8698 50.0127 80.8376 50.0095 80.8054 50.0062V51.1782C80.8054 51.4326 80.8344 51.5904 80.8891 51.6515C80.9632 51.7385 81.0791 51.7835 81.2304 51.7835H81.3882V51.893H79.6592V51.7835H79.8105C79.9812 51.7835 80.1035 51.7288 80.1776 51.6161C80.2194 51.5549 80.2387 51.41 80.2387 51.1782V48.5702C80.2387 48.3159 80.2098 48.1581 80.155 48.0969C80.0777 48.01 79.9618 47.9649 79.8105 47.9649H79.6592V47.8555H81.1306C81.5588 47.8555 81.8744 47.8877 82.0772 47.9521C82.28 48.0132 82.4539 48.1291 82.5956 48.2966C82.7405 48.464 82.8113 48.6636 82.8113 48.8954C82.8113 49.1434 82.7276 49.3591 82.5666 49.5394C82.4056 49.7197 82.1545 49.8517 81.8164 49.9258L82.6471 51.0849C82.8371 51.3521 83.0013 51.5292 83.1397 51.6129C83.2782 51.6998 83.4552 51.7578 83.6742 51.7803V51.8898V51.893ZM80.8054 49.8195C80.844 49.8195 80.8762 49.8195 80.902 49.8195H80.9696C81.356 49.8195 81.6457 49.7358 81.8389 49.5684C82.0353 49.4009 82.1319 49.1884 82.1319 48.9309C82.1319 48.6733 82.0514 48.4737 81.8937 48.3159C81.7359 48.1581 81.5298 48.0776 81.269 48.0776C81.1531 48.0776 80.9986 48.0969 80.8022 48.1356V49.8131L80.8054 49.8195Z" fill="white"/>
<path d="M88.2718 51.7835V51.893H86.5428V51.7835H86.6877C86.8551 51.7835 86.9742 51.7352 87.0483 51.6386C87.0966 51.5743 87.1191 51.4229 87.1191 51.1782V48.5702C87.1191 48.3642 87.1062 48.2322 87.0805 48.1646C87.0611 48.113 87.0193 48.0712 86.9581 48.0358C86.8712 47.9875 86.781 47.9649 86.6844 47.9649H86.5396V47.8555H88.2685V47.9649H88.1237C87.9595 47.9649 87.8403 48.0132 87.763 48.1098C87.7147 48.1742 87.689 48.3288 87.689 48.5702V51.1782C87.689 51.3811 87.7019 51.5195 87.7276 51.5839C87.7469 51.6354 87.7888 51.6773 87.8532 51.7127C87.9369 51.761 88.0271 51.7835 88.1237 51.7835H88.2685H88.2718Z" fill="white"/>
<path d="M88.6067 51.8937V51.7842H88.7581C88.9287 51.7842 89.0478 51.7295 89.1187 51.62C89.1605 51.5524 89.1831 51.4075 89.1831 51.1789V48.5709C89.1831 48.3198 89.1573 48.162 89.0994 48.0976C89.0221 48.0107 88.9062 47.9688 88.7548 47.9688H88.6035V47.8594H90.2456C90.8509 47.8594 91.3081 47.927 91.6204 48.0654C91.9359 48.2007 92.1903 48.4293 92.3803 48.7512C92.5734 49.07 92.67 49.4403 92.67 49.8588C92.67 50.4223 92.4994 50.8891 92.1581 51.2658C91.775 51.6876 91.1922 51.8969 90.4066 51.8969H88.6035L88.6067 51.8937ZM89.7594 51.6007C90.0105 51.6587 90.223 51.6844 90.3937 51.6844C90.8541 51.6844 91.2373 51.5234 91.5399 51.1982C91.8426 50.873 91.9939 50.4384 91.9939 49.8814C91.9939 49.3244 91.8426 48.8833 91.5399 48.5613C91.2373 48.2393 90.8477 48.0783 90.3711 48.0783C90.1941 48.0783 89.988 48.1073 89.7626 48.1652V51.5975L89.7594 51.6007Z" fill="white"/>
<path d="M95.0557 50.541H93.4941L93.2205 51.1785C93.1529 51.3363 93.1174 51.4522 93.1174 51.5295C93.1174 51.5907 93.1464 51.6454 93.2044 51.6937C93.2623 51.7388 93.3911 51.7677 93.5843 51.7838V51.8933H92.3125V51.7838C92.4799 51.7549 92.5894 51.7162 92.6409 51.6679C92.7407 51.5713 92.8566 51.3782 92.979 51.0884L94.3989 47.7656H94.5019L95.9089 51.1238C96.0216 51.3943 96.1214 51.5681 96.2148 51.6486C96.3082 51.7291 96.437 51.7742 96.6012 51.7838V51.8933H95.0074V51.7838C95.1684 51.7774 95.2747 51.7484 95.3326 51.7034C95.3906 51.6551 95.4195 51.6003 95.4195 51.5359C95.4195 51.449 95.3809 51.3105 95.3004 51.1238L95.0557 50.5442V50.541ZM94.972 50.3221L94.2862 48.6897L93.5843 50.3221H94.972Z" fill="white"/>
<path d="M96.6045 51.8937V51.7842H96.7558C96.9265 51.7842 97.0488 51.7295 97.1197 51.62C97.1615 51.5524 97.184 51.4075 97.184 51.1789V48.5709C97.184 48.3198 97.1551 48.162 97.1003 48.0976C97.023 48.0107 96.9071 47.9688 96.7558 47.9688H96.6045V47.8594H98.2466C98.8486 47.8594 99.3091 47.927 99.6214 48.0654C99.9369 48.2007 100.188 48.4293 100.381 48.7512C100.574 49.07 100.671 49.4403 100.671 49.8588C100.671 50.4223 100.5 50.8891 100.159 51.2658C99.7759 51.6876 99.1932 51.8969 98.4075 51.8969H96.6045V51.8937ZM97.7539 51.6007C98.0051 51.6587 98.2176 51.6844 98.3882 51.6844C98.8486 51.6844 99.2286 51.5234 99.5344 51.1982C99.8371 50.873 99.9916 50.4384 99.9916 49.8814C99.9916 49.3244 99.8403 48.8833 99.5344 48.5613C99.2318 48.2393 98.8422 48.0783 98.3657 48.0783C98.1886 48.0783 97.9825 48.1073 97.7539 48.1652V51.5975V51.6007Z" fill="white"/>
<path d="M86.1276 47.7591L86.2661 49.0695H86.1147C86.0922 48.9729 86.0117 48.725 85.9087 48.5511C85.8153 48.3966 85.6801 48.2549 85.503 48.1583C85.3259 48.0617 85.1617 48.007 84.9524 48.007C84.7592 48.007 84.5693 48.0907 84.4437 48.2388C84.3503 48.3547 84.3407 48.4964 84.3407 48.5672C84.3407 48.696 84.3664 48.828 84.4759 48.96C84.6208 49.1371 84.8333 49.2691 85.3066 49.5557C85.5384 49.6974 85.8346 49.8777 86.0278 50.058C86.1244 50.1513 86.1888 50.2125 86.2757 50.3574C86.3627 50.5023 86.4013 50.6858 86.4013 50.8597C86.4013 51.1366 86.3272 51.3781 86.0922 51.6228C85.8089 51.9157 85.4257 51.9962 85.1456 51.9962C85.02 51.9962 84.9202 51.9898 84.7946 51.9673C84.6176 51.9318 84.6369 51.9351 84.4244 51.8642C84.2473 51.8031 84.17 51.7805 84.1314 51.7805C84.0863 51.7805 84.0284 51.7998 84.0058 51.8449C83.9962 51.8642 83.9672 51.9029 83.9543 51.9898H83.8191L83.6323 50.6794H83.7804C83.8706 50.9466 83.9929 51.1559 84.1153 51.3104C84.2376 51.4489 84.3407 51.5584 84.5049 51.6389C84.6626 51.7129 84.7882 51.7741 85.049 51.7741C85.2003 51.7741 85.4032 51.7387 85.5996 51.5519C85.6511 51.5004 85.7799 51.3491 85.7799 51.069C85.7799 50.9659 85.7541 50.8307 85.6897 50.718C85.6318 50.615 85.5996 50.5892 85.5384 50.5184C85.4322 50.4282 85.3066 50.3381 84.9846 50.132C84.4952 49.8197 84.302 49.7392 84.0863 49.5203C83.9575 49.3915 83.9511 49.3593 83.8835 49.2401C83.848 49.1758 83.7869 49.0148 83.7933 48.8345C83.7933 48.5769 83.8609 48.3354 84.0702 48.0971C84.302 47.8525 84.5854 47.7559 84.9234 47.7559C85.1456 47.7559 85.371 47.8363 85.6286 47.9233C85.7316 47.9587 85.7509 47.9619 85.7992 47.9619C85.8507 47.9619 85.8958 47.9458 85.928 47.9168C85.9731 47.8621 85.9859 47.8235 85.9988 47.7559H86.1244L86.1276 47.7591Z" fill="white"/>
<path d="M108.688 50.541H107.126L106.853 51.1785C106.785 51.3363 106.75 51.4522 106.75 51.5295C106.75 51.5907 106.779 51.6454 106.837 51.6937C106.895 51.7388 107.023 51.7677 107.217 51.7838V51.8933H105.945V51.7838C106.115 51.7549 106.222 51.7162 106.273 51.6679C106.373 51.5713 106.486 51.3782 106.611 51.0884L108.031 47.7656H108.134L109.541 51.1238C109.654 51.3943 109.757 51.5681 109.847 51.6486C109.941 51.7291 110.069 51.7742 110.237 51.7838V51.8933H108.643V51.7838C108.804 51.7774 108.913 51.7484 108.968 51.7034C109.026 51.6551 109.055 51.6003 109.055 51.5359C109.055 51.449 109.016 51.3105 108.936 51.1238L108.691 50.5442L108.688 50.541ZM108.604 50.3221L107.919 48.6897L107.217 50.3221H108.604Z" fill="white"/>
<path d="M110.011 47.8567H111.106L113.572 50.8833V48.5554C113.572 48.3075 113.543 48.153 113.489 48.0918C113.414 48.0081 113.299 47.9662 113.141 47.9662H112.999V47.8567H114.406V47.9662H114.264C114.094 47.9662 113.972 48.0177 113.901 48.1208C113.856 48.1851 113.836 48.33 113.836 48.5554V51.9555H113.73L111.067 48.7035V51.1892C111.067 51.4371 111.093 51.5916 111.148 51.6528C111.222 51.7365 111.338 51.7784 111.496 51.7784H111.64V51.8878H110.233V51.7784H110.372C110.546 51.7784 110.668 51.7269 110.739 51.6238C110.781 51.5594 110.803 51.4178 110.803 51.1892V48.3816C110.687 48.2463 110.597 48.153 110.536 48.1111C110.475 48.066 110.388 48.0274 110.272 47.9887C110.214 47.9694 110.127 47.963 110.011 47.963V47.8535V47.8567Z" fill="white"/>
<path d="M118.006 47.8555L118.051 48.8021H117.939C117.916 48.6346 117.887 48.5155 117.848 48.4447C117.787 48.3288 117.704 48.2451 117.601 48.1903C117.498 48.1356 117.366 48.1066 117.198 48.1066H116.628V51.1911C116.628 51.439 116.657 51.5936 116.709 51.6547C116.783 51.7385 116.902 51.7803 117.056 51.7803H117.195V51.8898H115.485V51.7803H115.627C115.798 51.7803 115.92 51.7288 115.991 51.6258C116.033 51.5614 116.055 51.4197 116.055 51.1911V48.1066H115.569C115.379 48.1066 115.247 48.1195 115.166 48.1485C115.063 48.1871 114.973 48.2579 114.902 48.3674C114.828 48.4769 114.787 48.6185 114.77 48.8021H114.658L114.706 47.8555H118H118.006Z" fill="white"/>
<path d="M120.295 47.7656C120.82 47.7656 121.274 47.9652 121.657 48.3645C122.04 48.7605 122.234 49.2564 122.234 49.852C122.234 50.4477 122.04 50.9757 121.654 51.3782C121.268 51.7838 120.798 51.9867 120.247 51.9867C119.696 51.9867 119.223 51.7871 118.846 51.3943C118.47 51.0014 118.28 50.4895 118.28 49.8617C118.28 49.2338 118.499 48.6993 118.933 48.2937C119.313 47.9427 119.767 47.7656 120.292 47.7656M120.237 47.9813C119.877 47.9813 119.587 48.1134 119.368 48.3838C119.098 48.7187 118.959 49.2048 118.959 49.8488C118.959 50.4927 119.101 51.0143 119.381 51.3717C119.597 51.6422 119.883 51.7774 120.241 51.7774C120.621 51.7774 120.933 51.6293 121.178 51.3331C121.425 51.0369 121.551 50.57 121.551 49.9357C121.551 49.2467 121.416 48.7315 121.142 48.3902C120.923 48.1198 120.621 47.9846 120.237 47.9846" fill="white"/>
<path d="M105.491 47.7591L105.633 49.0695H105.481C105.459 48.9729 105.378 48.725 105.275 48.5511C105.185 48.3966 105.047 48.2549 104.87 48.1583C104.693 48.0617 104.528 48.007 104.322 48.007C104.129 48.007 103.939 48.0907 103.814 48.2388C103.72 48.3547 103.71 48.4964 103.71 48.5672C103.71 48.696 103.736 48.828 103.846 48.96C103.991 49.1371 104.203 49.2691 104.676 49.5557C104.908 49.6974 105.204 49.8777 105.398 50.058C105.494 50.1513 105.559 50.2125 105.646 50.3574C105.732 50.5023 105.771 50.6858 105.771 50.8597C105.771 51.1366 105.694 51.3781 105.462 51.6228C105.182 51.9157 104.796 51.9962 104.519 51.9962C104.393 51.9962 104.293 51.9898 104.168 51.9673C103.994 51.9318 104.01 51.9351 103.801 51.8642C103.624 51.8031 103.546 51.7805 103.508 51.7805C103.463 51.7805 103.401 51.7998 103.379 51.8449C103.369 51.8642 103.34 51.9029 103.327 51.9898H103.192L103.005 50.6794H103.15C103.24 50.9466 103.363 51.1559 103.488 51.3104C103.611 51.4489 103.714 51.5584 103.878 51.6389C104.036 51.7129 104.161 51.7741 104.422 51.7741C104.57 51.7741 104.779 51.7387 104.973 51.5519C105.024 51.5004 105.153 51.3491 105.153 51.069C105.153 50.9659 105.127 50.8307 105.063 50.718C105.008 50.615 104.973 50.5892 104.911 50.5184C104.805 50.4282 104.68 50.3381 104.358 50.132C103.868 49.8197 103.675 49.7392 103.459 49.5203C103.331 49.3915 103.324 49.3593 103.257 49.2401C103.221 49.1758 103.16 49.0148 103.166 48.8345C103.17 48.5769 103.234 48.3354 103.443 48.0971C103.672 47.8525 103.958 47.7559 104.296 47.7559C104.519 47.7559 104.744 47.8363 105.002 47.9233C105.105 47.9587 105.124 47.9619 105.169 47.9619C105.224 47.9619 105.266 47.9458 105.298 47.9168C105.343 47.8621 105.356 47.8235 105.369 47.7559H105.494L105.491 47.7591Z" fill="white"/>
<path d="M127.488 47.8555L127.53 48.8021H127.417C127.395 48.6346 127.366 48.5155 127.327 48.4447C127.266 48.3288 127.182 48.2451 127.079 48.1903C126.976 48.1356 126.844 48.1066 126.677 48.1066H126.107V51.1911C126.107 51.439 126.133 51.5936 126.187 51.6547C126.261 51.7385 126.381 51.7803 126.535 51.7803H126.674V51.8898H124.964V51.7803H125.106C125.276 51.7803 125.395 51.7288 125.469 51.6258C125.511 51.5614 125.537 51.4197 125.537 51.1911V48.1066H125.051C124.861 48.1066 124.729 48.1195 124.648 48.1485C124.545 48.1871 124.458 48.2579 124.384 48.3674C124.31 48.4769 124.268 48.6185 124.256 48.8021H124.14L124.188 47.8555H127.485H127.488Z" fill="white"/>
<path d="M129.781 47.7656C130.305 47.7656 130.759 47.9652 131.143 48.3645C131.526 48.7605 131.719 49.2564 131.719 49.852C131.719 50.4477 131.526 50.9757 131.139 51.3782C130.753 51.7838 130.283 51.9867 129.732 51.9867C129.182 51.9867 128.709 51.7871 128.332 51.3943C127.955 51.0014 127.765 50.4895 127.765 49.8617C127.765 49.2338 127.984 48.6993 128.419 48.2937C128.799 47.9427 129.253 47.7656 129.777 47.7656M129.726 47.9813C129.365 47.9813 129.076 48.1134 128.857 48.3838C128.586 48.7187 128.448 49.2048 128.448 49.8488C128.448 50.4927 128.589 51.0143 128.87 51.3717C129.085 51.6422 129.372 51.7774 129.726 51.7774C130.106 51.7774 130.418 51.6293 130.663 51.3331C130.911 51.0369 131.033 50.57 131.033 49.9357C131.033 49.2467 130.898 48.7315 130.624 48.3902C130.405 48.1198 130.103 47.9846 129.72 47.9846" fill="white"/>
<path d="M134.298 51.893L132.736 48.4962V51.1943C132.736 51.4422 132.765 51.5968 132.817 51.658C132.891 51.7417 133.007 51.7835 133.164 51.7835H133.306V51.893H131.902V51.7835H132.044C132.215 51.7835 132.337 51.732 132.408 51.629C132.45 51.5646 132.472 51.4197 132.472 51.1943V48.5574C132.472 48.3771 132.453 48.2515 132.414 48.171C132.385 48.113 132.334 48.0648 132.26 48.0261C132.186 47.9875 132.067 47.9649 131.902 47.9649V47.8555H133.045L134.51 51.014L135.95 47.8555H137.093V47.9649H136.951C136.777 47.9649 136.658 48.0165 136.584 48.1195C136.539 48.1839 136.516 48.3288 136.516 48.5541V51.1911C136.516 51.439 136.545 51.5936 136.6 51.6547C136.674 51.7385 136.79 51.7803 136.948 51.7803H137.089V51.8898H135.373V51.7803H135.518C135.692 51.7803 135.811 51.7288 135.879 51.6258C135.924 51.5614 135.943 51.4165 135.943 51.1911V48.493L134.388 51.8898H134.291L134.298 51.893Z" fill="white"/>
<path d="M139.836 50.541H138.274L138.001 51.1785C137.933 51.3363 137.898 51.4522 137.898 51.5295C137.898 51.5907 137.927 51.6454 137.985 51.6937C138.043 51.7388 138.171 51.7677 138.365 51.7838V51.8933H137.093V51.7838C137.263 51.7549 137.37 51.7162 137.421 51.6679C137.521 51.5713 137.634 51.3782 137.756 51.0884L139.176 47.7656H139.279L140.686 51.1238C140.799 51.3943 140.902 51.5681 140.992 51.6486C141.085 51.7291 141.214 51.7742 141.381 51.7838V51.8933H139.788V51.7838C139.949 51.7774 140.058 51.7484 140.113 51.7034C140.171 51.6551 140.2 51.6003 140.2 51.5359C140.2 51.449 140.161 51.3105 140.081 51.1238L139.836 50.5442V50.541ZM139.752 50.3221L139.066 48.6897L138.365 50.3221H139.752Z" fill="white"/>
<path d="M144.095 47.7591L144.237 49.0695H144.086C144.063 48.9729 143.983 48.725 143.88 48.5511C143.789 48.3966 143.651 48.2549 143.471 48.1583C143.294 48.0617 143.129 48.007 142.923 48.007C142.73 48.007 142.54 48.0907 142.418 48.2388C142.324 48.3547 142.312 48.4964 142.312 48.5672C142.312 48.696 142.337 48.828 142.447 48.96C142.592 49.1371 142.804 49.2691 143.277 49.5557C143.509 49.6974 143.806 49.8777 143.999 50.058C144.099 50.1513 144.16 50.2125 144.247 50.3574C144.334 50.5023 144.372 50.6858 144.372 50.8597C144.372 51.1366 144.295 51.3781 144.063 51.6228C143.78 51.9157 143.397 51.9962 143.12 51.9962C142.994 51.9962 142.894 51.9898 142.769 51.9673C142.595 51.9318 142.611 51.9351 142.402 51.8642C142.225 51.8031 142.147 51.7805 142.109 51.7805C142.064 51.7805 142.002 51.7998 141.983 51.8449C141.973 51.8642 141.945 51.9029 141.932 51.9898H141.793L141.606 50.6794H141.751C141.845 50.9466 141.964 51.1559 142.089 51.3104C142.212 51.4489 142.315 51.5584 142.482 51.6389C142.637 51.7129 142.766 51.7741 143.026 51.7741C143.178 51.7741 143.381 51.7387 143.577 51.5519C143.628 51.5004 143.757 51.3491 143.757 51.069C143.757 50.9659 143.731 50.8307 143.667 50.718C143.609 50.615 143.574 50.5892 143.516 50.5184C143.409 50.4282 143.287 50.3381 142.965 50.132C142.476 49.8197 142.283 49.7392 142.067 49.5203C141.938 49.3915 141.932 49.3593 141.864 49.2401C141.829 49.1758 141.767 49.0148 141.774 48.8345C141.774 48.5769 141.841 48.3354 142.051 48.0971C142.283 47.8525 142.569 47.7559 142.904 47.7559C143.126 47.7559 143.352 47.8363 143.609 47.9233C143.712 47.9587 143.728 47.9619 143.777 47.9619C143.831 47.9619 143.873 47.9458 143.905 47.9168C143.95 47.8621 143.96 47.8235 143.976 47.7559H144.102L144.095 47.7591Z" fill="white"/>
<path d="M140.122 46.8535L139.794 47.8033H139.9L140.824 46.8535H140.122Z" fill="white"/>
</g>
<defs>
<clipPath id="clip0_414_2">
<rect width="144.73" height="52.0018" fill="white"/>
</clipPath>
</defs>
</svg>
